<svg xmlns="http://www.w3.org/2000/svg" width="100" height="100" fill="none" viewBox="0 0 100 100">
  <defs/>
  <path fill="#EAB300" d="M92 50A42 42 0 118 49.98 42 42 0 0192 50z"/>
  <path fill="#fff" d="M63.87 36.16c-2.1-4.78-6.96-5.8-12.9-4.82l-1.9-7.4-4.5 1.17 1.87 7.37c-1.18.3-2.4.56-3.6.9l-1.88-7.33-4.5 1.16 1.91 7.4c-.97.27-9.08 2.35-9.08 2.35l1.24 4.82s3.3-.93 3.27-.85c1.83-.48 2.7.43 3.1 1.3l5.25 20.27c.06.59-.04 1.6-1.3 1.93.07.04-3.28.84-3.28.84l.5 5.62s8.03-2.06 9.09-2.32l1.93 7.48 4.5-1.16-1.93-7.54c1.23-.29 2.44-.58 3.61-.9l1.92 7.5 4.5-1.16-1.93-7.47c6.93-1.69 11.82-6.06 10.82-12.74-.64-4.03-5.04-7.34-8.7-7.7 2.25-2 3.39-4.91 2-8.72zM61.71 53.8c.9 6.62-8.3 7.43-11.34 8.23l-2.65-9.9c3.05-.8 12.48-4.16 13.99 1.67zm-5.54-13.48c.94 5.88-6.92 6.57-9.46 7.22l-2.4-8.99c2.54-.63 9.93-3.68 11.86 1.77z"/>
</svg>
