<svg width="66" height="60" viewBox="0 0 66 60" fill="none" xmlns="http://www.w3.org/2000/svg">
<path d="M9.21832 20.7717V7.54131C9.21832 7.24945 9.52183 7.07825 9.81369 7.07825H7.1676C6.87574 7.07825 6.57224 7.24945 6.57224 7.54131V20.7717C6.58467 20.9255 6.65139 21.0698 6.76046 21.1789C6.86954 21.288 7.01385 21.3547 7.1676 21.3671H9.81369C9.65994 21.3547 9.51562 21.288 9.40655 21.1789C9.29748 21.0698 9.23076 20.9255 9.21832 20.7717Z" fill="#D4E1F4"/>
<path d="M9.21832 57.817V44.5866C9.21832 44.2947 9.52183 44.1235 9.81369 44.1235H7.1676C6.87574 44.1235 6.57224 44.2947 6.57224 44.5866V57.817C6.58467 57.9708 6.65139 58.1151 6.76046 58.2242C6.86954 58.3332 7.01385 58.4 7.1676 58.4124H9.81369C9.65994 58.4 9.51562 58.3332 9.40655 58.2242C9.29748 58.1151 9.23076 57.9708 9.21832 57.817Z" fill="#D4E1F4"/>
<path d="M9.21832 39.2943V26.0639C9.21832 25.772 9.52183 25.6008 9.81369 25.6008H7.1676C6.87574 25.6008 6.57224 25.772 6.57224 26.0639V39.2943C6.58467 39.4481 6.65139 39.5924 6.76046 39.7015C6.86954 39.8105 7.01385 39.8773 7.1676 39.8897H9.81369C9.65994 39.8773 9.51562 39.8105 9.40655 39.7015C9.29748 39.5924 9.23076 39.4481 9.21832 39.2943Z" fill="#D4E1F4"/>
<path d="M49.6373 28.0485C50.19 28.0486 50.7422 28.0161 51.2911 27.9512V27.3738C50.3225 27.6856 49.3228 27.8905 48.3096 27.9848C48.7469 28.0256 49.1895 28.0485 49.6373 28.0485Z" fill="#D4E1F4"/>
<path d="M49.6373 25.138C47.3637 25.1392 45.1333 24.5168 43.1889 23.3386C41.2444 22.1603 39.6604 20.4713 38.6091 18.4553C37.5579 16.4394 37.0797 14.1737 37.2266 11.9049C37.3735 9.63603 38.1399 7.45094 39.4423 5.58739C39.5606 5.49515 39.6503 5.3713 39.7011 5.23017C40.5626 4.08776 41.6132 3.10114 42.8074 2.31299C40.518 3.13635 38.5188 4.61013 37.0552 6.55347C37.0044 6.6946 36.9146 6.81846 36.7964 6.9107C35.141 9.28008 34.3632 12.1523 34.5965 15.0332C34.8298 17.9141 36.0598 20.6236 38.0749 22.6957C40.09 24.7678 42.7642 26.0729 45.6374 26.3865C48.5107 26.7001 51.4035 26.0026 53.8181 24.414C52.4765 24.8941 51.0622 25.139 49.6373 25.138Z" fill="#D4E1F4"/>
<path d="M38.193 48.1588C37.5911 48.1588 37.0028 48.3373 36.5024 48.6716C36.0019 49.006 35.6119 49.4813 35.3816 50.0373C35.1513 50.5933 35.091 51.2052 35.2084 51.7955C35.3258 52.3858 35.6157 52.928 36.0412 53.3535C36.4668 53.7791 37.009 54.0689 37.5993 54.1863C38.1896 54.3038 38.8014 54.2435 39.3575 54.0132C39.9135 53.7829 40.3888 53.3928 40.7231 52.8924C41.0575 52.392 41.236 51.8037 41.236 51.2018C41.235 50.395 40.9142 49.6216 40.3437 49.0511C39.7732 48.4806 38.9997 48.1597 38.193 48.1588ZM38.193 52.6572C37.9051 52.6572 37.6237 52.5718 37.3844 52.4119C37.1451 52.252 36.9585 52.0247 36.8484 51.7587C36.7382 51.4928 36.7094 51.2002 36.7656 50.9179C36.8217 50.6356 36.9603 50.3763 37.1639 50.1727C37.3674 49.9692 37.6267 49.8306 37.909 49.7744C38.1913 49.7183 38.484 49.7471 38.7499 49.8572C39.0158 49.9674 39.2431 50.1539 39.403 50.3933C39.563 50.6326 39.6483 50.914 39.6483 51.2018C39.6479 51.5877 39.4944 51.9576 39.2215 52.2304C38.9487 52.5032 38.5788 52.6567 38.193 52.6572Z" fill="#0635C9"/>
<path d="M45.8666 48.1588C45.2648 48.1588 44.6764 48.3373 44.176 48.6716C43.6756 49.006 43.2856 49.4813 43.0552 50.0373C42.8249 50.5933 42.7647 51.2052 42.8821 51.7955C42.9995 52.3858 43.2893 52.928 43.7149 53.3535C44.1405 53.7791 44.6827 54.0689 45.2729 54.1863C45.8632 54.3038 46.4751 54.2435 47.0311 54.0132C47.5871 53.7829 48.0624 53.3928 48.3968 52.8924C48.7311 52.392 48.9096 51.8037 48.9096 51.2018C48.9087 50.395 48.5878 49.6216 48.0173 49.0511C47.4468 48.4806 46.6734 48.1597 45.8666 48.1588ZM45.8666 52.6572C45.5788 52.6572 45.2974 52.5718 45.0581 52.4119C44.8187 52.252 44.6322 52.0247 44.522 51.7587C44.4119 51.4928 44.3831 51.2002 44.4392 50.9179C44.4954 50.6356 44.634 50.3763 44.8375 50.1727C45.0411 49.9692 45.3004 49.8306 45.5827 49.7744C45.865 49.7183 46.1576 49.7471 46.4235 49.8572C46.6895 49.9674 46.9168 50.1539 47.0767 50.3933C47.2366 50.6326 47.322 50.914 47.322 51.2018C47.3215 51.5877 47.168 51.9576 46.8952 52.2304C46.6224 52.5032 46.2524 52.6567 45.8666 52.6572Z" fill="#0635C9"/>
<path d="M9.87985 48.4233C9.66932 48.4233 9.46741 48.507 9.31854 48.6558C9.16966 48.8047 9.08603 49.0066 9.08603 49.2172V53.1863C9.08603 53.3968 9.16966 53.5987 9.31854 53.7476C9.46741 53.8965 9.66932 53.9801 9.87985 53.9801C10.0904 53.9801 10.2923 53.8965 10.4412 53.7476C10.59 53.5987 10.6737 53.3968 10.6737 53.1863V49.2172C10.6737 49.0066 10.59 48.8047 10.4412 48.6558C10.2923 48.507 10.0904 48.4233 9.87985 48.4233Z" fill="#0635C9"/>
<path d="M13.3198 48.4233C13.1092 48.4233 12.9073 48.507 12.7584 48.6558C12.6096 48.8047 12.5259 49.0066 12.5259 49.2172V53.1863C12.5259 53.3968 12.6096 53.5987 12.7584 53.7476C12.9073 53.8965 13.1092 53.9801 13.3198 53.9801C13.5303 53.9801 13.7322 53.8965 13.8811 53.7476C14.03 53.5987 14.1136 53.3968 14.1136 53.1863V49.2172C14.1136 49.0066 14.03 48.8047 13.8811 48.6558C13.7322 48.507 13.5303 48.4233 13.3198 48.4233Z" fill="#0635C9"/>
<path d="M16.892 48.4233C16.6814 48.4233 16.4795 48.507 16.3307 48.6558C16.1818 48.8047 16.0981 49.0066 16.0981 49.2172V53.1863C16.0981 53.3968 16.1818 53.5987 16.3307 53.7476C16.4795 53.8965 16.6814 53.9801 16.892 53.9801C17.1025 53.9801 17.3044 53.8965 17.4533 53.7476C17.6022 53.5987 17.6858 53.3968 17.6858 53.1863V49.2172C17.6858 49.0066 17.6022 48.8047 17.4533 48.6558C17.3044 48.507 17.1025 48.4233 16.892 48.4233Z" fill="#0635C9"/>
<path d="M20.3319 48.4233C20.1213 48.4233 19.9194 48.507 19.7706 48.6558C19.6217 48.8047 19.5381 49.0066 19.5381 49.2172V53.1863C19.5381 53.3968 19.6217 53.5987 19.7706 53.7476C19.9194 53.8965 20.1213 53.9801 20.3319 53.9801C20.5424 53.9801 20.7443 53.8965 20.8932 53.7476C21.0421 53.5987 21.1257 53.3968 21.1257 53.1863V49.2172C21.1257 49.0066 21.0421 48.8047 20.8932 48.6558C20.7443 48.507 20.5424 48.4233 20.3319 48.4233Z" fill="#0635C9"/>
<path d="M23.9041 48.4233C23.6936 48.4233 23.4917 48.507 23.3428 48.6558C23.1939 48.8047 23.1103 49.0066 23.1103 49.2172V53.1863C23.1103 53.3968 23.1939 53.5987 23.3428 53.7476C23.4917 53.8965 23.6936 53.9801 23.9041 53.9801C24.1147 53.9801 24.3166 53.8965 24.4654 53.7476C24.6143 53.5987 24.6979 53.3968 24.6979 53.1863V49.2172C24.6979 49.0066 24.6143 48.8047 24.4654 48.6558C24.3166 48.507 24.1147 48.4233 23.9041 48.4233Z" fill="#0635C9"/>
<path d="M51.2911 39.2943C51.2911 39.5862 51.1199 39.8897 50.828 39.8897H46.2835C46.1745 39.4928 45.8814 39.3605 45.5359 39.3605H12.4598C12.1142 39.3605 11.8211 39.4928 11.7121 39.8897H7.16761C7.01386 39.8773 6.86954 39.8106 6.76047 39.7015C6.6514 39.5924 6.58468 39.4481 6.57224 39.2943V26.0639C6.57224 25.7721 6.87575 25.6009 7.16761 25.6009H11.773C11.9103 25.7332 12.1662 25.9978 12.4598 25.9978H40.0452V24.4101H13.1875V22.4256H36.0761V20.8379H12.4598C12.1143 20.8379 11.8211 20.9702 11.7121 21.3671H7.16761C7.01386 21.3547 6.86954 21.288 6.76047 21.1789C6.6514 21.0698 6.58468 20.9255 6.57224 20.7717V7.54132C6.57224 7.24945 6.87575 7.07825 7.16761 7.07825H36.309C36.5195 7.07825 36.7214 6.99462 36.8703 6.84575C37.0191 6.69687 37.1028 6.49496 37.1028 6.28443C37.1028 6.07389 37.0191 5.87198 36.8703 5.72311C36.7214 5.57424 36.5195 5.4906 36.309 5.4906H7.16761C6.00042 5.4906 4.98459 6.37413 4.98459 7.54132V20.7717C4.99762 21.3466 5.2318 21.8943 5.6384 22.301C6.04501 22.7076 6.59273 22.9417 7.16761 22.9548H11.5998V24.0132H7.16761C6.00042 24.0132 4.98459 24.8967 4.98459 26.0639V39.2943C4.99762 39.8692 5.2318 40.417 5.6384 40.8236C6.04501 41.2302 6.59273 41.4643 7.16761 41.4774H11.5998V42.5358H7.16761C6.00042 42.5358 4.98459 43.4193 4.98459 44.5865V57.8169C4.99762 58.3918 5.2318 58.9396 5.6384 59.3462C6.04501 59.7528 6.59273 59.9869 7.16761 60H50.828C51.9952 60 52.8787 58.9841 52.8787 57.8169V44.5865C52.8846 44.3156 52.8355 44.0463 52.7345 43.7949C52.6335 43.5435 52.4827 43.3151 52.2911 43.1235C52.0995 42.9319 51.8711 42.781 51.6197 42.68C51.3682 42.579 51.0989 42.53 50.828 42.5358H46.2635V41.4774H50.828C51.9952 41.4774 52.8787 40.4615 52.8787 39.2943V26.2624H51.2911V39.2943ZM44.6759 42.9327H13.1875V40.9482H44.6759V42.9327ZM51.2911 44.5865V57.8169C51.2911 58.1088 51.1199 58.4123 50.828 58.4123H7.16761C7.01386 58.3999 6.86954 58.3332 6.76047 58.2241C6.6514 58.115 6.58468 57.9707 6.57224 57.8169V44.5865C6.57224 44.2947 6.87575 44.1235 7.16761 44.1235H11.773C11.9103 44.2558 12.1661 44.5204 12.4598 44.5204H45.5359C45.8296 44.5204 46.0853 44.2558 46.2227 44.1235H50.828C50.8904 44.1173 50.9533 44.125 51.0123 44.1461C51.0713 44.1672 51.1249 44.2011 51.1692 44.2454C51.2135 44.2897 51.2474 44.3433 51.2685 44.4023C51.2895 44.4612 51.2973 44.5242 51.2911 44.5865Z" fill="#0635C9"/>
<path d="M35.15 32.6791C35.15 33.281 35.3284 33.8693 35.6628 34.3697C35.9972 34.8701 36.4724 35.2601 37.0285 35.4905C37.5845 35.7208 38.1963 35.781 38.7866 35.6636C39.3769 35.5462 39.9191 35.2564 40.3447 34.8308C40.7703 34.4053 41.0601 33.863 41.1775 33.2728C41.2949 32.6825 41.2346 32.0706 41.0043 31.5146C40.774 30.9586 40.384 30.4833 39.8836 30.1489C39.3831 29.8146 38.7948 29.6361 38.193 29.6361C37.3862 29.637 36.6127 29.9579 36.0422 30.5284C35.4718 31.0989 35.1509 31.8723 35.15 32.6791ZM39.6483 32.6791C39.6483 32.9669 39.563 33.2483 39.403 33.4876C39.2431 33.727 39.0158 33.9135 38.7499 34.0237C38.484 34.1338 38.1913 34.1626 37.909 34.1065C37.6267 34.0503 37.3674 33.9117 37.1639 33.7082C36.9603 33.5047 36.8217 33.2453 36.7656 32.963C36.7094 32.6807 36.7382 32.3881 36.8484 32.1222C36.9585 31.8562 37.1451 31.6289 37.3844 31.469C37.6237 31.3091 37.9051 31.2238 38.193 31.2238C38.5788 31.2242 38.9487 31.3777 39.2215 31.6505C39.4944 31.9234 39.6478 32.2933 39.6483 32.6791Z" fill="#0635C9"/>
<path d="M45.8666 35.7221C46.4685 35.7221 47.0568 35.5436 47.5572 35.2093C48.0576 34.8749 48.4476 34.3997 48.678 33.8436C48.9083 33.2876 48.9685 32.6757 48.8511 32.0854C48.7337 31.4952 48.4439 30.953 48.0183 30.5274C47.5928 30.1018 47.0505 29.812 46.4603 29.6946C45.87 29.5772 45.2581 29.6374 44.7021 29.8677C44.1461 30.0981 43.6708 30.4881 43.3364 30.9885C43.0021 31.4889 42.8236 32.0773 42.8236 32.6791C42.8245 33.4859 43.1454 34.2594 43.7159 34.8298C44.2864 35.4003 45.0598 35.7212 45.8666 35.7221ZM45.8666 31.2238C46.1544 31.2238 46.4358 31.3091 46.6751 31.469C46.9145 31.6289 47.101 31.8562 47.2112 32.1222C47.3213 32.3881 47.3501 32.6807 47.294 32.963C47.2378 33.2453 47.0992 33.5047 46.8957 33.7082C46.6922 33.9117 46.4328 34.0503 46.1505 34.1065C45.8682 34.1627 45.5756 34.1338 45.3097 34.0237C45.0437 33.9135 44.8164 33.727 44.6565 33.4877C44.4966 33.2483 44.4113 32.967 44.4113 32.6791C44.4117 32.2933 44.5652 31.9234 44.838 31.6505C45.1109 31.3777 45.4808 31.2242 45.8666 31.2238Z" fill="#0635C9"/>
<path d="M9.08603 30.6946V34.6637C9.08603 34.8742 9.16966 35.0762 9.31854 35.225C9.46741 35.3739 9.66932 35.4575 9.87985 35.4575C10.0904 35.4575 10.2923 35.3739 10.4412 35.225C10.59 35.0762 10.6737 34.8742 10.6737 34.6637V30.6946C10.6737 30.484 10.59 30.2821 10.4412 30.1333C10.2923 29.9844 10.0904 29.9008 9.87985 29.9008C9.66932 29.9008 9.46741 29.9844 9.31854 30.1333C9.16966 30.2821 9.08603 30.484 9.08603 30.6946Z" fill="#0635C9"/>
<path d="M12.5259 30.6946V34.6637C12.5259 34.8742 12.6096 35.0762 12.7584 35.225C12.9073 35.3739 13.1092 35.4575 13.3198 35.4575C13.5303 35.4575 13.7322 35.3739 13.8811 35.225C14.03 35.0762 14.1136 34.8742 14.1136 34.6637V30.6946C14.1136 30.484 14.03 30.2821 13.8811 30.1333C13.7322 29.9844 13.5303 29.9008 13.3198 29.9008C13.1092 29.9008 12.9073 29.9844 12.7584 30.1333C12.6096 30.2821 12.5259 30.484 12.5259 30.6946Z" fill="#0635C9"/>
<path d="M16.0981 30.6946V34.6637C16.0981 34.8742 16.1818 35.0762 16.3307 35.225C16.4795 35.3739 16.6814 35.4575 16.892 35.4575C17.1025 35.4575 17.3044 35.3739 17.4533 35.225C17.6022 35.0762 17.6858 34.8742 17.6858 34.6637V30.6946C17.6858 30.484 17.6022 30.2821 17.4533 30.1333C17.3044 29.9844 17.1025 29.9008 16.892 29.9008C16.6814 29.9008 16.4795 29.9844 16.3307 30.1333C16.1818 30.2821 16.0981 30.484 16.0981 30.6946Z" fill="#0635C9"/>
<path d="M19.5381 30.6946V34.6637C19.5381 34.8742 19.6217 35.0762 19.7706 35.225C19.9194 35.3739 20.1213 35.4575 20.3319 35.4575C20.5424 35.4575 20.7443 35.3739 20.8932 35.225C21.0421 35.0762 21.1257 34.8742 21.1257 34.6637V30.6946C21.1257 30.484 21.0421 30.2821 20.8932 30.1333C20.7443 29.9844 20.5424 29.9008 20.3319 29.9008C20.1213 29.9008 19.9194 29.9844 19.7706 30.1333C19.6217 30.2821 19.5381 30.484 19.5381 30.6946Z" fill="#0635C9"/>
<path d="M23.1103 30.6946V34.6637C23.1103 34.8742 23.1939 35.0762 23.3428 35.225C23.4917 35.3739 23.6936 35.4575 23.9041 35.4575C24.1147 35.4575 24.3166 35.3739 24.4654 35.225C24.6143 35.0762 24.6979 34.8742 24.6979 34.6637V30.6946C24.6979 30.484 24.6143 30.2821 24.4654 30.1333C24.3166 29.9844 24.1147 29.9008 23.9041 29.9008C23.6936 29.9008 23.4917 29.9844 23.3428 30.1333C23.1939 30.2821 23.1103 30.484 23.1103 30.6946Z" fill="#0635C9"/>
<path d="M9.08603 12.172V16.1411C9.08603 16.3517 9.16966 16.5536 9.31854 16.7024C9.46741 16.8513 9.66932 16.935 9.87985 16.935C10.0904 16.935 10.2923 16.8513 10.4412 16.7024C10.59 16.5536 10.6737 16.3517 10.6737 16.1411V12.172C10.6737 11.9615 10.59 11.7596 10.4412 11.6107C10.2923 11.4618 10.0904 11.3782 9.87985 11.3782C9.66932 11.3782 9.46741 11.4618 9.31854 11.6107C9.16966 11.7596 9.08603 11.9615 9.08603 12.172Z" fill="#0635C9"/>
<path d="M12.5259 12.172V16.1411C12.5259 16.3517 12.6096 16.5536 12.7584 16.7024C12.9073 16.8513 13.1092 16.935 13.3198 16.935C13.5303 16.935 13.7322 16.8513 13.8811 16.7024C14.03 16.5536 14.1136 16.3517 14.1136 16.1411V12.172C14.1136 11.9615 14.03 11.7596 13.8811 11.6107C13.7322 11.4618 13.5303 11.3782 13.3198 11.3782C13.1092 11.3782 12.9073 11.4618 12.7584 11.6107C12.6096 11.7596 12.5259 11.9615 12.5259 12.172Z" fill="#0635C9"/>
<path d="M16.0981 12.172V16.1411C16.0981 16.3517 16.1818 16.5536 16.3307 16.7024C16.4795 16.8513 16.6814 16.935 16.892 16.935C17.1025 16.935 17.3044 16.8513 17.4533 16.7024C17.6022 16.5536 17.6858 16.3517 17.6858 16.1411V12.172C17.6858 11.9615 17.6022 11.7596 17.4533 11.6107C17.3044 11.4618 17.1025 11.3782 16.892 11.3782C16.6814 11.3782 16.4795 11.4618 16.3307 11.6107C16.1818 11.7596 16.0981 11.9615 16.0981 12.172Z" fill="#0635C9"/>
<path d="M19.5381 12.172V16.1411C19.5381 16.3517 19.6217 16.5536 19.7706 16.7024C19.9194 16.8513 20.1213 16.935 20.3319 16.935C20.5424 16.935 20.7443 16.8513 20.8932 16.7024C21.0421 16.5536 21.1257 16.3517 21.1257 16.1411V12.172C21.1257 11.9615 21.0421 11.7596 20.8932 11.6107C20.7443 11.4618 20.5424 11.3782 20.3319 11.3782C20.1213 11.3782 19.9194 11.4618 19.7706 11.6107C19.6217 11.7596 19.5381 11.9615 19.5381 12.172Z" fill="#0635C9"/>
<path d="M23.1103 12.172V16.1411C23.1103 16.3517 23.1939 16.5536 23.3428 16.7024C23.4917 16.8513 23.6936 16.935 23.9041 16.935C24.1147 16.935 24.3166 16.8513 24.4654 16.7024C24.6143 16.5536 24.6979 16.3517 24.6979 16.1411V12.172C24.6979 11.9615 24.6143 11.7596 24.4654 11.6107C24.3166 11.4618 24.1147 11.3782 23.9041 11.3782C23.6936 11.3782 23.4917 11.4618 23.3428 11.6107C23.1939 11.7596 23.1103 11.9615 23.1103 12.172Z" fill="#0635C9"/>
<path d="M46.9912 28.0485C49.7649 28.0485 52.4764 27.226 54.7827 25.685C57.0889 24.144 58.8865 21.9537 59.9479 19.3911C61.0094 16.8285 61.2871 14.0087 60.746 11.2883C60.2048 8.56783 58.8692 6.06894 56.9078 4.10762C54.9465 2.14629 52.4476 0.810607 49.7272 0.269478C47.0068 -0.271651 44.1869 0.00607672 41.6243 1.06754C39.0618 2.129 36.8715 3.92653 35.3305 6.2328C33.7895 8.53908 32.9669 11.2505 32.9669 14.0243C32.9712 17.7424 34.4501 21.3071 37.0792 23.9363C39.7083 26.5654 43.273 28.0443 46.9912 28.0485ZM46.9912 1.58766C49.4509 1.58766 51.8554 2.31705 53.9006 3.6836C55.9458 5.05016 57.5398 6.99249 58.4811 9.26498C59.4224 11.5375 59.6687 14.0381 59.1888 16.4505C58.709 18.863 57.5245 21.079 55.7852 22.8183C54.0459 24.5576 51.8299 25.742 49.4175 26.2219C47.005 26.7018 44.5044 26.4555 42.2319 25.5142C39.9594 24.5729 38.0171 22.9789 36.6505 20.9337C35.284 18.8885 34.5546 16.484 34.5546 14.0243C34.5583 10.727 35.8698 7.56587 38.2013 5.23435C40.5328 2.90284 43.6939 1.59137 46.9912 1.58766Z" fill="#2ACFA1"/>
<path d="M43.3347 13.4462L46.1312 10.8127V19.0589C46.1312 19.2695 46.2149 19.4714 46.3637 19.6203C46.5126 19.7691 46.7145 19.8528 46.9251 19.8528C47.1356 19.8528 47.3375 19.7691 47.4864 19.6203C47.6353 19.4714 47.7189 19.2695 47.7189 19.0589V10.8127L50.5816 13.4462C50.7346 13.5836 50.9331 13.6594 51.1387 13.6589C51.249 13.6591 51.3582 13.6368 51.4596 13.5933C51.561 13.5498 51.6524 13.4861 51.7282 13.406C51.8722 13.2524 51.9493 13.0479 51.9425 12.8375C51.9357 12.6271 51.8457 12.428 51.6921 12.284L47.53 8.40844C47.3833 8.27171 47.1902 8.19568 46.9896 8.19568C46.7891 8.19568 46.596 8.27171 46.4493 8.40844L42.2857 12.284C42.1295 12.4254 42.0358 12.6229 42.0252 12.8333C42.0146 13.0437 42.0879 13.2496 42.2291 13.406C42.2984 13.4822 42.3823 13.5437 42.4758 13.5871C42.5693 13.6304 42.6705 13.6547 42.7734 13.6584C42.8764 13.6622 42.9791 13.6453 43.0755 13.6089C43.1719 13.5724 43.26 13.5171 43.3347 13.4462Z" fill="#2ACFA1"/>
</svg>
