<svg width="66" height="60" viewBox="0 0 66 60" fill="none" xmlns="http://www.w3.org/2000/svg">
<path d="M6.50586 22.4688H10.5405V59.0495H6.50586V22.4688Z" fill="#D4E1F4"/>
<path d="M51.1702 36.0701H55.4453V37.6839H51.1702V36.0701Z" fill="#0635C9"/>
<path d="M51.1702 40.1045H55.4453V41.7183H51.1702V40.1045Z" fill="#0635C9"/>
<path d="M51.1702 44.1392H55.4453V45.753H51.1702V44.1392Z" fill="#0635C9"/>
<path d="M10.8372 25.7263H12.4511V27.7138H10.8372V25.7263Z" fill="#0635C9"/>
<path d="M10.8372 29.304H12.4511V47.4837H10.8372V29.304Z" fill="#0635C9"/>
<path d="M21.1214 1.61386H45.1518V22.5927H46.7657V0.806929C46.7657 0.592918 46.6807 0.387672 46.5293 0.236344C46.378 0.0850154 46.1728 0 45.9588 0H20.3144C20.1004 0 19.8952 0.0850154 19.7439 0.236344C19.5925 0.387672 19.5075 0.592918 19.5075 0.806929V22.5927H21.1214V1.61386Z" fill="#2ACFA1"/>
<path d="M42.0556 22.5928V10.8004C42.0557 10.5929 41.9757 10.3934 41.8325 10.2433C41.6893 10.0932 41.4937 10.004 41.2865 9.99431C39.2841 9.90017 37.963 8.15182 37.9209 5.54006C37.9174 5.32839 37.8308 5.12658 37.6799 4.97815C37.5289 4.82972 37.3257 4.74655 37.114 4.74658H29.1592C28.9475 4.74655 28.7442 4.82972 28.5933 4.97815C28.4423 5.12658 28.3558 5.32839 28.3522 5.54006C28.31 8.15424 26.9893 9.90272 24.9875 9.99431C24.7801 10.0038 24.5843 10.0929 24.4409 10.243C24.2975 10.3932 24.2175 10.5928 24.2175 10.8004V22.5928H25.8314V11.5129C28.0744 11.0617 29.6292 9.10736 29.9183 6.36004H36.3548C36.6442 9.10507 38.1988 11.0595 40.4418 11.5123V22.5928H42.0556Z" fill="#2ACFA1"/>
<path d="M33.1367 17.1948C31.6876 17.1964 30.2983 17.7728 29.2736 18.7975C28.2489 19.8221 27.6726 21.2114 27.671 22.6606H29.2848C29.2848 21.639 29.6906 20.6592 30.413 19.9369C31.1354 19.2145 32.1151 18.8087 33.1367 18.8087C34.1583 18.8087 35.138 19.2145 35.8604 19.9369C36.5827 20.6592 36.9886 21.639 36.9886 22.6606H38.6024C38.6008 21.2114 38.0245 19.8221 36.9998 18.7975C35.9751 17.7728 34.5858 17.1964 33.1367 17.1948Z" fill="#2ACFA1"/>
<path d="M6.57231 60.0001H59.4278C59.6418 60.0001 59.847 59.915 59.9983 59.7637C60.1497 59.6124 60.2347 59.4071 60.2347 59.1931V22.6301C60.2347 22.4161 60.1497 22.2109 59.9983 22.0595C59.847 21.9082 59.6418 21.8232 59.4278 21.8232H53.868V9.17134C53.868 9.0466 53.8391 8.92356 53.7835 8.81188C53.7279 8.7002 53.6472 8.60294 53.5477 8.52771C53.4482 8.45249 53.3326 8.40137 53.21 8.37835C53.0874 8.35534 52.9611 8.36106 52.8411 8.39508L46.7178 10.0958V11.8442L52.2542 10.2386V21.8232H11.8648L19.5512 19.51V17.7616L6.33951 21.8025L6.35484 21.8534C6.18534 21.9009 6.036 22.0024 5.92958 22.1426C5.82316 22.2828 5.7655 22.454 5.76538 22.63V59.1931C5.76538 59.4071 5.8504 59.6124 6.00172 59.7637C6.15305 59.915 6.3583 60.0001 6.57231 60.0001ZM58.6208 48.3355H47.8643V33.488H58.6208V48.3355ZM58.6208 31.8741H47.0574C46.8434 31.8741 46.6381 31.9592 46.4868 32.1105C46.3355 32.2618 46.2505 32.4671 46.2505 32.6811V49.1424C46.2505 49.3564 46.3355 49.5617 46.4868 49.713C46.6381 49.8643 46.8434 49.9494 47.0574 49.9494H58.6208V58.3862H7.37924V23.437H58.6208V31.8741Z" fill="#0635C9"/>
</svg>
