<svg width="52" height="60" viewBox="0 0 52 60" fill="none" xmlns="http://www.w3.org/2000/svg">
<path d="M1.40369 46.457V59.2829H4.98934V46.457C4.98928 45.4628 5.18505 44.4783 5.56549 43.5598C5.94592 42.6413 6.50356 41.8067 7.20656 41.1037C7.90955 40.4007 8.74415 39.8431 9.66267 39.4626C10.5812 39.0822 11.5657 38.8864 12.5599 38.8865H8.9742C7.98001 38.8864 6.99554 39.0822 6.07702 39.4626C5.15849 39.8431 4.3239 40.4007 3.6209 41.1037C2.9179 41.8067 2.36026 42.6413 1.97983 43.5598C1.5994 44.4783 1.40362 45.4628 1.40369 46.457Z" fill="#D4E1F4"/>
<path d="M22.9152 29.8531C22.6841 29.6594 22.4626 29.4563 22.2506 29.2435C22.0474 29.0415 21.8538 28.83 21.6686 28.6112C20.0793 26.7399 19.2085 24.3636 19.2124 21.9085V11.0905C19.2127 8.65026 20.0731 6.28818 21.6424 4.41942C23.2116 2.55067 25.3894 1.29482 27.7929 0.872603C26.3017 0.61213 24.7717 0.680943 23.3099 1.07422C21.8482 1.46749 20.4901 2.17571 19.331 3.14923C18.1719 4.12275 17.2397 5.33801 16.5998 6.70983C15.9599 8.08164 15.6278 9.57681 15.6267 11.0905V21.9085C15.6229 24.3636 16.4936 26.7399 18.0829 28.6112C18.2682 28.83 18.4618 29.0415 18.665 29.2435C18.8777 29.4563 19.0992 29.6594 19.3295 29.8531C21.1963 31.4253 23.5594 32.2857 26 32.2818C26.601 32.2817 27.2008 32.2297 27.7929 32.1264C25.9946 31.813 24.3116 31.0286 22.9152 29.8531Z" fill="#D4E1F4"/>
<path d="M43.0257 38.1688H39.0784C37.5827 38.167 36.1488 37.5721 35.0912 36.5145C34.0336 35.4569 33.4387 34.023 33.437 32.5273V29.9122C33.437 29.722 33.3614 29.5396 33.2269 29.4051C33.0924 29.2706 32.91 29.1951 32.7198 29.1951C32.5296 29.1951 32.3472 29.2706 32.2127 29.4051C32.0783 29.5396 32.0027 29.722 32.0027 29.9122V32.5273C32.0014 33.91 32.4077 35.2623 33.1708 36.4153C31.162 38.1017 28.6231 39.0262 26.0002 39.0262C23.3774 39.0262 20.8385 38.1017 18.8297 36.4153C19.5927 35.2623 19.999 33.91 19.9977 32.5275V29.9123C19.9977 29.7221 19.9221 29.5397 19.7876 29.4052C19.6532 29.2707 19.4707 29.1952 19.2806 29.1952C19.0904 29.1952 18.9079 29.2707 18.7735 29.4052C18.639 29.5397 18.5634 29.7221 18.5634 29.9123V32.5275C18.5617 34.0231 17.9668 35.457 16.9092 36.5146C15.8516 37.5722 14.4177 38.1671 12.922 38.1689H8.97442C6.77719 38.1714 4.67065 39.0453 3.11698 40.599C1.5633 42.1527 0.689357 44.2592 0.68689 46.4564V59.2828C0.68689 59.473 0.762444 59.6554 0.896932 59.7899C1.03142 59.9244 1.21383 59.9999 1.40402 59.9999H50.5961C50.7863 59.9999 50.9687 59.9244 51.1032 59.7899C51.2377 59.6554 51.3132 59.473 51.3132 59.2828V46.4563C51.3108 44.2591 50.4368 42.1525 48.8832 40.5989C47.3295 39.0452 45.223 38.1712 43.0257 38.1688ZM17.9236 37.5273C20.1853 39.4287 23.0453 40.4711 26 40.4711C28.9547 40.4711 31.8147 39.4287 34.0764 37.5273C34.4547 37.9048 34.8741 38.2387 35.327 38.5226C32.713 40.7138 29.411 41.9147 26.0001 41.9147C22.5892 41.9147 19.2872 40.7138 16.6732 38.5226C17.126 38.2387 17.5454 37.9049 17.9236 37.5273ZM49.879 58.5657H2.12115V46.4563C2.12308 44.6393 2.84574 42.8973 4.13056 41.6124C5.41538 40.3276 7.15741 39.605 8.97442 39.603H12.9217C13.7219 39.6033 14.5162 39.4672 15.2706 39.2006C18.2065 41.87 22.032 43.3491 26.0001 43.3491C29.9681 43.3491 33.7936 41.87 36.7295 39.2006C37.4839 39.4672 38.2783 39.6033 39.0784 39.603H43.0257C44.8427 39.605 46.5848 40.3276 47.8696 41.6124C49.1544 42.8973 49.8771 44.6393 49.879 46.4563V58.5657Z" fill="#0635C9"/>
<path d="M43.5598 46.1177L39.273 44.0141C39.1748 43.9659 39.0669 43.9409 38.9575 43.9409C38.8481 43.9409 38.7402 43.9659 38.642 44.0141L34.3546 46.1113C34.234 46.1703 34.1324 46.2619 34.0614 46.3758C33.9903 46.4897 33.9526 46.6212 33.9526 46.7554V50.7684C33.9655 51.3293 34.0989 51.881 34.344 52.3857C34.6409 53.052 35.1064 53.6293 35.6945 54.0607L38.5534 56.0077C38.6724 56.0888 38.8131 56.1322 38.9572 56.1322C39.1012 56.1322 39.242 56.0888 39.361 56.0077L42.2185 54.0607C43.212 53.3841 43.961 51.9691 43.961 50.7684V46.7614C43.961 46.6273 43.9234 46.4959 43.8525 46.3821C43.7816 46.2683 43.6802 46.1767 43.5598 46.1177ZM42.5268 50.7682C42.5268 51.4854 42.0055 52.4705 41.411 52.8753L38.9571 54.5472L36.503 52.8752C36.1289 52.5892 35.8338 52.2127 35.6453 51.7812C35.4893 51.4654 35.4015 51.1202 35.3875 50.7682V47.2029L38.9562 45.4566L42.5263 47.2084L42.5268 50.7682Z" fill="#0635C9"/>
<path d="M37.6442 49.3982C37.5078 49.2666 37.3248 49.1943 37.1353 49.1972C36.9458 49.2001 36.7652 49.2779 36.6329 49.4135C36.5005 49.5492 36.4273 49.7317 36.4291 49.9212C36.431 50.1107 36.5077 50.2918 36.6427 50.4249L37.9375 51.6878C38.0714 51.8184 38.2511 51.8915 38.4382 51.8915C38.6253 51.8915 38.805 51.8184 38.9389 51.6878L41.2718 49.4124C41.4052 49.279 41.4808 49.0984 41.482 48.9097C41.4832 48.7211 41.41 48.5395 41.2783 48.4044C41.1465 48.2693 40.9668 48.1916 40.7782 48.1881C40.5895 48.1846 40.4071 48.2556 40.2704 48.3857L38.4381 50.1726L37.6442 49.3982Z" fill="#0635C9"/>
<path d="M37.091 13.6016V11.0909C37.091 8.14942 35.9225 5.3284 33.8426 3.24845C31.7626 1.1685 28.9416 0 26.0001 0C23.0586 0 20.2376 1.1685 18.1576 3.24845C16.0777 5.3284 14.9092 8.14942 14.9092 11.0909V12.4303H14.5506C13.754 12.4299 12.9784 12.6865 12.3391 13.1619C11.6998 13.6372 11.2308 14.306 11.0017 15.0691C10.7727 15.8321 10.7957 16.6486 11.0675 17.3975C11.3393 18.1464 11.8453 18.7877 12.5104 19.2262V24C12.5098 25.4002 13.0607 26.7443 14.0438 27.7413C15.0269 28.7384 16.3631 29.3082 17.7631 29.3273C19.2631 30.9949 21.2336 32.1683 23.4145 32.6925C25.5953 33.2167 27.8839 33.067 29.9779 32.2632C32.0719 31.4594 33.8728 30.0394 35.1428 28.1906C36.4128 26.3418 37.0921 24.1513 37.091 21.9084V18.9117C37.761 18.8618 38.3874 18.5605 38.8444 18.0681C39.3015 17.5757 39.5555 16.9287 39.5555 16.2568C39.5555 15.585 39.3015 14.938 38.8444 14.4456C38.3874 13.9532 37.761 13.6518 37.091 13.6019V13.6016ZM14.5506 13.8645H14.9092V18.4064H14.5506C13.9483 18.4064 13.3707 18.1671 12.9448 17.7412C12.519 17.3154 12.2797 16.7377 12.2797 16.1355C12.2797 15.5332 12.519 14.9556 12.9448 14.5297C13.3707 14.1038 13.9483 13.8645 14.5506 13.8645ZM15.6426 27.2161C15.1193 26.8585 14.6912 26.3787 14.3954 25.8183C14.0995 25.2579 13.9448 24.6337 13.9446 24V19.7906C14.1449 19.8239 14.3476 19.8408 14.5506 19.841H14.9092V21.9087C14.9068 23.9391 15.4652 25.9308 16.5227 27.6641C16.2115 27.553 15.9157 27.4026 15.6426 27.2164V27.2161ZM26.0001 31.5657C23.7441 31.5676 21.5593 30.776 19.8282 29.3294H22.0953V29.8074C22.0953 29.9976 22.1709 30.18 22.3054 30.3145C22.4398 30.449 22.6222 30.5246 22.8124 30.5246H24.0077C24.5149 30.5246 25.0013 30.3231 25.3599 29.9645C25.7185 29.6058 25.92 29.1194 25.92 28.6122C25.92 28.105 25.7185 27.6186 25.3599 27.26C25.0013 26.9014 24.5149 26.6999 24.0077 26.6999H22.8124C22.6222 26.6999 22.4398 26.7754 22.3054 26.9099C22.1709 27.0444 22.0953 27.2268 22.0953 27.417V27.8951H18.431C17.0777 26.1932 16.3418 24.0827 16.3434 21.9084V11.0909C16.3434 8.52981 17.3608 6.0736 19.1718 4.26263C20.9828 2.45166 23.439 1.43426 26.0001 1.43426C28.5612 1.43426 31.0174 2.45166 32.8284 4.26263C34.6393 6.0736 35.6567 8.52981 35.6567 11.0909V13.1265C35.4958 12.8151 35.2524 12.5539 34.9531 12.3715C34.6538 12.189 34.3101 12.0923 33.9595 12.0919H28.6774C28.2185 12.0912 27.7749 12.2568 27.4287 12.558H24.571C24.2248 12.2568 23.7812 12.0912 23.3223 12.0919H18.2796C17.7726 12.0925 17.2865 12.2942 16.928 12.6527C16.5695 13.0112 16.3678 13.4973 16.3672 14.0043V17.327C16.3669 17.6091 16.4291 17.8878 16.5493 18.1431C16.6696 18.3984 16.8448 18.6238 17.0626 18.8033C17.2803 18.9828 17.5351 19.1118 17.8086 19.1811C18.0821 19.2504 18.3676 19.2583 18.6445 19.2042L23.0387 18.4445L23.0571 18.4412C23.4117 18.3692 23.7388 18.1985 24.0007 17.9488C24.2626 17.6991 24.4486 17.3805 24.5374 17.0297L24.6991 16.3827H27.3012L27.4629 17.0298C27.5517 17.3806 27.7377 17.6992 27.9995 17.9489C28.2614 18.1986 28.5885 18.3692 28.9431 18.4412C28.9512 18.4428 28.9595 18.4441 28.9677 18.4456L33.5981 19.2049C33.718 19.228 33.8399 19.2396 33.962 19.2397C34.3124 19.2396 34.656 19.143 34.955 18.9603C35.2539 18.7776 35.4968 18.5161 35.6567 18.2044V21.9084C35.6541 24.4687 34.6358 26.9234 32.8255 28.7339C31.0151 30.5444 28.5604 31.5628 26.0001 31.5657ZM23.5296 29.0903V28.1341H24.0077C24.1345 28.1341 24.2561 28.1845 24.3457 28.2742C24.4354 28.3638 24.4858 28.4854 24.4858 28.6122C24.4858 28.739 24.4354 28.8606 24.3457 28.9503C24.2561 29.0399 24.1345 29.0903 24.0077 29.0903H23.5296ZM34.4383 14.0043V17.327C34.4383 17.3977 34.4226 17.4676 34.3924 17.5315C34.3621 17.5954 34.318 17.6519 34.2633 17.6967C34.2086 17.7415 34.1446 17.7737 34.076 17.7908C34.0074 17.8079 33.9358 17.8096 33.8664 17.7957C33.8582 17.7941 33.8499 17.7926 33.8418 17.7912L29.2152 17.0329C29.1286 17.0135 29.049 16.9704 28.9854 16.9085C28.9218 16.8466 28.8765 16.7682 28.8548 16.6821L28.2141 14.1203C28.1965 14.0498 28.1951 13.9762 28.2102 13.9051C28.2253 13.834 28.2563 13.7673 28.3011 13.71C28.3458 13.6528 28.403 13.6064 28.4683 13.5746C28.5336 13.5427 28.6053 13.5262 28.678 13.5262H33.9603C34.087 13.5262 34.2087 13.5765 34.2983 13.6662C34.388 13.7559 34.4383 13.8775 34.4383 14.0043ZM26.8229 14.468L26.9431 14.9487H25.0583L25.1785 14.4679C25.2169 14.3124 25.2357 14.1527 25.2344 13.9925H26.7669C26.7655 14.1527 26.7841 14.3124 26.8223 14.468H26.8229ZM23.787 14.1202L23.1465 16.682C23.1246 16.7685 23.0791 16.8473 23.0149 16.9093C22.9508 16.9714 22.8707 17.0144 22.7835 17.0335L18.3925 17.7925L18.374 17.796C18.3046 17.8099 18.2331 17.8082 18.1644 17.791C18.0958 17.7739 18.0318 17.7418 17.9771 17.6969C17.9224 17.6521 17.8783 17.5957 17.8481 17.5317C17.8178 17.4678 17.8021 17.3979 17.8021 17.3272V14.0045C17.8021 13.8777 17.8525 13.7561 17.9421 13.6664C18.0318 13.5768 18.1534 13.5264 18.2802 13.5264H23.3228C23.3955 13.5264 23.4672 13.543 23.5325 13.5748C23.5978 13.6067 23.6549 13.653 23.6997 13.7103C23.7444 13.7675 23.7755 13.8342 23.7905 13.9053C23.8056 13.9764 23.8043 14.0499 23.7867 14.1204L23.787 14.1202ZM36.8932 17.4847H36.3745C36.2703 17.4847 36.1674 17.5074 36.073 17.5512C35.9785 17.5951 35.8948 17.659 35.8277 17.7386C35.8574 17.6035 35.8725 17.4656 35.8726 17.3272V14.8235C36.0064 14.9553 36.1868 15.029 36.3746 15.0288H36.8933C37.219 15.0288 37.5313 15.1582 37.7616 15.3885C37.9919 15.6188 38.1213 15.9311 38.1213 16.2568C38.1213 16.5824 37.9919 16.8948 37.7616 17.1251C37.5313 17.3554 37.219 17.4847 36.8933 17.4847H36.8932Z" fill="#2ACFA1"/>
</svg>
