<svg width="66" height="60" viewBox="0 0 66 60" fill="none" xmlns="http://www.w3.org/2000/svg">
<path d="M15.2115 31.0995H13.748C13.9048 35.2207 15.4201 39.1743 18.0578 42.3446C18.3288 42.0687 18.6074 41.802 18.8936 41.5443C16.6385 38.515 15.3547 34.8733 15.2115 31.0995Z" fill="#D4E1F4"/>
<path d="M18.0578 18.3909C15.4201 21.5612 13.9048 25.5148 13.748 29.636H15.2115C15.3547 25.8622 16.6385 22.2204 18.8936 19.1911C18.6082 18.9328 18.3296 18.666 18.0578 18.3909Z" fill="#D4E1F4"/>
<path d="M20.501 17.3005C22.6036 15.1304 25.1979 13.4984 28.0644 12.5427C28.3059 12.3409 28.5508 12.1436 28.8024 11.9554C25.0818 12.7086 21.677 14.5723 19.0375 17.3005C20.0972 18.3896 21.2878 19.3433 22.582 20.1397C22.6887 19.8836 22.8008 19.6322 22.9157 19.3828C22.0518 18.7602 21.2439 18.0634 20.501 17.3005Z" fill="#D4E1F4"/>
<path d="M20.501 43.4348C21.2429 42.673 22.0496 41.9771 22.9121 41.3551C22.7975 41.1056 22.6854 40.8539 22.5788 40.5975C21.2859 41.3936 20.0964 42.3466 19.0375 43.4348C21.6757 46.1617 25.0785 48.025 28.797 48.779C28.5445 48.5902 28.2986 48.3924 28.0561 48.1899C25.1928 47.2338 22.6015 45.6029 20.501 43.4348Z" fill="#D4E1F4"/>
<path d="M48.1349 13.651C47.2847 12.8027 46.2079 12.2176 45.0335 11.9659C43.8592 11.7141 42.6372 11.8064 41.514 12.2315C38.7158 10.8462 35.6359 10.1246 32.5136 10.1229C21.3506 10.1229 12.2689 19.2046 12.2689 30.3677C12.2689 41.5307 21.3506 50.6124 32.5136 50.6124C43.6766 50.6124 52.7584 41.5307 52.7584 30.3677C52.7618 26.6078 51.7146 22.9217 49.7347 19.7253C50.029 18.6618 50.0359 17.5392 49.7549 16.4721C49.4738 15.4051 48.9148 14.4316 48.1349 13.651ZM42.9686 39.2532C43.8521 36.6234 44.3253 33.8732 44.3714 31.0994H51.2793C51.1214 35.2444 49.5893 39.2192 46.9243 42.3978C45.7443 41.1862 44.415 40.1296 42.9686 39.2532ZM18.0578 42.3445C15.42 39.1742 13.9047 35.2206 13.7479 31.0994H16.7875C16.8633 31.7272 17.0676 32.3327 17.3875 32.8783L20.746 38.6119C20.803 38.7093 20.8816 38.7921 20.9759 38.854C21.0702 38.9158 21.1775 38.955 21.2894 38.9685C21.4014 38.982 21.5149 38.9694 21.6212 38.9317C21.7275 38.8939 21.8236 38.8321 21.9019 38.7511C21.9507 38.9036 22.0011 39.0551 22.0529 39.2055C20.5924 40.0766 19.2497 41.1316 18.0578 42.3445ZM22.0549 21.5312C21.5662 22.9642 21.2061 24.4379 20.9787 25.9348C19.9816 26.0205 19.0393 26.4278 18.2936 27.0953C17.5479 27.7628 17.0391 28.6544 16.8438 29.6359H13.7479C13.9047 25.5148 15.42 21.5611 18.0578 18.3908C19.2502 19.6044 20.5936 20.6598 22.0549 21.5312ZM38.3431 21.2131L38.7353 21.8827C36.9677 22.5022 35.1167 22.8517 33.2449 22.9193V11.7952C35.0546 12.7505 36.6668 14.0403 37.996 15.5962C37.6097 16.4942 37.4399 17.4704 37.5002 18.446C37.5605 19.4217 37.8492 20.3696 38.3431 21.2131ZM42.9084 29.6359H33.2453V24.3838C35.3776 24.3123 37.4849 23.9014 39.4879 23.1666L42.9 28.9913L42.8855 28.992C42.8956 29.2049 42.9029 29.4202 42.9084 29.6359ZM31.7819 22.9189C29.0258 22.8178 26.325 22.1163 23.868 20.8634C25.5115 16.8283 28.2411 13.6639 31.7819 11.7948V22.9189ZM31.7819 24.3835V29.6359H25.9109C25.7379 28.7675 25.3191 27.967 24.7044 27.3296C24.0896 26.6922 23.3047 26.2449 22.4431 26.0407C22.6447 24.7527 22.9506 23.4831 23.3577 22.2446C25.9798 23.5538 28.8529 24.2833 31.7819 24.3835ZM21.3774 36.7948L18.6501 32.1391C18.3688 31.6589 18.2193 31.1129 18.2167 30.5564C18.2141 29.9999 18.3584 29.4526 18.6352 28.9698C18.9119 28.487 19.3112 28.0858 19.7927 27.8068C20.2743 27.5278 20.8209 27.3808 21.3774 27.3808C21.9339 27.3808 22.4806 27.5278 22.9621 27.8068C23.4436 28.0858 23.8429 28.487 24.1196 28.9698C24.3964 29.4526 24.5407 29.9999 24.5381 30.5564C24.5355 31.1129 24.386 31.6589 24.1047 32.1391L21.3774 36.7948ZM22.9302 37.0387L25.367 32.8783C25.6869 32.3327 25.8912 31.7272 25.9672 31.0994H31.7819V36.3518C28.8523 36.4521 25.9787 37.1819 23.3563 38.4917C23.1999 38.0182 23.0579 37.5338 22.9302 37.0387ZM31.7819 37.8164V48.94C28.2465 47.075 25.5108 43.9276 23.8636 39.8742C26.3217 38.6199 29.0241 37.9176 31.7819 37.8164ZM33.2453 37.8164C36.0042 37.9215 38.7056 38.6362 41.1554 39.9093C39.5226 43.9095 36.8098 47.0615 33.2453 48.9405V37.8164ZM33.2453 36.3519V31.0994H42.9081C42.8617 33.6232 42.4428 36.1262 41.6648 38.5275C39.05 37.1986 36.1767 36.4562 33.2453 36.3522V36.3519ZM44.3728 29.6359C44.3702 29.5278 44.365 29.4209 44.3612 29.3132L49.0086 21.3795C50.3938 23.919 51.1712 26.7452 51.2799 29.6359H44.3728ZM47.0996 14.6858C47.846 15.4325 48.3239 16.4056 48.4585 17.4528C48.5931 18.5 48.3768 19.5623 47.8435 20.4735L43.725 27.5043L39.6063 20.4735C39.0214 19.4721 38.821 18.292 39.0425 17.1537C39.2641 16.0153 39.8924 14.9965 40.8102 14.2876C41.7281 13.5787 42.8726 13.2282 44.03 13.3014C45.1874 13.3747 46.2785 13.8668 47.0996 14.6858ZM39.3145 13.6511C39.1213 13.8445 38.941 14.0503 38.7747 14.2674C38.0037 13.4156 37.1521 12.6403 36.2319 11.9523C37.5034 12.2069 38.7444 12.5949 39.9344 13.1099C39.7163 13.2765 39.5094 13.4573 39.315 13.6511H39.3145ZM28.8019 11.9559C26.105 13.9736 23.9839 16.7732 22.5815 20.1402C21.2873 19.3438 20.0967 18.3901 19.0369 17.301C21.6765 14.5725 25.0814 12.7087 28.8022 11.9554L28.8019 11.9559ZM19.0374 43.4348C20.0964 42.3466 21.2859 41.3936 22.5788 40.5975C23.9835 43.977 26.1055 46.7675 28.797 48.7789C25.0784 48.025 21.6757 46.1617 19.0374 43.4348ZM36.2333 48.7783C38.9361 46.7617 41.0451 43.9787 42.4389 40.6438C43.7177 41.4446 44.8936 42.3989 45.9405 43.4854C43.3097 46.1845 39.9271 48.0288 36.2333 48.7783Z" fill="#2ACFA1"/>
<path d="M43.7249 21.2225C44.3521 21.2225 44.9651 21.0365 45.4866 20.6881C46.008 20.3397 46.4144 19.8444 46.6544 19.265C46.8944 18.6856 46.9572 18.0481 46.8349 17.433C46.7125 16.8179 46.4105 16.2529 45.9671 15.8095C45.5236 15.366 44.9586 15.064 44.3435 14.9417C43.7285 14.8193 43.0909 14.8821 42.5115 15.1221C41.9321 15.3621 41.4369 15.7685 41.0885 16.29C40.74 16.8114 40.5541 17.4245 40.5541 18.0516C40.555 18.8923 40.8894 19.6983 41.4838 20.2927C42.0783 20.8872 42.8843 21.2215 43.7249 21.2225ZM43.7249 16.3442C44.0626 16.3442 44.3927 16.4444 44.6735 16.632C44.9543 16.8196 45.1731 17.0862 45.3024 17.3982C45.4316 17.7102 45.4654 18.0535 45.3995 18.3847C45.3336 18.7159 45.171 19.0201 44.9322 19.2589C44.6935 19.4977 44.3892 19.6603 44.058 19.7262C43.7268 19.7921 43.3835 19.7583 43.0716 19.629C42.7596 19.4998 42.4929 19.281 42.3053 19.0002C42.1177 18.7194 42.0176 18.3893 42.0176 18.0516C42.0181 17.5989 42.1981 17.165 42.5182 16.8449C42.8383 16.5248 43.2723 16.3447 43.7249 16.3442Z" fill="#2ACFA1"/>
<path d="M21.3774 28.0781C20.8916 28.0781 20.4166 28.2222 20.0127 28.4921C19.6087 28.762 19.2939 29.1457 19.1079 29.5946C18.922 30.0434 18.8734 30.5373 18.9682 31.0138C19.063 31.4904 19.2969 31.928 19.6405 32.2716C19.984 32.6151 20.4217 32.8491 20.8983 32.9438C21.3748 33.0386 21.8687 32.9899 22.3175 32.804C22.7664 32.6181 23.15 32.3032 23.4199 31.8992C23.6898 31.4952 23.8339 31.0203 23.8338 30.5344C23.8331 29.8832 23.5741 29.2588 23.1135 28.7983C22.653 28.3378 22.0287 28.0788 21.3774 28.0781ZM21.3774 31.5274C21.181 31.5274 20.989 31.4692 20.8257 31.3601C20.6624 31.251 20.5352 31.0959 20.46 30.9144C20.3849 30.733 20.3652 30.5333 20.4035 30.3407C20.4418 30.1481 20.5364 29.9712 20.6753 29.8323C20.8141 29.6934 20.9911 29.5989 21.1837 29.5606C21.3763 29.5222 21.576 29.5419 21.7574 29.6171C21.9388 29.6922 22.0939 29.8195 22.203 29.9828C22.3121 30.1461 22.3704 30.3381 22.3704 30.5344C22.3701 30.7977 22.2654 31.0501 22.0792 31.2363C21.8931 31.4224 21.6407 31.5271 21.3774 31.5274Z" fill="#2ACFA1"/>
<path d="M62.0663 23.2396C62.0423 23.1466 62.0002 23.0592 61.9424 22.9824C61.8846 22.9056 61.8122 22.841 61.7294 22.7922C61.6466 22.7434 61.5551 22.7114 61.4599 22.698C61.3648 22.6845 61.2679 22.69 61.1749 22.714C61.0818 22.7381 60.9944 22.7802 60.9176 22.838C60.8409 22.8958 60.7763 22.9681 60.7274 23.0509C60.6786 23.1337 60.6466 23.2253 60.6332 23.3204C60.6198 23.4156 60.6253 23.5124 60.6493 23.6055C61.8713 28.3136 61.8416 33.2594 60.5632 37.9525C59.2848 42.6457 56.802 46.9232 53.3609 50.3611C48.1244 55.5976 41.0222 58.5394 33.6167 58.5394C26.2112 58.5394 19.109 55.5976 13.8725 50.3611C13.6915 50.18 13.5121 49.9952 13.3351 49.8082L16.5182 46.6251C16.6622 46.481 16.7596 46.2971 16.7979 46.0971C16.8363 45.8971 16.8137 45.6902 16.7332 45.5031C16.6545 45.3205 16.524 45.165 16.3579 45.0557C16.1918 44.9464 15.9973 44.8882 15.7985 44.8882H7.89306C7.69899 44.8882 7.51287 44.9653 7.37564 45.1025C7.23841 45.2397 7.16132 45.4259 7.16132 45.6199V53.5105C7.15877 53.6743 7.195 53.8364 7.26707 53.9835C7.33914 54.1306 7.44499 54.2585 7.57597 54.3569C7.77096 54.4992 8.01039 54.5671 8.25106 54.5484C8.49172 54.5297 8.71779 54.4256 8.88847 54.2549L12.2996 50.8438C12.4768 51.0304 12.6562 51.2145 12.8377 51.396C16.493 55.0496 21.0471 57.6748 26.0407 59.0069C31.0343 60.3389 36.2908 60.3308 41.2803 58.9834C46.2697 57.6359 50.8157 54.9967 54.4598 51.3318C58.1039 47.667 60.7173 43.1061 62.0364 38.1091C63.3132 33.2361 63.3235 28.1177 62.0663 23.2396ZM8.6248 52.4491V46.3513H14.7226L8.6248 52.4491Z" fill="#0635C9"/>
<path d="M54.7394 2.42595C54.5792 2.40376 54.4161 2.41952 54.2631 2.47197C54.1101 2.52443 53.9716 2.6121 53.8588 2.72792L50.4118 6.17501C45.7244 2.53593 40.0452 0.401019 34.1214 0.0511418C28.1975 -0.298735 22.3065 1.15281 17.2234 4.21482C12.1402 7.27683 8.10303 11.8059 5.64294 17.2061C3.18285 22.6063 2.4151 28.6247 3.4407 34.4696C3.45953 34.5773 3.50228 34.6795 3.56578 34.7685C3.62929 34.8575 3.71194 34.9312 3.80767 34.9841C3.9034 35.037 4.00976 35.0677 4.11894 35.0741C4.22811 35.0804 4.33733 35.0623 4.43855 35.0208C4.59548 34.9527 4.7245 34.8331 4.80431 34.6817C4.88413 34.5304 4.90997 34.3564 4.87759 34.1884C3.91182 28.6515 4.63925 22.9521 6.96475 17.8353C9.29026 12.7185 13.1056 8.42246 17.912 5.50894C22.7183 2.59542 28.292 1.19998 33.9041 1.50509C39.5163 1.81021 44.9058 3.80166 49.368 7.21908L46.245 10.3425C46.101 10.4865 46.0036 10.6705 45.9652 10.8705C45.9269 11.0705 45.9495 11.2774 46.03 11.4645C46.1087 11.6471 46.2392 11.8026 46.4053 11.9119C46.5714 12.0212 46.7659 12.0794 46.9647 12.0794H54.8703C55.0644 12.0794 55.2505 12.0023 55.3877 11.8651C55.5249 11.7279 55.602 11.5417 55.602 11.3477V3.42758C55.602 3.18499 55.5149 2.95047 55.3566 2.76665C55.1983 2.58283 54.9793 2.46194 54.7394 2.42595ZM54.1385 10.6158H48.0407L54.1385 4.51799V10.6158Z" fill="#0635C9"/>
</svg>
