<svg width="66" height="60" viewBox="0 0 66 60" fill="none" xmlns="http://www.w3.org/2000/svg">
<path d="M51.1953 1.71381L51.1774 1.67676C42.9213 3.63269 35.5991 8.39116 30.4585 15.1412H30.4573C28.014 18.3388 26.1186 21.9199 24.8485 25.7385C24.6346 26.3802 24.439 27.0292 24.2617 27.6853L26.652 30.0756C26.8289 29.4195 27.0245 28.7705 27.2388 28.1287C28.5089 24.3102 30.4042 20.729 32.8476 17.5314H32.8488C37.8159 11.0111 44.8235 6.34185 52.7538 4.26853C52.1534 3.46904 51.6315 2.6135 51.1953 1.71381Z" fill="#D4E1F4"/>
<path d="M22.082 14.0452C22.5495 14.044 23.0125 14.1354 23.4444 14.3143C23.8762 14.4932 24.2683 14.756 24.5979 15.0874C25.4091 15.8932 26.4713 16.3976 27.6085 16.5167C28.7456 16.6359 29.8894 16.3627 30.8499 15.7424L30.0671 14.5409C29.3825 14.9827 28.5675 15.1772 27.7571 15.0922C26.9468 15.0071 26.1899 14.6476 25.612 14.0732C24.6764 13.1376 23.4077 12.6118 22.0846 12.6111C20.7615 12.6104 19.4922 13.135 18.5557 14.0696L11.4537 21.0682C11.3861 21.1349 11.3324 21.2144 11.2957 21.302C11.2591 21.3897 11.2402 21.4837 11.2402 21.5787C11.2402 21.6736 11.2591 21.7677 11.2957 21.8553C11.3324 21.9429 11.3861 22.0224 11.4537 22.0891L15.563 26.1478C16.8883 27.4504 18.6739 28.1777 20.5321 28.172C22.3904 28.1662 24.1714 27.4278 25.4885 26.117L24.4743 25.1029C23.4255 26.1466 22.0073 26.7346 20.5276 26.7392C19.0479 26.7438 17.6261 26.1646 16.5708 25.1274L12.9781 21.5795L19.566 15.0874C19.8957 14.756 20.2878 14.4932 20.7196 14.3143C21.1515 14.1354 21.6146 14.044 22.082 14.0452Z" fill="#0635C9"/>
<path d="M45.6489 30.1225L44.4472 29.3397C43.827 30.3003 43.5538 31.444 43.6729 32.5812C43.7921 33.7184 44.2964 34.7807 45.1022 35.5918C45.7689 36.2604 46.1429 37.1662 46.1422 38.1103C46.1416 39.0544 45.7662 39.9596 45.0986 40.6272L38.6101 47.2114L35.0622 43.6192C34.025 42.5639 33.4459 41.142 33.4505 39.6623C33.4551 38.1826 34.0431 36.7644 35.0869 35.7155L34.0728 34.7015C32.762 36.0186 32.0235 37.7996 32.0177 39.6579C32.012 41.5161 32.7393 43.3017 34.042 44.627L38.1005 48.7615C38.2327 48.905 38.4159 48.9909 38.6107 49.0006C38.8056 48.991 38.9889 48.9051 39.121 48.7615L46.1162 41.6505C47.051 40.7122 47.5759 39.4418 47.5759 38.1173C47.5759 36.7928 47.051 35.5223 46.1162 34.5841C45.5418 34.0049 45.1823 33.2469 45.0973 32.4356C45.0124 31.6242 45.2069 30.8082 45.6489 30.1225Z" fill="#0635C9"/>
<path d="M20.8329 45.4006C20.4527 45.4906 20.0632 45.5356 19.6724 45.5347H18.5428C18.3526 45.5347 18.1702 45.6102 18.0357 45.7447C17.9012 45.8792 17.8257 46.0616 17.8257 46.2518C17.8257 46.4419 17.9012 46.6243 18.0357 46.7588C18.1702 46.8933 18.3526 46.9688 18.5428 46.9688H19.6724C20.1755 46.9698 20.6769 46.9115 21.1663 46.7953C21.3513 46.751 21.5111 46.6351 21.6105 46.473C21.71 46.3109 21.741 46.1159 21.6967 45.9309C21.6524 45.746 21.5364 45.5862 21.3743 45.4867C21.2122 45.3873 21.0172 45.3563 20.8323 45.4006H20.8329Z" fill="#0635C9"/>
<path d="M25.9141 39.1816C25.7662 38.5186 25.5131 37.8835 25.1644 37.3005L27.6559 39.7918C27.7458 39.8816 27.8578 39.9459 27.9807 39.9782C28.1035 40.0105 28.2327 40.0096 28.3551 39.9755C28.4775 39.9415 28.5886 39.8756 28.6771 39.7845C28.7657 39.6934 28.8284 39.5804 28.859 39.4572L30.3887 33.2733L28.9966 32.929L27.7723 37.8797L22.3549 32.4624L27.4263 31.3875L27.129 29.9845L20.7647 31.3334C20.6384 31.3602 20.5216 31.4205 20.4268 31.5081C20.3319 31.5957 20.2625 31.7072 20.2258 31.831C20.189 31.9548 20.1864 32.0862 20.2182 32.2113C20.2499 32.3364 20.3148 32.4507 20.4061 32.542L22.9518 35.0876C22.3772 34.7439 21.752 34.493 21.0993 34.3441C20.8916 34.2971 20.6834 34.2605 20.4822 34.2354C20.2305 34.2034 19.9772 34.1864 19.7234 34.1846C18.8841 34.1773 18.0517 34.3379 17.2753 34.657C16.499 34.9761 15.7942 35.4473 15.2026 36.0428C14.5918 36.6435 14.1069 37.36 13.7762 38.1504C13.4456 38.9407 13.2759 39.7891 13.277 40.6458C13.2769 40.8329 13.35 41.0126 13.4806 41.1466C13.6111 41.2805 13.7889 41.3582 13.9759 41.3629L14.5167 41.3767C13.4701 42.8255 13.0305 44.6256 13.2916 46.3937C13.3241 46.5563 13.412 46.7026 13.5404 46.8075C13.6688 46.9124 13.8297 46.9694 13.9955 46.9688H15.9546C16.1448 46.9688 16.3272 46.8933 16.4616 46.7588C16.5961 46.6243 16.6717 46.4419 16.6717 46.2517C16.6717 46.0616 16.5961 45.8792 16.4616 45.7447C16.3272 45.6102 16.1448 45.5347 15.9546 45.5347H14.6483C14.628 44.5786 14.8378 42.767 16.5743 41.2347C16.6822 41.1395 16.759 41.0139 16.7946 40.8744C16.8301 40.7349 16.8228 40.5879 16.7735 40.4526C16.7243 40.3174 16.6354 40.2001 16.5185 40.1161C16.4015 40.0321 16.262 39.9853 16.1181 39.9818L14.7604 39.9476C14.9139 38.8518 15.4246 37.8372 16.2133 37.0611C16.6669 36.6046 17.2062 36.2422 17.8003 35.9946C18.3943 35.7471 19.0314 35.6192 19.6749 35.6185H19.7123C19.8265 35.6192 19.941 35.6253 20.0553 35.634C19.6174 35.8921 19.2449 36.2477 18.9667 36.6732C18.6885 37.0986 18.5121 37.5825 18.4512 38.0872L18.04 41.4096C18.0275 41.5105 18.0366 41.6128 18.0666 41.7099C18.0967 41.8069 18.147 41.8965 18.2143 41.9726C18.2816 42.0487 18.3643 42.1097 18.4569 42.1514C18.5495 42.1932 18.65 42.2148 18.7516 42.2148C18.781 42.2148 18.8104 42.213 18.8396 42.2094L22.1621 41.7981C22.6671 41.7359 23.1511 41.5584 23.5766 41.2793C24.0021 41.0003 24.3577 40.6271 24.616 40.1887C24.6263 40.3179 24.6333 40.4482 24.6335 40.5794C24.6352 41.2311 24.5077 41.8767 24.2583 42.4788C24.0089 43.0809 23.6426 43.6276 23.1806 44.0872C23.1125 44.1535 23.0583 44.2326 23.0211 44.32C22.9838 44.4073 22.9643 44.5013 22.9637 44.5962C22.963 44.6912 22.9812 44.7854 23.0173 44.8733C23.0533 44.9612 23.1065 45.041 23.1736 45.1082C23.2408 45.1753 23.3206 45.2285 23.4085 45.2646C23.4964 45.3006 23.5906 45.3189 23.6855 45.3182C23.7805 45.3176 23.8744 45.2981 23.9618 45.2608C24.0492 45.2236 24.1283 45.1694 24.1946 45.1013C24.8835 44.4129 25.406 43.5762 25.722 42.6549C26.0379 41.7337 26.1391 40.7524 26.0176 39.7861C25.9937 39.5861 25.9588 39.3828 25.9141 39.1816ZM23.5739 39.0121C23.4729 39.3704 23.2682 39.691 22.9855 39.9334C22.7029 40.1758 22.3549 40.3292 21.9854 40.3745L19.5762 40.6733L19.875 38.2648C19.9234 37.8879 20.0832 37.5341 20.3341 37.2488C20.5849 36.9634 20.9153 36.7595 21.2829 36.6633C21.6052 36.581 21.9436 36.5851 22.2639 36.6751C22.5842 36.7651 22.8751 36.9379 23.1074 37.1761C23.3397 37.4142 23.5052 37.7094 23.5872 38.0318C23.6692 38.3542 23.6648 38.6926 23.5745 39.0128L23.5739 39.0121Z" fill="#0635C9"/>
<path d="M49.6893 30.5852C49.8563 30.5853 50.018 30.527 50.1464 30.4204C50.6574 29.9973 51.1641 29.5541 51.6522 29.1033C51.7225 29.0398 51.7795 28.9629 51.8199 28.8772C51.8603 28.7914 51.8834 28.6985 51.8876 28.6039C51.8919 28.5092 51.8774 28.4146 51.8449 28.3256C51.8124 28.2365 51.7626 28.1548 51.6983 28.0852C51.634 28.0155 51.5566 27.9593 51.4705 27.9198C51.3843 27.8802 51.2912 27.8581 51.1965 27.8548C51.1018 27.8515 51.0074 27.867 50.9187 27.9003C50.83 27.9337 50.7488 27.9844 50.6798 28.0493C50.21 28.4828 49.7225 28.9089 49.2311 29.3162C49.1175 29.4103 49.0356 29.5372 48.9968 29.6796C48.9579 29.822 48.9639 29.9729 49.014 30.1117C49.064 30.2505 49.1557 30.3705 49.2765 30.4553C49.3973 30.5401 49.5413 30.5856 49.6889 30.5855L49.6893 30.5852Z" fill="#0635C9"/>
<path d="M61.5326 11.6981C61.4424 11.6708 61.3478 11.6616 61.2541 11.6709C61.1604 11.6802 61.0694 11.7079 60.9864 11.7523C60.9034 11.7968 60.83 11.8572 60.7703 11.9301C60.7106 12.0029 60.6659 12.0868 60.6386 12.1769C60.0349 14.1723 59.2566 16.1106 58.3127 17.9693C57.9689 18.6461 57.5981 19.3214 57.2106 19.9762C56.7344 20.7806 56.2198 21.5767 55.6808 22.3425C54.8258 23.5564 53.8964 24.7162 52.8978 25.815C52.7699 25.9558 52.7032 26.1416 52.7122 26.3315C52.7213 26.5215 52.8055 26.7001 52.9462 26.828C53.087 26.9559 53.2728 27.0227 53.4628 27.0136C53.6527 27.0045 53.8313 26.9204 53.9592 26.7796C54.9976 25.6366 55.964 24.4303 56.8531 23.1677C57.4137 22.3715 57.949 21.5435 58.4444 20.7065C58.8475 20.0253 59.2331 19.3229 59.591 18.6187C60.573 16.6847 61.3828 14.668 62.011 12.5919C62.066 12.4099 62.0466 12.2135 61.9568 12.0459C61.8671 11.8783 61.7145 11.7532 61.5326 11.6981Z" fill="#0635C9"/>
<path d="M5.96747 27.5686C5.833 27.4342 5.65064 27.3586 5.46049 27.3586C5.27035 27.3586 5.08799 27.4342 4.95352 27.5686L4.40375 28.1178C4.33568 28.184 4.28144 28.2631 4.2442 28.3505C4.20695 28.4379 4.18743 28.5318 4.18678 28.6268C4.18613 28.7218 4.20436 28.8159 4.24041 28.9038C4.27646 28.9917 4.3296 29.0715 4.39677 29.1387C4.46393 29.2059 4.54377 29.259 4.63164 29.2951C4.71952 29.3311 4.81369 29.3494 4.90867 29.3487C5.00366 29.3481 5.09757 29.3286 5.18496 29.2914C5.27234 29.2541 5.35146 29.1999 5.41771 29.1318L5.96687 28.5827C6.10142 28.4483 6.17707 28.2659 6.17718 28.0758C6.1773 27.8856 6.10186 27.7032 5.96747 27.5686Z" fill="#0635C9"/>
<path d="M7.52531 27.0249L9.97904 24.5712C10.0456 24.5047 10.0985 24.4256 10.1345 24.3386C10.1705 24.2516 10.1891 24.1584 10.1891 24.0642C10.1891 23.97 10.1706 23.8768 10.1345 23.7898C10.0985 23.7028 10.0457 23.6237 9.9791 23.5571C9.91252 23.4905 9.83347 23.4377 9.74647 23.4016C9.65947 23.3656 9.56622 23.3471 9.47205 23.347C9.37788 23.347 9.28463 23.3656 9.19762 23.4016C9.11062 23.4376 9.03156 23.4905 8.96497 23.5571L6.51135 26.0107C6.44387 26.077 6.39019 26.1561 6.35342 26.2434C6.31666 26.3306 6.29752 26.4242 6.29713 26.5189C6.29673 26.6135 6.31508 26.7073 6.35111 26.7949C6.38715 26.8824 6.44016 26.9619 6.50709 27.0289C6.57401 27.0958 6.65353 27.1489 6.74106 27.1849C6.82858 27.221 6.92238 27.2393 7.01704 27.239C7.1117 27.2386 7.20534 27.2195 7.29258 27.1827C7.37982 27.146 7.45891 27.0923 7.52531 27.0249Z" fill="#0635C9"/>
<path d="M5.99158 32.0221C6.08577 32.0222 6.17905 32.0037 6.26608 31.9677C6.3531 31.9316 6.43215 31.8788 6.49868 31.8121L9.3829 28.9278C9.44949 28.8612 9.5023 28.7821 9.53834 28.6951C9.57437 28.6081 9.59291 28.5148 9.59291 28.4207C9.5929 28.3265 9.57435 28.2333 9.5383 28.1463C9.50226 28.0593 9.44944 27.9802 9.38284 27.9136C9.31625 27.847 9.23719 27.7942 9.15019 27.7582C9.06319 27.7222 8.96994 27.7036 8.87576 27.7036C8.78159 27.7036 8.68835 27.7222 8.60134 27.7582C8.51434 27.7943 8.43529 27.8471 8.36871 27.9137L5.48449 30.7979C5.38418 30.8982 5.31587 31.026 5.2882 31.1651C5.26052 31.3042 5.27472 31.4484 5.329 31.5794C5.38329 31.7105 5.47521 31.8225 5.59315 31.9013C5.71109 31.9801 5.84974 32.0221 5.99158 32.0221Z" fill="#0635C9"/>
<path d="M10.2859 27.7271C10.3801 27.7272 10.4733 27.7088 10.5603 27.6727C10.6473 27.6367 10.7264 27.5838 10.7929 27.5171L11.8592 26.451C11.9267 26.3846 11.9803 26.3055 12.0171 26.2183C12.0539 26.131 12.073 26.0374 12.0734 25.9427C12.0738 25.8481 12.0555 25.7543 12.0194 25.6667C11.9834 25.5792 11.9304 25.4997 11.8634 25.4327C11.7965 25.3658 11.717 25.3128 11.6295 25.2767C11.542 25.2407 11.4482 25.2223 11.3535 25.2227C11.2588 25.223 11.1652 25.2421 11.078 25.2789C10.9907 25.3156 10.9116 25.3693 10.8452 25.4368L9.77892 26.5031C9.67867 26.6034 9.6104 26.7311 9.58274 26.8702C9.55508 27.0093 9.56928 27.1534 9.62355 27.2844C9.67781 27.4155 9.76969 27.5274 9.88759 27.6062C10.0055 27.685 10.1441 27.7271 10.2859 27.7271Z" fill="#0635C9"/>
<path d="M7.35053 32.6926L4.16429 35.8786C4.03162 36.0134 3.95761 36.1952 3.95838 36.3844C3.95915 36.5736 4.03464 36.7548 4.1684 36.8885C4.30217 37.0223 4.48337 37.0978 4.67254 37.0985C4.86171 37.0993 5.04352 37.0253 5.17836 36.8926L8.36436 33.7066C8.43184 33.6403 8.4855 33.5612 8.52226 33.4739C8.55902 33.3867 8.57814 33.2931 8.57853 33.1984C8.57891 33.1037 8.56055 33.0099 8.52451 32.9224C8.48846 32.8349 8.43544 32.7554 8.36851 32.6884C8.30157 32.6215 8.22205 32.5685 8.13452 32.5324C8.04699 32.4964 7.95319 32.478 7.85853 32.4784C7.76387 32.4788 7.67023 32.4979 7.583 32.5347C7.49576 32.5714 7.41667 32.6251 7.35029 32.6926H7.35053Z" fill="#0635C9"/>
<path d="M13.7393 27.3176C13.6048 27.1832 13.4225 27.1077 13.2323 27.1077C13.0422 27.1077 12.8598 27.1832 12.7253 27.3176L8.9928 31.0497C8.92531 31.116 8.87164 31.1951 8.83487 31.2824C8.7981 31.3696 8.77897 31.4632 8.77857 31.5579C8.77817 31.6526 8.79652 31.7464 8.83256 31.8339C8.8686 31.9214 8.92161 32.0009 8.98853 32.0679C9.05546 32.1348 9.13498 32.1879 9.2225 32.2239C9.31003 32.26 9.40382 32.2783 9.49848 32.278C9.59314 32.2776 9.68679 32.2585 9.77402 32.2217C9.86126 32.185 9.94036 32.1313 10.0068 32.0639L13.7393 28.3312C13.8736 28.1968 13.9491 28.0145 13.9491 27.8244C13.9491 27.6344 13.8736 27.4521 13.7393 27.3176Z" fill="#0635C9"/>
<path d="M28.8606 50.4617C28.7262 50.3273 28.5438 50.2517 28.3536 50.2517C28.1634 50.2517 27.981 50.3273 27.8466 50.4617L27.2974 51.0108C27.1629 51.1453 27.0874 51.3277 27.0874 51.5178C27.0874 51.708 27.163 51.8904 27.2975 52.0249C27.432 52.1594 27.6144 52.2349 27.8045 52.2349C27.9947 52.2349 28.1771 52.1593 28.3116 52.0248L28.8606 51.4751C28.9949 51.3406 29.0703 51.1584 29.0703 50.9684C29.0703 50.7784 28.9949 50.5962 28.8606 50.4617Z" fill="#0635C9"/>
<path d="M31.8581 46.4502L29.4045 48.9039C29.3364 48.9701 29.2822 49.0492 29.2449 49.1366C29.2077 49.224 29.1882 49.3179 29.1875 49.4129C29.1869 49.5078 29.2051 49.602 29.2411 49.6899C29.2772 49.7778 29.3303 49.8576 29.3975 49.9248C29.4647 49.992 29.5445 50.0451 29.6324 50.0812C29.7203 50.1172 29.8144 50.1355 29.9094 50.1348C30.0044 50.1342 30.0983 50.1147 30.1857 50.0775C30.2731 50.0402 30.3522 49.986 30.4184 49.9179L32.8721 47.4643C33.0035 47.3292 33.0765 47.1478 33.0753 46.9593C33.074 46.7708 32.9986 46.5904 32.8653 46.4571C32.732 46.3238 32.5516 46.2484 32.3631 46.2471C32.1746 46.2458 31.9932 46.3188 31.8581 46.4502Z" fill="#0635C9"/>
<path d="M28.8847 54.9152C28.9788 54.9153 29.0721 54.8968 29.1591 54.8608C29.2461 54.8247 29.3251 54.7719 29.3916 54.7052L32.276 51.8211C32.3441 51.7548 32.3983 51.6757 32.4355 51.5884C32.4728 51.501 32.4923 51.4071 32.4929 51.3121C32.4936 51.2171 32.4754 51.1229 32.4393 51.035C32.4033 50.9472 32.3501 50.8673 32.283 50.8001C32.2158 50.733 32.136 50.6798 32.0481 50.6438C31.9602 50.6077 31.866 50.5895 31.7711 50.5901C31.6761 50.5907 31.5822 50.6102 31.4948 50.6475C31.4074 50.6847 31.3283 50.7389 31.262 50.807L28.3777 53.6912C28.2774 53.7915 28.2092 53.9193 28.1815 54.0584C28.1538 54.1974 28.168 54.3416 28.2223 54.4726C28.2766 54.6036 28.3684 54.7156 28.4863 54.7944C28.6042 54.8732 28.7429 54.9153 28.8847 54.9153V54.9152Z" fill="#0635C9"/>
<path d="M33.1791 50.6208C33.2733 50.6209 33.3665 50.6024 33.4536 50.5664C33.5406 50.5304 33.6196 50.4775 33.6862 50.4108L34.7524 49.3445C34.8868 49.21 34.9624 49.0276 34.9623 48.8374C34.9623 48.6472 34.8867 48.4648 34.7522 48.3303C34.6177 48.1959 34.4353 48.1203 34.2451 48.1204C34.0549 48.1204 33.8725 48.196 33.738 48.3305L32.672 49.3966C32.5717 49.4969 32.5034 49.6247 32.4757 49.7638C32.448 49.9029 32.4622 50.0471 32.5165 50.1782C32.5708 50.3092 32.6627 50.4212 32.7806 50.5C32.8986 50.5788 33.0372 50.6208 33.1791 50.6208Z" fill="#0635C9"/>
<path d="M30.2435 55.5858L27.0575 58.7716C26.99 58.838 26.9363 58.9171 26.8996 59.0043C26.8628 59.0915 26.8437 59.1852 26.8433 59.2799C26.8429 59.3745 26.8612 59.4683 26.8973 59.5558C26.9333 59.6434 26.9863 59.7229 27.0532 59.7898C27.1202 59.8568 27.1997 59.9098 27.2872 59.9459C27.3747 59.9819 27.4685 60.0003 27.5632 59.9999C27.6578 59.9996 27.7515 59.9804 27.8387 59.9437C27.926 59.9069 28.0051 59.8533 28.0714 59.7858L31.2576 56.5998C31.325 56.5334 31.3787 56.4544 31.4155 56.3671C31.4522 56.2799 31.4713 56.1862 31.4717 56.0916C31.4721 55.9969 31.4538 55.9031 31.4177 55.8156C31.3817 55.7281 31.3286 55.6485 31.2617 55.5816C31.1948 55.5147 31.1153 55.4617 31.0277 55.4256C30.9402 55.3896 30.8464 55.3712 30.7517 55.3716C30.6571 55.372 30.5634 55.3911 30.4762 55.4279C30.389 55.4646 30.3099 55.5183 30.2435 55.5858Z" fill="#0635C9"/>
<path d="M35.6185 50.2107L31.8858 53.9433C31.8183 54.0097 31.7647 54.0888 31.7279 54.1761C31.6911 54.2633 31.672 54.3569 31.6716 54.4516C31.6713 54.5463 31.6896 54.6401 31.7257 54.7276C31.7617 54.8151 31.8147 54.8946 31.8817 54.9616C31.9486 55.0285 32.0281 55.0815 32.1156 55.1176C32.2032 55.1536 32.297 55.172 32.3916 55.1716C32.4863 55.1712 32.5799 55.1521 32.6672 55.1153C32.7544 55.0786 32.8335 55.0249 32.8999 54.9574L36.6324 51.2249C36.6999 51.1585 36.7536 51.0794 36.7903 50.9922C36.8271 50.905 36.8462 50.8113 36.8466 50.7167C36.847 50.622 36.8287 50.5282 36.7926 50.4407C36.7566 50.3531 36.7036 50.2736 36.6367 50.2067C36.5698 50.1397 36.4902 50.0867 36.4027 50.0506C36.3152 50.0146 36.2214 49.9962 36.1267 49.9966C36.0321 49.997 35.9384 50.0161 35.8512 50.0528C35.7639 50.0896 35.6849 50.1432 35.6185 50.2107Z" fill="#0635C9"/>
<path d="M55.9243 41.5083C55.3362 41.3097 54.8021 40.9776 54.3639 40.538C53.9257 40.0984 53.5952 39.5633 53.3984 38.9747C53.3508 38.8318 53.2595 38.7075 53.1374 38.6195C53.0153 38.5314 52.8685 38.484 52.718 38.484C52.5674 38.484 52.4207 38.5314 52.2986 38.6195C52.1764 38.7075 52.0851 38.8318 52.0376 38.9747C51.8408 39.5633 51.5103 40.0984 51.0721 40.538C50.6338 40.9776 50.0997 41.3097 49.5117 41.5083C49.3691 41.5561 49.2451 41.6474 49.1572 41.7694C49.0694 41.8914 49.0221 42.038 49.0221 42.1884C49.0221 42.3387 49.0694 42.4853 49.1572 42.6073C49.2451 42.7294 49.3691 42.8207 49.5117 42.8684C50.0997 43.067 50.6338 43.3991 51.0721 43.8387C51.5103 44.2783 51.8408 44.8134 52.0376 45.4021C52.0851 45.545 52.1764 45.6692 52.2986 45.7573C52.4207 45.8454 52.5674 45.8927 52.718 45.8927C52.8685 45.8927 53.0153 45.8454 53.1374 45.7573C53.2595 45.6692 53.3508 45.545 53.3984 45.4021C53.5952 44.8134 53.9257 44.2783 54.3639 43.8387C54.8021 43.3991 55.3362 43.067 55.9243 42.8684C56.0669 42.8207 56.1909 42.7294 56.2787 42.6073C56.3666 42.4853 56.4139 42.3387 56.4139 42.1884C56.4139 42.038 56.3666 41.8914 56.2787 41.7694C56.1909 41.6474 56.0669 41.5561 55.9243 41.5083ZM52.718 43.5856C52.3414 43.0394 51.8689 42.566 51.3235 42.1884C51.8689 41.8107 52.3414 41.3373 52.718 40.7911C53.0946 41.3373 53.567 41.8107 54.1125 42.1884C53.567 42.566 53.0946 43.0394 52.718 43.5856Z" fill="#0635C9"/>
<path d="M5.05256 12.7055C4.90996 12.7532 4.78597 12.8445 4.69811 12.9666C4.61026 13.0886 4.56299 13.2352 4.56299 13.3855C4.56299 13.5359 4.61026 13.6824 4.69811 13.8045C4.78597 13.9265 4.90996 14.0178 5.05256 14.0656C5.64064 14.2642 6.17472 14.5963 6.61296 15.0359C7.05119 15.4755 7.38167 16.0106 7.57848 16.5992C7.62602 16.7421 7.71733 16.8664 7.83945 16.9544C7.96157 17.0425 8.10831 17.0899 8.25887 17.0899C8.40943 17.0899 8.55617 17.0425 8.67829 16.9544C8.80042 16.8664 8.89172 16.7421 8.93926 16.5992C9.13607 16.0106 9.46655 15.4755 9.90478 15.0359C10.343 14.5963 10.8771 14.2642 11.4652 14.0656C11.6078 14.0178 11.7318 13.9265 11.8196 13.8045C11.9075 13.6824 11.9548 13.5359 11.9548 13.3855C11.9548 13.2352 11.9075 13.0886 11.8196 12.9666C11.7318 12.8445 11.6078 12.7532 11.4652 12.7055C10.8771 12.5069 10.343 12.1748 9.90478 11.7352C9.46655 11.2956 9.13607 10.7605 8.93926 10.1718C8.89172 10.0289 8.80042 9.90467 8.67829 9.81661C8.55617 9.72854 8.40943 9.68115 8.25887 9.68115C8.10831 9.68115 7.96157 9.72854 7.83945 9.81661C7.71733 9.90467 7.62602 10.0289 7.57848 10.1718C7.38167 10.7605 7.05119 11.2956 6.61296 11.7352C6.17472 12.1748 5.64064 12.5069 5.05256 12.7055ZM8.25887 11.9884C8.63546 12.5345 9.10793 13.0079 9.65336 13.3855C9.10792 13.7632 8.63545 14.2366 8.25887 14.7828C7.88229 14.2366 7.40982 13.7632 6.86439 13.3855C7.40982 13.0079 7.88229 12.5345 8.25887 11.9883V11.9884Z" fill="#0635C9"/>
<path d="M17.5854 7.17081C18.3105 7.17081 18.8983 6.58222 18.8983 5.85615C18.8983 5.13009 18.3105 4.5415 17.5854 4.5415C16.8604 4.5415 16.2726 5.13009 16.2726 5.85615C16.2726 6.58222 16.8604 7.17081 17.5854 7.17081Z" fill="#0635C9"/>
<path d="M50.4517 53.9008C51.1767 53.9008 51.7645 53.3122 51.7645 52.5861C51.7645 51.8601 51.1767 51.2715 50.4517 51.2715C49.7266 51.2715 49.1388 51.8601 49.1388 52.5861C49.1388 53.3122 49.7266 53.9008 50.4517 53.9008Z" fill="#0635C9"/>
<path d="M59.4802 8.07167e-07C51.2262 -0.00172229 43.2083 2.75539 36.7009 7.83317C30.3178 12.7967 25.6548 19.7806 23.5703 27.4983C23.5375 27.6201 23.5373 27.7483 23.5698 27.8702C23.6023 27.992 23.6664 28.1032 23.7556 28.1923L31.9405 36.3773C32.0293 36.466 32.1397 36.5299 32.2609 36.5626C32.3821 36.5952 32.5097 36.5956 32.631 36.5635C48.8615 32.2687 60.1973 17.5275 60.1973 0.717083C60.1973 0.526901 60.1218 0.344508 59.9873 0.210029C59.8528 0.0755503 59.6704 8.07167e-07 59.4802 8.07167e-07ZM58.0276 7.93069C55.603 6.58709 53.6013 4.5939 52.2473 2.17515C54.3896 1.73081 56.5684 1.48524 58.7559 1.44158C58.7122 3.62235 58.4684 5.7945 58.0276 7.93069ZM32.6608 35.0696L25.0648 27.4737C27.1196 20.2132 31.552 13.6532 37.5812 8.96532C40.638 6.58394 44.0615 4.71509 47.7178 3.43184C48.7317 3.07624 49.7577 2.76838 50.7959 2.50823C52.3436 5.44733 54.7505 7.8448 57.6957 9.38099C54.6282 21.6213 45.1967 31.5976 32.6608 35.0696Z" fill="#2ACFA1"/>
<path d="M42.6481 12.306C41.7863 12.3065 40.938 12.5195 40.1781 12.926C39.4182 13.3326 38.7704 13.9202 38.2918 14.6369C37.8132 15.3536 37.5187 16.1772 37.4343 17.0348C37.35 17.8925 37.4784 18.7577 37.8082 19.5539C38.138 20.3501 38.659 21.0527 39.3251 21.5995C39.9912 22.1463 40.7818 22.5204 41.627 22.6888C42.4722 22.8571 43.3458 22.8145 44.1706 22.5647C44.9954 22.3149 45.7458 21.8656 46.3555 21.2565C47.0888 20.5233 47.5882 19.589 47.7905 18.572C47.9928 17.5549 47.889 16.5007 47.4921 15.5426C47.0952 14.5845 46.4232 13.7657 45.561 13.1896C44.6987 12.6135 43.685 12.306 42.648 12.306H42.6481ZM45.3415 20.2425C44.8088 20.7752 44.1301 21.138 43.3912 21.285C42.6523 21.432 41.8864 21.3565 41.1904 21.0683C40.4944 20.78 39.8995 20.2918 39.4809 19.6654C39.0624 19.039 38.839 18.3025 38.839 17.5492C38.839 16.7958 39.0624 16.0593 39.4809 15.433C39.8995 14.8066 40.4944 14.3183 41.1904 14.0301C41.8864 13.7418 42.6523 13.6664 43.3912 13.8133C44.1301 13.9603 44.8088 14.3231 45.3415 14.8559C46.0547 15.5707 46.4553 16.5393 46.4553 17.5492C46.4553 18.559 46.0547 19.5276 45.3415 20.2425Z" fill="#2ACFA1"/>
</svg>
