<svg width="66" height="60" viewBox="0 0 66 60" fill="none" xmlns="http://www.w3.org/2000/svg">
<path d="M4.94786 21.891C4.94966 20.3865 5.54827 18.9443 6.61232 17.8807C7.67637 16.8171 9.11891 16.2191 10.6234 16.218H7.95373C7.20875 16.218 6.47106 16.3648 5.78278 16.6498C5.0945 16.9349 4.46912 17.3528 3.94234 17.8796C3.41555 18.4064 2.99768 19.0318 2.71259 19.72C2.4275 20.4083 2.28076 21.146 2.28076 21.891C2.28076 22.636 2.4275 23.3737 2.71259 24.0619C2.99768 24.7502 3.41555 25.3756 3.94234 25.9024C4.46912 26.4292 5.0945 26.847 5.78278 27.1321C6.47106 27.4172 7.20875 27.564 7.95373 27.564H10.6234C9.11891 27.5628 7.67637 26.9649 6.61232 25.9013C5.54827 24.8377 4.94966 23.3954 4.94786 21.891Z" fill="#D4E1F4"/>
<path d="M4.94786 39.1101C4.94966 37.6057 5.54827 36.1634 6.61232 35.0998C7.67637 34.0362 9.11891 33.4383 10.6234 33.4371H7.95373C6.44917 33.4371 5.00622 34.0348 3.94234 35.0987C2.87845 36.1626 2.28076 37.6055 2.28076 39.1101C2.28076 40.6147 2.87845 42.0576 3.94234 43.1215C5.00622 44.1854 6.44917 44.7831 7.95373 44.7831H10.6234C9.11891 44.7819 7.67637 44.184 6.61232 43.1204C5.54827 42.0568 4.94966 40.6146 4.94786 39.1101Z" fill="#D4E1F4"/>
<path d="M41.9667 6.75977C41.1024 6.7625 40.2692 7.08296 39.6259 7.66015C38.9825 8.23734 38.5738 9.03096 38.4777 9.88992C38.3815 10.7489 38.6045 11.6132 39.1043 12.3184C39.6041 13.0236 40.3458 13.5204 41.1881 13.7142V26.2585C40.338 26.4226 39.5568 26.8384 38.9459 27.452C38.3351 28.0657 37.9229 28.8488 37.7627 29.6997H25.1703V29.1037C26.9516 28.9075 28.5984 28.0627 29.7968 26.7304C30.9953 25.3981 31.6616 23.6714 31.6689 21.8794C31.6689 17.8668 28.3796 14.6162 24.3674 14.6162H7.95371C3.94099 14.6162 0.652267 17.8668 0.652267 21.8795C0.659508 23.6714 1.32579 25.398 2.52415 26.7303C3.7225 28.0626 5.36915 28.9073 7.15029 29.1037V31.8974C5.36903 32.0936 3.72224 32.9384 2.52377 34.2707C1.3253 35.603 0.658956 37.3297 0.651733 39.1217C0.651733 43.1343 3.94099 46.3849 7.95318 46.3849H24.3669C28.3796 46.3849 31.6683 43.1343 31.6683 39.1216C31.6611 37.3297 30.9948 35.6031 29.7965 34.2708C28.5981 32.9385 26.9514 32.0937 25.1703 31.8974V31.3014H37.7627C37.9255 32.1434 38.3402 32.916 38.9519 33.517C39.5636 34.118 40.3434 34.5191 41.1881 34.667V49.8809C40.5755 50.0201 40.0114 50.3206 39.5541 50.7512C39.0967 51.1819 38.763 51.7271 38.5874 52.3302C38.4118 52.9333 38.4007 53.5725 38.5553 54.1813C38.7099 54.7902 39.0246 55.3466 39.4667 55.7929C39.9088 56.2391 40.4623 56.559 41.0696 56.7193C41.677 56.8796 42.3162 56.8745 42.921 56.7045C43.5257 56.5346 44.074 56.2059 44.5089 55.7526C44.9439 55.2994 45.2496 54.738 45.3945 54.1268H53.4684V52.525H45.4011C45.262 51.8818 44.9425 51.2914 44.4801 50.8232C44.0176 50.3549 43.4314 50.028 42.7899 49.8809V34.667C43.6254 34.5102 44.3943 34.1051 44.9962 33.5048C45.5981 32.9044 46.0051 32.1366 46.164 31.3014H53.4684V29.6997H46.1775C46.0273 28.8507 45.623 28.0674 45.0182 27.4531C44.4133 26.8387 43.6364 26.4223 42.7899 26.2589V13.7146C43.4104 13.5532 43.9772 13.2306 44.4327 12.7794C44.8882 12.3283 45.2163 11.7646 45.3836 11.1457H53.4684V9.54393H45.412C45.2418 8.75627 44.8073 8.05057 44.1805 7.54408C43.5537 7.03759 42.7725 6.76082 41.9667 6.75977ZM8.75207 31.8354V29.1657H23.5685V31.8354H8.75207ZM2.27821 21.891C2.28001 20.3865 2.87862 18.9442 3.94267 17.8807C5.00672 16.8171 6.44926 16.2191 7.95371 16.218H24.3669C25.1119 16.218 25.8496 16.3647 26.5378 16.6498C27.2261 16.9349 27.8515 17.3528 28.3783 17.8796C28.9051 18.4064 29.3229 19.0317 29.608 19.72C29.8931 20.4083 30.0399 21.146 30.0399 21.891C30.0399 22.636 29.8931 23.3737 29.608 24.0619C29.3229 24.7502 28.9051 25.3756 28.3783 25.9024C27.8515 26.4292 27.2261 26.847 26.5378 27.1321C25.8496 27.4172 25.1119 27.5639 24.3669 27.5639H7.95371C6.44926 27.5628 5.00672 26.9649 3.94267 25.9013C2.87862 24.8377 2.28001 23.3954 2.27821 21.891ZM30.0424 39.1101C30.0406 40.6146 29.442 42.0568 28.3779 43.1204C27.3139 44.184 25.8713 44.782 24.3669 44.7831H7.95371C6.44915 44.7831 5.00621 44.1854 3.94232 43.1215C2.87843 42.0576 2.28074 40.6147 2.28074 39.1101C2.28074 37.6055 2.87843 36.1626 3.94232 35.0987C5.00621 34.0348 6.44915 33.4371 7.95371 33.4371H24.3669C25.8713 33.4383 27.3139 34.0362 28.3779 35.0998C29.442 36.1634 30.0406 37.6057 30.0424 39.1101ZM43.8888 53.3126C43.8888 53.6927 43.7761 54.0643 43.5649 54.3804C43.3537 54.6965 43.0535 54.9429 42.7023 55.0884C42.3511 55.2339 41.9646 55.2719 41.5917 55.1978C41.2189 55.1236 40.8764 54.9405 40.6076 54.6717C40.3387 54.4029 40.1557 54.0604 40.0815 53.6875C40.0073 53.3147 40.0454 52.9282 40.1909 52.577C40.3364 52.2258 40.5827 51.9256 40.8988 51.7144C41.2149 51.5032 41.5865 51.3904 41.9667 51.3904C42.4763 51.391 42.9649 51.5937 43.3252 51.954C43.6856 52.3144 43.8883 52.803 43.8888 53.3126ZM44.6453 30.463C44.6453 30.9928 44.4881 31.5107 44.1938 31.9511C43.8995 32.3916 43.4811 32.7349 42.9917 32.9376C42.5022 33.1403 41.9636 33.1934 41.4441 33.09C40.9245 32.9866 40.4472 32.7315 40.0726 32.3569C39.698 31.9823 39.4429 31.505 39.3396 30.9854C39.2362 30.4658 39.2893 29.9273 39.492 29.4378C39.6948 28.9484 40.0381 28.5301 40.4786 28.2357C40.9191 27.9414 41.4369 27.7843 41.9667 27.7843C42.6769 27.7851 43.3578 28.0676 43.8599 28.5698C44.3621 29.072 44.6445 29.7528 44.6453 30.463ZM41.9667 12.2057C41.5865 12.2057 41.2149 12.093 40.8988 11.8817C40.5827 11.6705 40.3364 11.3703 40.1909 11.0191C40.0454 10.6679 40.0073 10.2814 40.0815 9.90856C40.1557 9.5357 40.3387 9.19321 40.6076 8.92439C40.8764 8.65558 41.2189 8.47251 41.5917 8.39835C41.9646 8.32418 42.3511 8.36224 42.7023 8.50773C43.0535 8.65321 43.3537 8.89957 43.5649 9.21567C43.7761 9.53176 43.8888 9.90339 43.8888 10.2835C43.8883 10.7932 43.6856 11.2817 43.3252 11.6421C42.9649 12.0024 42.4763 12.2051 41.9667 12.2057Z" fill="#0635C9"/>
<path d="M24.5357 25.3647C25.2278 25.3647 25.9044 25.1594 26.4799 24.7749C27.0554 24.3904 27.5039 23.8439 27.7687 23.2044C28.0336 22.565 28.1029 21.8614 27.9678 21.1826C27.8328 20.5038 27.4995 19.8802 27.0101 19.3909C26.5207 18.9015 25.8972 18.5682 25.2183 18.4332C24.5395 18.2982 23.8359 18.3675 23.1965 18.6324C22.5571 18.8973 22.0106 19.3458 21.6261 19.9213C21.2416 20.4968 21.0364 21.1733 21.0364 21.8655C21.0374 22.7932 21.4065 23.6827 22.0625 24.3387C22.7185 24.9947 23.608 25.3637 24.5357 25.3647ZM24.5357 19.9677C24.911 19.9677 25.2779 20.079 25.59 20.2875C25.902 20.496 26.1452 20.7924 26.2889 21.1391C26.4325 21.4859 26.4701 21.8674 26.3969 22.2355C26.3236 22.6036 26.1429 22.9417 25.8776 23.2071C25.6122 23.4725 25.2741 23.6532 24.906 23.7264C24.5379 23.7997 24.1564 23.7621 23.8097 23.6185C23.4629 23.4749 23.1665 23.2317 22.958 22.9197C22.7495 22.6076 22.6382 22.2408 22.6382 21.8655C22.6387 21.3624 22.8388 20.88 23.1946 20.5242C23.5503 20.1685 24.0326 19.9683 24.5357 19.9677Z" fill="#0635C9"/>
<path d="M9.01902 23.4845V20.2463C9.01902 20.0339 8.93464 19.8302 8.78444 19.68C8.63424 19.5298 8.43054 19.4454 8.21813 19.4454C8.00572 19.4454 7.80201 19.5298 7.65181 19.68C7.50162 19.8302 7.41724 20.0339 7.41724 20.2463V23.4845C7.41724 23.6969 7.50162 23.9006 7.65181 24.0508C7.80201 24.201 8.00572 24.2853 8.21813 24.2853C8.43054 24.2853 8.63424 24.201 8.78444 24.0508C8.93464 23.9006 9.01902 23.6969 9.01902 23.4845Z" fill="#0635C9"/>
<path d="M11.4217 24.2853C11.6341 24.2853 11.8379 24.201 11.9881 24.0508C12.1382 23.9006 12.2226 23.6969 12.2226 23.4845V20.2463C12.2226 20.1412 12.2019 20.037 12.1617 19.9398C12.1214 19.8427 12.0624 19.7544 11.9881 19.68C11.9137 19.6056 11.8254 19.5466 11.7282 19.5064C11.6311 19.4662 11.5269 19.4454 11.4217 19.4454C11.3166 19.4454 11.2124 19.4662 11.1153 19.5064C11.0181 19.5466 10.9298 19.6056 10.8554 19.68C10.7811 19.7544 10.7221 19.8427 10.6818 19.9398C10.6416 20.037 10.6208 20.1412 10.6208 20.2463V23.4845C10.6208 23.6969 10.7052 23.9006 10.8554 24.0508C11.0056 24.201 11.2093 24.2853 11.4217 24.2853Z" fill="#0635C9"/>
<path d="M14.6252 24.2853C14.8376 24.2853 15.0413 24.201 15.1915 24.0508C15.3417 23.9006 15.4261 23.6969 15.4261 23.4845V20.2463C15.4261 20.0339 15.3417 19.8302 15.1915 19.68C15.0413 19.5298 14.8376 19.4454 14.6252 19.4454C14.4128 19.4454 14.2091 19.5298 14.0589 19.68C13.9087 19.8302 13.8243 20.0339 13.8243 20.2463V23.4845C13.8243 23.6969 13.9087 23.9006 14.0589 24.0508C14.2091 24.201 14.4128 24.2853 14.6252 24.2853Z" fill="#0635C9"/>
<path d="M21.0364 39.1356C21.0364 39.8277 21.2416 40.5043 21.6261 41.0797C22.0106 41.6552 22.5571 42.1038 23.1965 42.3686C23.8359 42.6335 24.5395 42.7028 25.2183 42.5678C25.8972 42.4328 26.5207 42.0996 27.0101 41.6102C27.4995 41.1208 27.8328 40.4973 27.9678 39.8184C28.1029 39.1396 28.0336 38.436 27.7687 37.7966C27.5039 37.1572 27.0554 36.6106 26.4799 36.2261C25.9044 35.8416 25.2278 35.6364 24.5357 35.6364C23.608 35.6374 22.7186 36.0065 22.0626 36.6625C21.4066 37.3184 21.0375 38.2078 21.0364 39.1356ZM24.5357 37.2381C24.911 37.2381 25.2779 37.3494 25.59 37.5579C25.902 37.7665 26.1453 38.0628 26.2889 38.4096C26.4325 38.7563 26.4701 39.1379 26.3968 39.506C26.3236 39.874 26.1429 40.2122 25.8775 40.4775C25.6121 40.7429 25.274 40.9236 24.9058 40.9968C24.5377 41.07 24.1562 41.0324 23.8095 40.8888C23.4627 40.7452 23.1664 40.5019 22.9579 40.1898C22.7494 39.8778 22.6381 39.5109 22.6382 39.1356C22.6388 38.6325 22.8389 38.1502 23.1946 37.7945C23.5504 37.4388 24.0327 37.2387 24.5357 37.2381Z" fill="#0635C9"/>
<path d="M8.21813 36.7157C8.00572 36.7157 7.80201 36.8001 7.65181 36.9503C7.50162 37.1005 7.41724 37.3042 7.41724 37.5166V40.7547C7.41724 40.9671 7.50162 41.1708 7.65181 41.321C7.80201 41.4712 8.00572 41.5556 8.21813 41.5556C8.43054 41.5556 8.63424 41.4712 8.78444 41.321C8.93464 41.1708 9.01902 40.9671 9.01902 40.7547V37.5166C9.01902 37.3042 8.93464 37.1005 8.78444 36.9503C8.63424 36.8001 8.43054 36.7157 8.21813 36.7157Z" fill="#0635C9"/>
<path d="M11.4217 36.7157C11.2093 36.7157 11.0056 36.8001 10.8554 36.9503C10.7052 37.1005 10.6208 37.3042 10.6208 37.5166V40.7547C10.6208 40.9671 10.7052 41.1708 10.8554 41.321C11.0056 41.4712 11.2093 41.5556 11.4217 41.5556C11.6341 41.5556 11.8379 41.4712 11.9881 41.321C12.1382 41.1708 12.2226 40.9671 12.2226 40.7547V37.5166C12.2226 37.3042 12.1382 37.1005 11.9881 36.9503C11.8379 36.8001 11.6341 36.7157 11.4217 36.7157Z" fill="#0635C9"/>
<path d="M14.6252 36.7157C14.4128 36.7157 14.2091 36.8001 14.0589 36.9503C13.9087 37.1005 13.8243 37.3042 13.8243 37.5166V40.7547C13.8243 40.9671 13.9087 41.1708 14.0589 41.321C14.2091 41.4712 14.4128 41.5556 14.6252 41.5556C14.8376 41.5556 15.0413 41.4712 15.1915 41.321C15.3417 41.1708 15.4261 40.9671 15.4261 40.7547V37.5166C15.4261 37.3042 15.3417 37.1005 15.1915 36.9503C15.0413 36.8001 14.8376 36.7157 14.6252 36.7157Z" fill="#0635C9"/>
<path d="M63.613 5.79417V4.33815C63.613 3.1876 63.156 2.08418 62.3424 1.27062C61.5289 0.457054 60.4254 0 59.2749 0C58.1243 0 57.0209 0.457054 56.2074 1.27062C55.3938 2.08418 54.9367 3.1876 54.9367 4.33815V5.79417C53.8689 5.96436 53.068 6.8416 53.068 7.89771V15.9066C53.082 16.4843 53.3192 17.034 53.7299 17.4405C54.1405 17.847 54.6927 18.0786 55.2704 18.0868H63.2793C64.4569 18.0868 65.3483 17.0842 65.3483 15.9066V7.89771C65.3483 6.8416 64.6809 5.96436 63.613 5.79417ZM59.2749 1.57949C59.6359 1.58033 59.9931 1.65241 60.3262 1.79162C60.6593 1.93083 60.9616 2.13442 61.2158 2.39071C61.47 2.647 61.6712 2.95095 61.8077 3.28514C61.9442 3.61933 62.0134 3.97717 62.0113 4.33815V5.80645H56.5385V4.33815C56.5364 3.97717 56.6056 3.61933 56.7421 3.28514C56.8786 2.95095 57.0797 2.647 57.334 2.39071C57.5882 2.13442 57.8905 1.93083 58.2236 1.79162C58.5566 1.65241 58.9139 1.58033 59.2749 1.57949ZM63.7465 15.9511C63.7465 16.0927 63.6903 16.2285 63.5901 16.3286C63.49 16.4287 63.3542 16.485 63.2126 16.485H55.2037C55.0621 16.485 54.9263 16.4287 54.8262 16.3286C54.726 16.2285 54.6698 16.0927 54.6698 15.9511V7.94216C54.6698 7.80055 54.726 7.66475 54.8262 7.56461C54.9263 7.46448 55.0621 7.40823 55.2037 7.40823H63.2126C63.3542 7.40823 63.49 7.46448 63.5901 7.56461C63.6903 7.66475 63.7465 7.80055 63.7465 7.94216V15.9511Z" fill="#2ACFA1"/>
<path d="M63.613 47.7074V46.2514C63.613 45.1008 63.156 43.9974 62.3424 43.1838C61.5289 42.3703 60.4254 41.9132 59.2749 41.9132C58.1243 41.9132 57.0209 42.3703 56.2074 43.1838C55.3938 43.9974 54.9367 45.1008 54.9367 46.2514V47.7074C53.8689 47.8776 53.068 48.7548 53.068 49.8109V57.8198C53.082 58.3975 53.3192 58.9472 53.7299 59.3537C54.1405 59.7602 54.6927 59.9918 55.2704 60H63.2793C64.4569 60 65.3483 58.9974 65.3483 57.8198V49.8109C65.3483 48.7548 64.6809 47.8776 63.613 47.7074ZM59.2749 43.4927C59.6359 43.4935 59.9931 43.5656 60.3262 43.7048C60.6593 43.844 60.9616 44.0476 61.2158 44.3039C61.47 44.5602 61.6712 44.8642 61.8077 45.1983C61.9442 45.5325 62.0134 45.8904 62.0113 46.2514V47.7197H56.5385V46.2514C56.5364 45.8904 56.6056 45.5325 56.7421 45.1983C56.8786 44.8642 57.0797 44.5602 57.334 44.3039C57.5882 44.0476 57.8905 43.844 58.2236 43.7048C58.5566 43.5656 58.9139 43.4935 59.2749 43.4927ZM63.7465 57.8643C63.7465 58.0059 63.6903 58.1417 63.5901 58.2418C63.49 58.3419 63.3542 58.3982 63.2126 58.3982H55.2037C55.0621 58.3982 54.9263 58.3419 54.8262 58.2418C54.726 58.1417 54.6698 58.0059 54.6698 57.8643V49.8554C54.6698 49.7138 54.726 49.578 54.8262 49.4778C54.9263 49.3777 55.0621 49.3214 55.2037 49.3214H63.2126C63.3542 49.3214 63.49 49.3777 63.5901 49.4778C63.6903 49.578 63.7465 49.7138 63.7465 49.8554V57.8643Z" fill="#2ACFA1"/>
<path d="M63.613 26.7508V25.2948C63.613 24.1443 63.156 23.0408 62.3424 22.2273C61.5289 21.4137 60.4254 20.9567 59.2749 20.9567C58.1243 20.9567 57.0209 21.4137 56.2074 22.2273C55.3938 23.0408 54.9367 24.1443 54.9367 25.2948V26.7508C53.8689 26.921 53.068 27.7983 53.068 28.8544V36.8633C53.082 37.4409 53.3192 37.9907 53.7299 38.3972C54.1405 38.8037 54.6927 39.0353 55.2704 39.0434H63.2793C64.4569 39.0434 65.3483 38.0408 65.3483 36.8633V28.8544C65.3483 27.7983 64.6809 26.921 63.613 26.7508ZM59.2749 22.5362C59.6359 22.537 59.9931 22.6091 60.3262 22.7483C60.6593 22.8875 60.9616 23.0911 61.2158 23.3474C61.47 23.6037 61.6712 23.9076 61.8077 24.2418C61.9442 24.576 62.0134 24.9338 62.0113 25.2948V26.7631H56.5385V25.2948C56.5364 24.9338 56.6056 24.576 56.7421 24.2418C56.8786 23.9076 57.0797 23.6037 57.334 23.3474C57.5882 23.0911 57.8905 22.8875 58.2236 22.7483C58.5566 22.6091 58.9139 22.537 59.2749 22.5362ZM63.7465 36.9077C63.7465 37.0493 63.6903 37.1851 63.5901 37.2853C63.49 37.3854 63.3542 37.4416 63.2126 37.4416H55.2037C55.0621 37.4416 54.9263 37.3854 54.8262 37.2853C54.726 37.1851 54.6698 37.0493 54.6698 36.9077V28.8988C54.6698 28.7572 54.726 28.6214 54.8262 28.5213C54.9263 28.4211 55.0621 28.3649 55.2037 28.3649H63.2126C63.3542 28.3649 63.49 28.4211 63.5901 28.5213C63.6903 28.6214 63.7465 28.7572 63.7465 28.8988V36.9077Z" fill="#2ACFA1"/>
</svg>
