<svg width="62" height="60" viewBox="0 0 62 60" fill="none" xmlns="http://www.w3.org/2000/svg">
<path d="M9.80434 10.6016L10.6651 11.0117C10.7501 11.0523 10.8423 11.0757 10.9364 11.0806C11.0305 11.0856 11.1247 11.0719 11.2135 11.0404C11.3023 11.0089 11.384 10.9603 11.454 10.8972C11.524 10.8341 11.5809 10.7579 11.6214 10.6728L14.4652 4.70403L12.5166 3.77563L9.44702 10.2181C9.51339 10.3865 9.64105 10.5235 9.80434 10.6016Z" fill="#D4E1F4"/>
<path d="M20.9222 5.81251L20.6004 6.48806L21.8524 7.0846L22.1743 6.40904C22.2383 6.27467 22.3425 6.16354 22.4725 6.09106C22.6025 6.01857 22.7519 5.98832 22.8998 6.0045C23.0045 6.0155 23.1097 6.02021 23.2149 6.01861L23.3131 5.81251C23.377 5.67809 23.3976 5.52711 23.3719 5.38048C23.3462 5.23386 23.2755 5.09887 23.1696 4.99422C22.4564 4.28831 22.2022 3.22339 22.5649 2.46213C22.7383 2.11261 23.0262 1.83303 23.3806 1.6699C22.7797 1.42018 22.1171 1.35914 21.4807 1.49488C20.8667 1.63834 20.4026 1.98227 20.1739 2.46213C19.8112 3.22339 20.0655 4.28831 20.7787 4.99422C20.8846 5.09887 20.9553 5.23386 20.981 5.38048C21.0067 5.52711 20.9861 5.67809 20.9222 5.81251Z" fill="#D4E1F4"/>
<path d="M4.8896 11.2949C4.73834 10.5725 4.83566 9.82014 5.16575 9.16001C5.41737 8.61877 5.80545 8.15229 6.29187 7.80639C6.17011 7.69426 6.03251 7.60065 5.8835 7.52857C4.83605 7.0297 3.44179 7.76132 2.77532 9.15989C2.44523 9.82002 2.34791 10.5723 2.49917 11.2947C2.64262 11.9087 2.98656 12.3728 3.46641 12.6015C4.07024 12.8891 4.86306 12.7885 5.51674 12.3803C5.19629 12.0954 4.97635 11.7148 4.8896 11.2949Z" fill="#D4E1F4"/>
<path d="M18.6915 25.8671C19.265 25.5365 19.7264 25.042 20.0165 24.447C20.8559 22.6855 19.8199 20.4334 17.7071 19.4269C16.7529 18.9569 15.6677 18.8237 14.6281 19.049C14.5609 19.065 14.4946 19.0823 14.4293 19.1012C14.7344 19.1821 15.0313 19.2911 15.3162 19.4269C17.429 20.4334 18.4649 22.6855 17.6256 24.447C17.3355 25.0419 16.874 25.5363 16.3006 25.8668L21.1734 28.1888L21.6157 27.2603L18.6915 25.8671Z" fill="#D4E1F4"/>
<path d="M9.71075 21.5882L7.02946 20.3108L10.4078 13.22C10.4484 13.135 10.4718 13.0428 10.4767 12.9487C10.4816 12.8546 10.4679 12.7604 10.4365 12.6716C10.405 12.5828 10.3563 12.501 10.2932 12.431C10.2301 12.3611 10.1539 12.3042 10.0688 12.2637L9.20806 11.8535C9.07355 11.7894 8.92242 11.7687 8.77565 11.7944C8.62888 11.8202 8.49376 11.8909 8.38905 11.997C8.23406 12.1532 8.06008 12.2894 7.87118 12.4023C7.97854 12.5058 8.05045 12.6405 8.07664 12.7873C8.10284 12.9341 8.08197 13.0853 8.01703 13.2195L4.63855 20.3108L9.69533 22.7198C9.63842 22.3443 9.64363 21.962 9.71075 21.5882Z" fill="#D4E1F4"/>
<path d="M57.4657 25.3844C56.2521 25.3844 55.0847 26.1256 54.4205 27.2572V19.7533C54.4205 19.5631 54.3449 19.3806 54.2104 19.2461C54.0759 19.1116 53.8935 19.036 53.7032 19.036H46.4781C47.5123 18.3587 48.1791 17.249 48.1791 16.0967C48.1791 14.1454 46.2753 12.5581 43.9353 12.5581C41.5953 12.5581 39.6914 14.1455 39.6914 16.0967C39.6914 17.2493 40.3581 18.3588 41.3921 19.036H33.9526C33.7624 19.036 33.5799 19.1116 33.4454 19.2461C33.3109 19.3806 33.2353 19.5631 33.2353 19.7533V28.2177C33.2353 28.408 33.3109 28.5904 33.4454 28.7249C33.5799 28.8594 33.7624 28.935 33.9526 28.935H35.0636C35.2124 28.935 35.3576 28.8887 35.4789 28.8025C35.6002 28.7163 35.6918 28.5945 35.7408 28.454C36.0712 27.5066 36.9232 26.8189 37.7665 26.8189C38.9268 26.8189 39.8705 28.0793 39.8705 29.6283C39.8705 31.1772 38.9261 32.4376 37.7665 32.4376C36.9232 32.4376 36.0712 31.75 35.7408 30.8026C35.6918 30.662 35.6002 30.5402 35.4789 30.454C35.3576 30.3678 35.2124 30.3215 35.0636 30.3215H34.004C33.8138 30.3215 33.6314 30.3971 33.4968 30.5316C33.3623 30.6661 33.2868 30.8485 33.2868 31.0388V38.8145H26.4994C27.6311 38.1502 28.3722 36.9829 28.3722 35.7693C28.3722 33.8181 26.4682 32.2308 24.1284 32.2308C21.7885 32.2308 19.8845 33.8183 19.8845 35.7693C19.8845 36.9829 20.6257 38.1502 21.7573 38.8145H14.2529C14.0627 38.8145 13.8803 38.8901 13.7458 39.0246C13.6112 39.1591 13.5357 39.3415 13.5357 39.5318V46.7567C12.8582 45.7229 11.7486 45.0567 10.5963 45.0567C8.64495 45.0567 7.05774 46.9606 7.05774 49.3006C7.05774 51.6405 8.64495 53.5444 10.5963 53.5444C11.7488 53.5444 12.8584 52.8777 13.5357 51.8438V59.2826C13.5357 59.4728 13.6112 59.6553 13.7458 59.7898C13.8803 59.9243 14.0627 59.9999 14.2529 59.9999H22.4917C22.6548 59.9998 22.813 59.9442 22.9402 59.8422C23.0675 59.7402 23.1562 59.5978 23.1916 59.4386C23.2271 59.2794 23.2073 59.1129 23.1354 58.9664C23.0635 58.82 22.9438 58.7025 22.7962 58.6332C21.9732 58.2472 21.4202 57.4758 21.4202 56.7137C21.4202 55.5534 22.6806 54.6097 24.2295 54.6097C25.7785 54.6097 27.0388 55.5541 27.0388 56.7137C27.0388 57.4758 26.4858 58.2472 25.6626 58.6332C25.5149 58.7025 25.3952 58.8201 25.3233 58.9666C25.2515 59.113 25.2317 59.2796 25.2672 59.4389C25.3027 59.5981 25.3915 59.7405 25.5189 59.8425C25.6462 59.9445 25.8045 60 25.9677 59.9999H42.1906C42.3537 59.9998 42.512 59.9442 42.6392 59.8422C42.7664 59.7402 42.8551 59.5978 42.8906 59.4386C42.9261 59.2794 42.9062 59.1129 42.8343 58.9664C42.7624 58.82 42.6428 58.7025 42.4951 58.6332C41.6722 58.2472 41.1191 57.4758 41.1191 56.7137C41.1191 55.5534 42.3795 54.6097 43.9285 54.6097C45.4774 54.6097 46.7378 55.5541 46.7378 56.7137C46.7378 57.4758 46.1848 58.2472 45.3617 58.6332C45.214 58.7025 45.0943 58.8201 45.0224 58.9665C44.9506 59.113 44.9307 59.2795 44.9663 59.4388C45.0018 59.598 45.0905 59.7403 45.2178 59.8424C45.3451 59.9444 45.5034 59.9999 45.6665 59.9999H53.702C53.8923 59.9999 54.0747 59.9243 54.2092 59.7898C54.3437 59.6553 54.4193 59.4728 54.4193 59.2826V50.7112C54.4193 50.521 54.3437 50.3385 54.2092 50.204C54.0747 50.0695 53.8923 49.9939 53.702 49.9939H53.6203C53.4712 49.9939 53.3259 50.0403 53.2045 50.1267C53.0831 50.2131 52.9916 50.3351 52.9427 50.4759C52.6139 51.4228 51.7622 52.11 50.9173 52.11C49.7571 52.11 48.8133 50.8496 48.8133 49.3007C48.8133 47.7517 49.7577 46.4913 50.9173 46.4913C51.7618 46.4913 52.6136 47.1786 52.9427 48.1257C52.9916 48.2664 53.0831 48.3884 53.2045 48.4747C53.326 48.5611 53.4713 48.6074 53.6203 48.6074H53.702C53.8923 48.6074 54.0747 48.5319 54.2092 48.3973C54.3437 48.2628 54.4193 48.0804 54.4193 47.8902V39.5322C54.4193 39.5227 54.4193 39.5131 54.4193 39.5037L54.4206 31.9998C55.0848 33.1314 56.2522 33.8726 57.4658 33.8726C59.4171 33.8726 61.0043 31.9687 61.0043 29.6287C61.0043 27.2887 59.4168 25.3844 57.4657 25.3844ZM33.286 58.5653H27.8883C28.2639 58.0204 28.4679 57.3755 28.4741 56.7137C28.4741 54.7623 26.5702 53.1751 24.2302 53.1751C21.8902 53.1751 19.9864 54.7626 19.9864 56.7137C19.9925 57.3755 20.1965 58.0204 20.5721 58.5653H14.9702V50.7112C14.9702 50.521 14.8947 50.3385 14.7601 50.204C14.6256 50.0695 14.4432 49.9939 14.2529 49.9939H13.2992C13.1502 49.9939 13.0049 50.0403 12.8834 50.1267C12.762 50.2131 12.6705 50.3351 12.6216 50.4759C12.4593 50.9465 12.1664 51.3611 11.7772 51.6714C11.4429 51.9442 11.0276 52.0985 10.5963 52.1099C9.43598 52.1099 8.49229 50.8495 8.49229 49.3006C8.49229 47.7516 9.4367 46.4912 10.5963 46.4912C11.4406 46.4912 12.2925 47.1786 12.6217 48.1257C12.6707 48.2663 12.7622 48.3883 12.8836 48.4746C13.005 48.5609 13.1503 48.6073 13.2992 48.6073H14.2529C14.4432 48.6073 14.6256 48.5317 14.7601 48.3972C14.8947 48.2627 14.9702 48.0803 14.9702 47.89V40.2495H22.7168C22.907 40.2495 23.0894 40.1739 23.224 40.0394C23.3585 39.9049 23.434 39.7225 23.434 39.5322V38.4727C23.434 38.3239 23.3877 38.1787 23.3015 38.0574C23.2153 37.936 23.0935 37.8445 22.953 37.7955C22.4821 37.6325 22.0672 37.3393 21.7563 36.9499C21.4835 36.616 21.3292 36.2009 21.3179 35.7698C21.3179 34.6095 22.5782 33.6658 24.1272 33.6658C25.6761 33.6658 26.9365 34.6102 26.9365 35.7698C26.9251 36.2009 26.7709 36.616 26.498 36.9499C26.1871 37.3393 25.7722 37.6325 25.3013 37.7955C25.1608 37.8445 25.039 37.936 24.9528 38.0574C24.8666 38.1787 24.8203 38.3239 24.8203 38.4727V39.5322C24.8203 39.7225 24.8959 39.9049 25.0304 40.0394C25.1649 40.1739 25.3473 40.2495 25.5376 40.2495H33.2848V45.8044C32.699 45.3314 31.9715 45.0681 31.2186 45.0567C29.2673 45.0567 27.6801 46.9606 27.6801 49.3006C27.6801 51.6405 29.2675 53.5444 31.2186 53.5444C31.972 53.5331 32.6998 53.2698 33.286 52.7964V58.5653ZM52.9849 45.8044C52.3987 45.3311 51.6708 45.0678 50.9174 45.0567C48.9662 45.0567 47.3789 46.9606 47.3789 49.3006C47.3789 51.6405 48.966 53.5444 50.9174 53.5444C51.6708 53.5332 52.3987 53.2699 52.9849 52.7964V58.5653H47.5873C47.9629 58.0204 48.1669 57.3755 48.173 56.7137C48.173 54.7623 46.2692 53.1751 43.9292 53.1751C41.5892 53.1751 39.6853 54.7626 39.6853 56.7137C39.6914 57.3755 39.8955 58.0204 40.2711 58.5653H34.7206V50.7112C34.7206 50.521 34.645 50.3385 34.5105 50.204C34.376 50.0695 34.1935 49.9939 34.0033 49.9939H33.9214C33.7724 49.9939 33.6271 50.0403 33.5057 50.1267C33.3842 50.2131 33.2927 50.3351 33.2438 50.4759C33.0815 50.9465 32.7887 51.3611 32.3995 51.6714C32.0653 51.9442 31.6499 52.0985 31.2186 52.1099C30.0583 52.1099 29.1146 50.8495 29.1146 49.3006C29.1146 47.7516 30.059 46.4912 31.2186 46.4912C32.063 46.4912 32.9147 47.1785 33.244 48.1255C33.2929 48.2662 33.3844 48.3882 33.5058 48.4746C33.6272 48.5609 33.7725 48.6073 33.9214 48.6073H34.0033C34.1935 48.6073 34.376 48.5317 34.5105 48.3972C34.645 48.2627 34.7206 48.0803 34.7206 47.89V40.2495H42.4163C42.6066 40.2495 42.789 40.1739 42.9235 40.0394C43.058 39.9049 43.1336 39.7225 43.1336 39.5322V38.4727C43.1336 38.3239 43.0873 38.1787 43.0011 38.0574C42.9149 37.936 42.7931 37.8445 42.6525 37.7955C41.705 37.4651 41.0175 36.6131 41.0175 35.7698C41.0175 34.6095 42.2779 33.6658 43.8268 33.6658C45.3758 33.6658 46.6362 34.6102 46.6362 35.7698C46.6362 36.6131 45.9484 37.4651 45.001 37.7955C44.8605 37.8445 44.7387 37.936 44.6525 38.0574C44.5663 38.1787 44.52 38.3239 44.52 38.4727V39.5322C44.52 39.7225 44.5955 39.9049 44.7301 40.0394C44.8646 40.1739 45.047 40.2495 45.2372 40.2495H52.9844L52.9849 45.8044ZM57.4654 32.4381C56.6222 32.4381 55.7702 31.7504 55.4399 30.803C55.3908 30.6625 55.2993 30.5406 55.1779 30.4545C55.0566 30.3683 54.9114 30.322 54.7625 30.322H53.703C53.5127 30.322 53.3303 30.3975 53.1958 30.5321C53.0613 30.6666 52.9857 30.849 52.9857 31.0392V38.815H46.1984C47.33 38.1507 48.0712 36.9834 48.0712 35.7698C48.0712 33.8186 46.1673 32.2312 43.8273 32.2312C41.4873 32.2312 39.5835 33.8188 39.5835 35.7698C39.5835 36.9834 40.3246 38.1507 41.4561 38.815H34.7213V31.9998C35.3855 33.1314 36.5527 33.8726 37.7665 33.8726C39.7177 33.8726 41.305 31.9687 41.305 29.6287C41.305 27.2887 39.7175 25.3849 37.7665 25.3849C36.5208 25.3849 35.3242 26.1656 34.6703 27.3477V20.4706H42.5244C42.7146 20.4706 42.8971 20.395 43.0316 20.2605C43.1661 20.126 43.2417 19.9435 43.2417 19.7533V18.7997C43.2417 18.6507 43.1953 18.5054 43.1089 18.3839C43.0225 18.2625 42.9004 18.171 42.7597 18.1221C41.8127 17.7932 41.1255 16.9415 41.1255 16.0967C41.1255 14.9371 42.3858 13.9927 43.9348 13.9927C45.4837 13.9927 46.7441 14.9371 46.7441 16.0967C46.7441 16.941 46.0567 17.7929 45.1097 18.1222C44.969 18.1712 44.847 18.2627 44.7607 18.3841C44.6744 18.5055 44.628 18.6507 44.628 18.7997V19.7533C44.628 19.9435 44.7036 20.126 44.8381 20.2605C44.9726 20.395 45.1551 20.4706 45.3453 20.4706H52.9852V28.2177C52.9852 28.408 53.0608 28.5904 53.1953 28.7249C53.3298 28.8594 53.5123 28.935 53.7025 28.935H54.762C54.9109 28.935 55.0561 28.8887 55.1774 28.8025C55.2988 28.7163 55.3904 28.5945 55.4394 28.454C55.7697 27.5066 56.6217 26.8189 57.465 26.8189C58.6253 26.8189 59.569 28.0793 59.569 29.6283C59.569 31.1772 58.6253 32.4381 57.4657 32.4381H57.4654Z" fill="#0635C9"/>
<path d="M11.685 24.6354C11.7855 24.507 11.8392 24.3481 11.8373 24.185C11.8354 24.0219 11.7779 23.8643 11.6744 23.7382C11.0973 23.0358 10.9299 22.1015 11.2578 21.4134C11.4863 20.9336 11.9504 20.59 12.5644 20.4462C13.2868 20.2949 14.0391 20.3923 14.6992 20.7224C16.0979 21.3887 16.8297 22.783 16.3306 23.8305C16.0028 24.5185 15.172 24.979 14.2624 24.9715C14.0993 24.9705 13.9408 25.0251 13.8129 25.1264C13.685 25.2276 13.5954 25.3694 13.559 25.5284C13.5225 25.6874 13.5413 25.854 13.6123 26.0009C13.6833 26.1478 13.8022 26.266 13.9495 26.3362L21.2037 29.7926C21.2888 29.8332 21.381 29.8566 21.4751 29.8615C21.5692 29.8664 21.6633 29.8528 21.7521 29.8213C21.841 29.7898 21.9227 29.7411 21.9927 29.678C22.0627 29.6149 22.1196 29.5387 22.1601 29.4536L25.847 21.7153C25.8876 21.6302 25.911 21.538 25.9159 21.4439C25.9208 21.3498 25.9071 21.2557 25.8756 21.1669C25.8441 21.0781 25.7955 20.9963 25.7324 20.9263C25.6693 20.8563 25.593 20.7994 25.508 20.7589L25.4341 20.7238C25.2996 20.6597 25.1484 20.639 25.0017 20.6647C24.8549 20.6904 24.7198 20.7612 24.6151 20.8672C23.9109 21.5806 22.8458 21.8346 22.0838 21.4713C21.0364 20.9722 20.7263 19.4284 21.3926 18.0298C22.0589 16.6313 23.4533 15.8994 24.5008 16.3984C25.263 16.7617 25.7363 17.7485 25.6262 18.7451C25.6098 18.8932 25.64 19.0427 25.7125 19.1728C25.785 19.303 25.8962 19.4074 26.0307 19.4714L26.1046 19.5067C26.1897 19.5473 26.2819 19.5707 26.376 19.5756C26.4701 19.5805 26.5642 19.5668 26.653 19.5353C26.7419 19.5038 26.8236 19.4552 26.8936 19.3921C26.9636 19.329 27.0205 19.2527 27.061 19.1677L30.6556 11.6229C30.6962 11.5378 30.7196 11.4456 30.7245 11.3515C30.7294 11.2574 30.7157 11.1633 30.6842 11.0745C30.6527 10.9857 30.6041 10.9039 30.541 10.8339C30.4779 10.7639 30.4016 10.707 30.3166 10.6665L23.5424 7.43881C24.8495 7.32584 26.0208 6.59087 26.543 5.49524C26.9629 4.61395 26.9358 3.59578 26.4668 2.62829C25.9755 1.68737 25.1916 0.931731 24.2332 0.475352C23.2749 0.0189734 22.1941 -0.113389 21.154 0.0982319C20.1071 0.343539 19.2992 0.963861 18.8794 1.84515C18.3573 2.94091 18.5243 4.31341 19.2601 5.39972L12.4861 2.17199C12.401 2.13143 12.3088 2.10802 12.2147 2.1031C12.1206 2.09819 12.0265 2.11187 11.9377 2.14335C11.8489 2.17484 11.7671 2.22351 11.6971 2.2866C11.6271 2.34968 11.5702 2.42594 11.5297 2.51102L8.42155 9.03343C8.25562 7.80868 7.54074 6.7293 6.50045 6.23367C4.73883 5.39434 2.48671 6.43044 1.48026 8.54305C1.01026 9.49729 0.877153 10.5825 1.10261 11.6221C1.3478 12.6689 1.96824 13.4767 2.84941 13.8967C3.89006 14.3924 5.1784 14.268 6.23458 13.6255L3.03483 20.3412C2.99426 20.4263 2.97086 20.5185 2.96594 20.6126C2.96103 20.7067 2.9747 20.8009 3.00619 20.8897C3.03767 20.9785 3.08635 21.0602 3.14944 21.1302C3.21252 21.2002 3.28878 21.2571 3.37386 21.2976L10.8115 24.8417C10.9588 24.9118 11.1257 24.9295 11.2845 24.8921C11.4433 24.8546 11.5846 24.764 11.685 24.6354ZM9.96261 20.7965C9.6837 21.3966 9.59062 22.0664 9.69531 22.7198L4.63853 20.3109L8.01689 13.2201C8.05745 13.1351 8.08086 13.0429 8.08577 12.9488C8.09069 12.8547 8.07701 12.7605 8.04553 12.6717C8.01404 12.5829 7.96536 12.5012 7.90228 12.4312C7.83919 12.3612 7.76293 12.3043 7.67786 12.2638L6.81713 11.8536C6.68262 11.7895 6.53149 11.7689 6.38472 11.7946C6.23795 11.8203 6.10282 11.8911 5.99812 11.9971C5.29388 12.7105 4.22885 12.9644 3.46674 12.6013C2.98689 12.3726 2.64331 11.9079 2.4995 11.2945C2.34824 10.5721 2.44556 9.8198 2.77565 9.15967C3.442 7.76098 4.83626 7.02948 5.88384 7.52835C6.64606 7.89153 7.11946 8.87849 7.00936 9.87515C6.99301 10.0232 7.02317 10.1727 7.09564 10.3028C7.16811 10.433 7.2793 10.5373 7.41378 10.6014L8.27451 11.0115C8.35955 11.0521 8.45176 11.0755 8.54585 11.0804C8.63995 11.0854 8.73409 11.0717 8.82291 11.0402C8.91172 11.0088 8.99346 10.9601 9.06346 10.897C9.13346 10.8339 9.19035 10.7577 9.23087 10.6726L12.5171 3.77486L19.5105 7.10707C19.5955 7.14763 19.6877 7.17104 19.7818 7.17595C19.8759 7.18087 19.9701 7.16719 20.0589 7.13571C20.1477 7.10422 20.2295 7.05555 20.2995 6.99246C20.3694 6.92937 20.4263 6.85311 20.4668 6.76804L20.9226 5.81167C20.9865 5.67725 21.0071 5.52627 20.9813 5.37964C20.9556 5.23302 20.885 5.09803 20.7791 4.99338C20.0659 4.28747 19.8116 3.22255 20.1743 2.46129C20.403 1.98143 20.8671 1.63786 21.4811 1.49405C22.2034 1.34275 22.9557 1.44002 23.6158 1.77008C24.2882 2.07506 24.8378 2.59839 25.1753 3.25507C25.4502 3.82255 25.4759 4.39924 25.247 4.87922C24.8843 5.64048 23.8973 6.11376 22.8996 6.00462C22.7516 5.98844 22.6023 6.01869 22.4723 6.09117C22.3423 6.16366 22.2381 6.27479 22.1741 6.40916L21.7184 7.36553C21.6778 7.45058 21.6544 7.54279 21.6495 7.63689C21.6446 7.73099 21.6582 7.82514 21.6897 7.91395C21.7212 8.00277 21.7699 8.08451 21.833 8.1545C21.8961 8.2245 21.9723 8.28138 22.0574 8.32189L29.0508 11.6542L26.6615 16.669C26.336 15.9894 25.7922 15.4384 25.1169 15.1041C23.3552 14.2649 21.1033 15.3008 20.0967 17.4135C19.0902 19.5261 19.7044 21.9278 21.466 22.7671C22.1508 23.0809 22.921 23.1562 23.6537 22.981L21.1734 28.1889L16.3006 25.8672C16.874 25.5367 17.3355 25.0421 17.6256 24.4472C18.4649 22.6856 17.4289 20.4335 15.3162 19.4271C14.362 18.9571 13.2768 18.8239 12.2372 19.0492C11.1903 19.2947 10.3826 19.9151 9.96261 20.7965Z" fill="#2ACFA1"/>
</svg>
