<svg width="66" height="60" viewBox="0 0 66 60" fill="none" xmlns="http://www.w3.org/2000/svg">
<path d="M7.63421 47.1013V3.36961C7.63424 3.02311 7.70253 2.68001 7.83518 2.35991C7.96783 2.0398 8.16224 1.74897 8.4073 1.504C8.65236 1.25904 8.94328 1.06475 9.26344 0.93224C9.5836 0.799725 9.92673 0.731577 10.2732 0.73169H6.6147C6.2682 0.731577 5.92507 0.799725 5.60491 0.93224C5.28475 1.06475 4.99383 1.25904 4.74877 1.504C4.5037 1.74897 4.3093 2.0398 4.17665 2.35991C4.044 2.68001 3.97571 3.02311 3.97568 3.36961V47.1013C3.97574 47.8012 4.2538 48.4724 4.7487 48.9673C5.2436 49.4622 5.91481 49.7402 6.6147 49.7403H10.2732C9.57334 49.7402 8.90213 49.4622 8.40723 48.9673C7.91233 48.4724 7.63428 47.8012 7.63421 47.1013Z" fill="#D4E1F4"/>
<path d="M15.0472 19.5489C15.2413 19.5489 15.4274 19.4718 15.5646 19.3346C15.7018 19.1973 15.7789 19.0112 15.7789 18.8172C15.7789 18.6231 15.7018 18.437 15.5646 18.2998C15.4274 18.1625 15.2413 18.0854 15.0472 18.0854H11.5458C11.2631 18.0857 10.9921 18.1981 10.7923 18.3979C10.5924 18.5977 10.4799 18.8687 10.4796 19.1513V26.1452C10.4799 26.4278 10.5924 26.6988 10.7923 26.8986C10.9922 27.0984 11.2631 27.2108 11.5458 27.2111H18.5488C18.8314 27.2108 19.1024 27.0984 19.3023 26.8986C19.5022 26.6988 19.6146 26.4278 19.615 26.1452V23.7776C19.615 23.5836 19.5379 23.3975 19.4007 23.2602C19.2635 23.123 19.0774 23.0459 18.8833 23.0459C18.6893 23.0459 18.5032 23.123 18.3659 23.2602C18.2287 23.3975 18.1516 23.5836 18.1516 23.7776V25.7476H11.943V19.5489H15.0472Z" fill="#0635C9"/>
<path d="M20.2196 17.6747C20.1457 17.6132 20.0605 17.5669 19.9687 17.5383C19.8769 17.5098 19.7805 17.4997 19.6848 17.5084C19.5891 17.5172 19.4961 17.5447 19.411 17.5894C19.326 17.6341 19.2505 17.6952 19.1891 17.769L15.6986 21.9633L14.5786 21.0571C14.504 20.9953 14.418 20.949 14.3253 20.9207C14.2327 20.8924 14.1354 20.8829 14.0391 20.8925C13.9427 20.9021 13.8493 20.9307 13.7641 20.9768C13.6789 21.0228 13.6037 21.0852 13.5428 21.1605C13.4819 21.2358 13.4366 21.3224 13.4095 21.4154C13.3823 21.5083 13.3739 21.6057 13.3846 21.702C13.3954 21.7982 13.4252 21.8913 13.4722 21.9759C13.5192 22.0606 13.5826 22.135 13.6586 22.195L15.0049 23.2843C15.2262 23.4663 15.5069 23.5599 15.7931 23.5473C16.0793 23.5346 16.3506 23.4165 16.5549 23.2157L16.5843 23.1876L20.3141 18.7054C20.3756 18.6315 20.4219 18.5462 20.4504 18.4545C20.479 18.3627 20.4891 18.2662 20.4804 18.1704C20.4716 18.0747 20.444 17.9817 20.3993 17.8966C20.3545 17.8115 20.2935 17.7361 20.2196 17.6747Z" fill="#0635C9"/>
<path d="M10.4796 41.6535C10.4799 41.9361 10.5924 42.2071 10.7922 42.4069C10.9921 42.6068 11.2631 42.7192 11.5458 42.7195H18.5488C18.8315 42.7192 19.1025 42.6068 19.3023 42.4069C19.5022 42.2071 19.6147 41.9361 19.615 41.6535V39.2859C19.615 39.0919 19.5379 38.9058 19.4007 38.7685C19.2635 38.6313 19.0774 38.5542 18.8833 38.5542C18.6893 38.5542 18.5032 38.6313 18.3659 38.7685C18.2287 38.9058 18.1516 39.0919 18.1516 39.2859V41.2562H11.943V35.0572H15.0472C15.2413 35.0572 15.4274 34.9801 15.5646 34.8429C15.7018 34.7056 15.7789 34.5195 15.7789 34.3255C15.7789 34.1314 15.7018 33.9453 15.5646 33.8081C15.4274 33.6708 15.2413 33.5938 15.0472 33.5938H11.5458C11.2631 33.594 10.9922 33.7064 10.7923 33.9062C10.5924 34.106 10.4799 34.377 10.4796 34.6596V41.6535Z" fill="#0635C9"/>
<path d="M20.2196 33.1829C20.1457 33.1214 20.0604 33.0751 19.9687 33.0466C19.8769 33.0181 19.7804 33.008 19.6847 33.0167C19.589 33.0255 19.496 33.053 19.411 33.0978C19.3259 33.1425 19.2505 33.2035 19.1891 33.2774L15.6989 37.4716L14.5789 36.5655C14.5044 36.5038 14.4184 36.4576 14.3258 36.4294C14.2333 36.4012 14.136 36.3917 14.0398 36.4013C13.9435 36.4109 13.8501 36.4396 13.765 36.4855C13.6799 36.5315 13.6047 36.5939 13.5439 36.6691C13.483 36.7443 13.4377 36.8308 13.4105 36.9237C13.3833 37.0165 13.3748 37.1138 13.3854 37.21C13.3961 37.3061 13.4257 37.3992 13.4726 37.4838C13.5194 37.5685 13.5826 37.643 13.6585 37.703L15.0048 38.7923C15.226 38.9742 15.5068 39.0679 15.7929 39.0553C16.0791 39.0427 16.3505 38.9246 16.5548 38.7239L16.5842 38.6956L20.3139 34.2134C20.3754 34.1395 20.4217 34.0543 20.4502 33.9625C20.4788 33.8708 20.4889 33.7743 20.4802 33.6786C20.4714 33.5829 20.4439 33.4899 20.3992 33.4048C20.3544 33.3198 20.2934 33.2444 20.2196 33.1829Z" fill="#0635C9"/>
<path d="M59.3859 0H6.6142C5.72073 0.000935952 4.86411 0.356247 4.23228 0.987982C3.60046 1.61972 3.24502 2.47628 3.24396 3.36975V47.1014C3.24476 47.9941 3.59942 48.85 4.23019 49.4816C4.86097 50.1133 5.71642 50.4691 6.60908 50.4711L35.0806 50.6724L35.091 49.209L6.6142 49.0075C6.10881 49.007 5.62425 48.8061 5.26679 48.4489C4.90933 48.0916 4.70815 47.6072 4.70737 47.1018V12.2416H61.2927V47.1018C61.292 47.6073 61.0909 48.0918 60.7334 48.4492C60.376 48.8065 59.8913 49.0075 59.3859 49.008C59.3726 49.008 59.3593 49.008 59.346 49.0092L55.655 49.2106L55.7346 50.6717L59.407 50.4714C60.2967 50.4649 61.1479 50.1071 61.7752 49.476C62.4024 48.8449 62.755 47.9916 62.7561 47.1018V3.36975C62.755 2.47628 62.3996 1.61972 61.7678 0.987982C61.1359 0.356247 60.2793 0.000935952 59.3859 0ZM4.70737 10.7782V3.36975C4.70798 2.86426 4.90909 2.37966 5.26657 2.02227C5.62406 1.66488 6.10871 1.4639 6.6142 1.46341H59.3859C59.8913 1.4639 60.376 1.66488 60.7335 2.02227C61.091 2.37966 61.2921 2.86426 61.2927 3.36975V10.7782H4.70737Z" fill="#0635C9"/>
<path d="M9.36591 3.22437C8.81116 3.22437 8.26887 3.38887 7.80761 3.69707C7.34635 4.00528 6.98684 4.44334 6.77455 4.95586C6.56225 5.46839 6.5067 6.03235 6.61493 6.57644C6.72316 7.12054 6.9903 7.62032 7.38257 8.01259C7.77483 8.40486 8.27462 8.67199 8.81871 8.78022C9.3628 8.88845 9.92677 8.8329 10.4393 8.62061C10.9518 8.40831 11.3899 8.04881 11.6981 7.58755C12.0063 7.12629 12.1708 6.58399 12.1708 6.02924C12.17 5.28558 11.8743 4.5726 11.3484 4.04675C10.8226 3.5209 10.1096 3.22514 9.36591 3.22437ZM9.36591 7.36973C9.1006 7.36973 8.84124 7.29105 8.62064 7.14365C8.40003 6.99625 8.22809 6.78674 8.12656 6.54162C8.02503 6.2965 7.99846 6.02678 8.05023 5.76656C8.10199 5.50634 8.22975 5.26731 8.41735 5.07971C8.60496 4.8921 8.84399 4.76434 9.10421 4.71258C9.36442 4.66082 9.63415 4.68738 9.87927 4.78892C10.1244 4.89045 10.3339 5.06239 10.4813 5.28299C10.6287 5.50359 10.7074 5.76295 10.7074 6.02826C10.707 6.38393 10.5656 6.72493 10.3141 6.97643C10.0626 7.22793 9.72158 7.36937 9.36591 7.36973Z" fill="#0635C9"/>
<path d="M16.7602 3.22437C16.2054 3.22437 15.6631 3.38887 15.2019 3.69707C14.7406 4.00528 14.3811 4.44334 14.1688 4.95586C13.9565 5.46839 13.901 6.03235 14.0092 6.57644C14.1174 7.12054 14.3846 7.62032 14.7768 8.01259C15.1691 8.40486 15.6689 8.67199 16.213 8.78022C16.7571 8.88845 17.321 8.8329 17.8335 8.62061C18.3461 8.40831 18.7841 8.04881 19.0923 7.58755C19.4005 7.12629 19.565 6.58399 19.565 6.02924C19.5643 5.28558 19.2685 4.5726 18.7427 4.04675C18.2168 3.5209 17.5038 3.22514 16.7602 3.22437ZM16.7602 7.36973C16.4949 7.36973 16.2355 7.29105 16.0149 7.14365C15.7943 6.99625 15.6224 6.78674 15.5208 6.54162C15.4193 6.2965 15.3927 6.02678 15.4445 5.76656C15.4962 5.50634 15.624 5.26731 15.8116 5.07971C15.9992 4.8921 16.2382 4.76434 16.4985 4.71258C16.7587 4.66082 17.0284 4.68738 17.2735 4.78892C17.5186 4.89045 17.7282 5.06239 17.8756 5.28299C18.023 5.50359 18.1016 5.76295 18.1016 6.02826C18.1013 6.38393 17.9598 6.72493 17.7083 6.97643C17.4568 7.22793 17.1158 7.36937 16.7602 7.36973Z" fill="#0635C9"/>
<path d="M24.1545 3.22437C23.5998 3.22437 23.0575 3.38887 22.5962 3.69707C22.135 4.00528 21.7755 4.44334 21.5632 4.95586C21.3509 5.46839 21.2953 6.03235 21.4036 6.57644C21.5118 7.12054 21.7789 7.62032 22.1712 8.01259C22.5635 8.40486 23.0633 8.67199 23.6073 8.78022C24.1514 8.88845 24.7154 8.8329 25.2279 8.62061C25.7405 8.40831 26.1785 8.04881 26.4867 7.58755C26.7949 7.12629 26.9594 6.58399 26.9594 6.02924C26.9586 5.28558 26.6629 4.5726 26.137 4.04675C25.6112 3.5209 24.8982 3.22514 24.1545 3.22437ZM24.1545 7.36973C23.8892 7.36973 23.6299 7.29105 23.4093 7.14365C23.1887 6.99625 23.0167 6.78674 22.9152 6.54162C22.8137 6.2965 22.7871 6.02678 22.8389 5.76656C22.8906 5.50634 23.0184 5.26731 23.206 5.07971C23.3936 4.8921 23.6326 4.76434 23.8928 4.71258C24.1531 4.66082 24.4228 4.68738 24.6679 4.78892C24.913 4.89045 25.1225 5.06239 25.2699 5.28299C25.4173 5.50359 25.496 5.76295 25.496 6.02826C25.4957 6.38394 25.3543 6.72496 25.1027 6.97647C24.8512 7.22797 24.5102 7.3694 24.1545 7.36973Z" fill="#0635C9"/>
<path d="M58.8455 5.15845H35.0732C34.8791 5.15845 34.693 5.23554 34.5558 5.37276C34.4186 5.50998 34.3415 5.69609 34.3415 5.89015C34.3415 6.08421 34.4186 6.27033 34.5558 6.40755C34.693 6.54477 34.8791 6.62186 35.0732 6.62186H58.8455C59.0396 6.62186 59.2257 6.54477 59.3629 6.40755C59.5001 6.27033 59.5772 6.08421 59.5772 5.89015C59.5772 5.69609 59.5001 5.50998 59.3629 5.37276C59.2257 5.23554 59.0396 5.15845 58.8455 5.15845Z" fill="#0635C9"/>
<path d="M27.1433 20.0589H55.6951C55.8892 20.0589 56.0753 19.9818 56.2125 19.8446C56.3497 19.7073 56.4268 19.5212 56.4268 19.3272C56.4268 19.1331 56.3497 18.947 56.2125 18.8098C56.0753 18.6726 55.8892 18.5955 55.6951 18.5955H27.1433C26.9493 18.5955 26.7632 18.6726 26.6259 18.8098C26.4887 18.947 26.4116 19.1331 26.4116 19.3272C26.4116 19.5212 26.4887 19.7073 26.6259 19.8446C26.7632 19.9818 26.9493 20.0589 27.1433 20.0589Z" fill="#2ACFA1"/>
<path d="M27.1433 26.1211H55.6951C55.8892 26.1211 56.0753 26.044 56.2125 25.9068C56.3497 25.7696 56.4268 25.5835 56.4268 25.3894C56.4268 25.1954 56.3497 25.0092 56.2125 24.872C56.0753 24.7348 55.8892 24.6577 55.6951 24.6577H27.1433C26.9493 24.6577 26.7632 24.7348 26.6259 24.872C26.4887 25.0092 26.4116 25.1954 26.4116 25.3894C26.4116 25.5835 26.4887 25.7696 26.6259 25.9068C26.7632 26.044 26.9493 26.1211 27.1433 26.1211Z" fill="#2ACFA1"/>
<path d="M55.6951 34.1035H49.7503C49.5562 34.1035 49.3701 34.1806 49.2329 34.3178C49.0956 34.455 49.0186 34.6412 49.0186 34.8352C49.0186 35.0293 49.0956 35.2154 49.2329 35.3526C49.3701 35.4898 49.5562 35.5669 49.7503 35.5669H55.6951C55.8892 35.5669 56.0753 35.4898 56.2125 35.3526C56.3498 35.2154 56.4268 35.0293 56.4268 34.8352C56.4268 34.6412 56.3498 34.455 56.2125 34.3178C56.0753 34.1806 55.8892 34.1035 55.6951 34.1035Z" fill="#2ACFA1"/>
<path d="M27.1433 35.5669H36.4164C36.6104 35.5669 36.7965 35.4898 36.9338 35.3526C37.071 35.2154 37.1481 35.0293 37.1481 34.8352C37.1481 34.6412 37.071 34.455 36.9338 34.3178C36.7965 34.1806 36.6104 34.1035 36.4164 34.1035H27.1433C26.9493 34.1035 26.7632 34.1806 26.6259 34.3178C26.4887 34.455 26.4116 34.6412 26.4116 34.8352C26.4116 35.0293 26.4887 35.2154 26.6259 35.3526C26.7632 35.4898 26.9493 35.5669 27.1433 35.5669Z" fill="#2ACFA1"/>
<path d="M27.1433 41.6294H29.6425C29.8365 41.6294 30.0226 41.5523 30.1599 41.4151C30.2971 41.2779 30.3742 41.0918 30.3742 40.8977C30.3742 40.7037 30.2971 40.5175 30.1599 40.3803C30.0226 40.2431 29.8365 40.166 29.6425 40.166H27.1433C26.9493 40.166 26.7632 40.2431 26.6259 40.3803C26.4887 40.5175 26.4116 40.7037 26.4116 40.8977C26.4116 41.0918 26.4887 41.2779 26.6259 41.4151C26.7632 41.5523 26.9493 41.6294 27.1433 41.6294Z" fill="#2ACFA1"/>
<path d="M42.2805 29.1868C41.5274 29.1878 40.8054 29.4876 40.273 30.0203C39.7406 30.553 39.4413 31.2751 39.4407 32.0282V46.6209L39.3868 46.5428C38.8095 45.7061 38.0377 45.022 37.1376 44.5495C36.2375 44.077 35.2361 43.8301 34.2195 43.8302C33.9745 43.8302 33.7334 43.8915 33.5182 44.0086C33.303 44.1256 33.1204 44.2946 32.9872 44.5003C32.854 44.7059 32.7743 44.9416 32.7555 45.1858C32.7366 45.4301 32.7792 45.6752 32.8793 45.8988L33.0026 46.1747C33.5723 47.4488 34.032 48.7694 34.3767 50.1219L35.9296 56.2243C35.9321 56.2342 35.9349 56.2441 35.9378 56.2539C36.2576 57.3392 36.9212 58.2913 37.8288 58.9668C38.7364 59.6424 39.8388 60.005 40.9702 59.9999H51.1726C52.5658 59.998 53.9014 59.4436 54.8865 58.4583C55.8715 57.4729 56.4254 56.1371 56.4268 54.7438V46.4849C56.4274 46.009 56.2999 45.5416 56.0577 45.1319C55.8154 44.7222 55.4673 44.3853 55.0499 44.1565C54.6326 43.9278 54.1613 43.8155 53.6856 43.8317C53.2099 43.8478 52.7474 43.9917 52.3465 44.2482C52.1927 43.9082 51.9685 43.6048 51.6886 43.3579C51.4088 43.1111 51.0797 42.9265 50.7232 42.8163C50.3666 42.7062 49.9908 42.673 49.6205 42.7191C49.2502 42.7651 48.8939 42.8892 48.5751 43.0832C48.4364 42.7692 48.2355 42.4866 47.9846 42.2523C47.7338 42.018 47.438 41.8369 47.1153 41.7199C46.7926 41.6029 46.4495 41.5524 46.1068 41.5716C45.764 41.5907 45.4287 41.679 45.121 41.8311V32.0279C45.1203 31.2747 44.8208 30.5525 44.2883 30.0199C43.7558 29.4872 43.0337 29.1876 42.2805 29.1868ZM45.1515 44.1236C45.1515 43.8341 45.2665 43.5565 45.4711 43.3518C45.6758 43.1471 45.9535 43.0321 46.2429 43.0321C46.5324 43.0321 46.81 43.1471 47.0147 43.3518C47.2194 43.5565 47.3344 43.8341 47.3344 44.1236V44.9529C47.3155 45.0806 47.3059 45.2095 47.3059 45.3386V48.2108C47.3059 48.4048 47.3829 48.5909 47.5202 48.7282C47.6574 48.8654 47.8435 48.9425 48.0376 48.9425H48.0518C48.0518 48.9425 48.0612 48.9425 48.0661 48.9425C48.2602 48.9425 48.4463 48.8654 48.5835 48.7282C48.7207 48.5909 48.7978 48.4048 48.7978 48.2108V45.0837C48.86 44.8009 49.0246 44.551 49.2599 44.3822C49.4952 44.2133 49.7846 44.1373 50.0724 44.1689C50.3603 44.2004 50.6264 44.3373 50.8195 44.5531C51.0126 44.7689 51.1192 45.0485 51.1187 45.3381V48.9692C51.1187 49.1632 51.1957 49.3494 51.333 49.4866C51.4702 49.6238 51.6563 49.7009 51.8504 49.7009C52.0444 49.7009 52.2305 49.6238 52.3678 49.4866C52.505 49.3494 52.5821 49.1632 52.5821 48.9692V46.4849C52.5805 46.3276 52.6101 46.1715 52.6692 46.0257C52.7283 45.8799 52.8157 45.7472 52.9264 45.6354C53.0371 45.5236 53.1689 45.4349 53.3141 45.3743C53.4593 45.3137 53.615 45.2825 53.7724 45.2825C53.9297 45.2825 54.0855 45.3137 54.2307 45.3743C54.3759 45.4349 54.5076 45.5236 54.6183 45.6354C54.729 45.7472 54.8164 45.8799 54.8755 46.0257C54.9347 46.1715 54.9643 46.3276 54.9627 46.4849V54.7438C54.9617 55.749 54.5622 56.7127 53.8517 57.4237C53.1412 58.1347 52.1777 58.5348 51.1726 58.5365H40.9702C40.1564 58.5401 39.3633 58.2801 38.7096 57.7953C38.0559 57.3106 37.5768 56.6271 37.3439 55.8474L35.7951 49.7606C35.43 48.3274 34.9429 46.928 34.3393 45.5777L34.2195 45.2936C34.9992 45.2936 35.7673 45.4829 36.4577 45.8453C37.1481 46.2077 37.7401 46.7323 38.1829 47.3741L39.4412 49.1971V51.9146C39.4412 52.1086 39.5183 52.2947 39.6555 52.4319C39.7928 52.5692 39.9789 52.6463 40.1729 52.6463C40.367 52.6463 40.5531 52.5692 40.6903 52.4319C40.8275 52.2947 40.9046 52.1086 40.9046 51.9146V32.0279C40.9046 31.6628 41.0496 31.3128 41.3078 31.0546C41.5659 30.7965 41.916 30.6515 42.281 30.6515C42.646 30.6515 42.9961 30.7965 43.2542 31.0546C43.5123 31.3128 43.6573 31.6628 43.6573 32.0279V45.0165C43.6573 45.088 43.6679 45.1591 43.6885 45.2275V48.2103C43.6885 48.4043 43.7656 48.5905 43.9029 48.7277C44.0401 48.8649 44.2262 48.942 44.4202 48.942C44.6143 48.942 44.8004 48.8649 44.9376 48.7277C45.0749 48.5905 45.152 48.4043 45.152 48.2103L45.1515 44.1236Z" fill="#2ACFA1"/>
</svg>
