<svg width="30" height="30" viewBox="0 0 30 30" fill="none" xmlns="http://www.w3.org/2000/svg">
<path d="M27.3609 0.144531H2.33104C1.04572 0.144531 0 1.1902 0 2.47551V16.5679C0 17.8533 1.04572 18.8989 2.33104 18.8989H8.09648C8.42139 18.8989 8.68471 18.6355 8.68471 18.3107C8.68471 17.9859 8.42133 17.7225 8.09643 17.7225H2.33104C1.69441 17.7225 1.1765 17.2046 1.1765 16.5679V2.47551C1.1765 1.83889 1.69441 1.32098 2.33104 1.32098H27.3609C27.9975 1.32098 28.5154 1.83889 28.5154 2.47551V16.5679C28.5154 17.2046 27.9975 17.7225 27.3609 17.7225H25.5944C25.2695 17.7225 25.0062 17.9859 25.0062 18.3107C25.0062 18.6355 25.2696 18.8989 25.5944 18.8989H27.3609C28.6462 18.8989 29.6919 17.8533 29.6919 16.5679V2.47551C29.6919 1.1902 28.6462 0.144531 27.3609 0.144531Z" fill="white"/>
<path d="M29.9994 21.7564C29.9845 21.2926 29.6936 20.8886 29.2586 20.7272V20.7271L19.5292 17.1176C18.8703 16.8732 18.1524 17.03 17.6555 17.5268C17.1585 18.0235 17.0016 18.7415 17.2458 19.4003L20.8462 29.1137C21.0083 29.551 21.4143 29.842 21.8806 29.855C21.8915 29.8554 21.9022 29.8555 21.913 29.8555C22.3662 29.8555 22.7727 29.5902 22.9546 29.1726L23.9505 26.8862L26.1097 29.046C26.7242 29.6607 27.7244 29.661 28.3391 29.0464L29.172 28.2136C29.4698 27.9159 29.6339 27.5201 29.6339 27.0989C29.634 26.6779 29.47 26.282 29.1724 25.9842L27.0405 23.8518L29.3266 22.8313C29.7503 22.6421 30.0144 22.2202 29.9994 21.7564ZM25.7803 23.1259C25.6034 23.2048 25.4768 23.3657 25.4416 23.5561C25.4064 23.7465 25.4672 23.942 25.604 24.079L28.3404 26.8161C28.4963 26.972 28.4963 27.2257 28.3403 27.3817L27.5074 28.2144C27.4319 28.2899 27.3314 28.3315 27.2246 28.3315H27.2246C27.1177 28.3315 27.0173 28.2899 26.9417 28.2143L24.1721 25.4439C24.0345 25.3062 23.8378 25.2457 23.6465 25.2818C23.4553 25.318 23.2944 25.4464 23.2167 25.6248L21.9153 28.6128L18.3489 18.9915C18.2249 18.6568 18.4235 18.4226 18.4873 18.3588C18.5364 18.3097 18.6867 18.1806 18.9061 18.1806C18.9716 18.1806 19.0432 18.1921 19.12 18.2206L28.7585 21.7965L25.7803 23.1259ZM28.8498 21.8304C28.8497 21.8303 28.8495 21.8302 28.8494 21.8301L29.054 21.2787L28.8498 21.8304Z" fill="white"/>
<path d="M16.7534 15.7897L15.0913 14.1274C14.8615 13.8978 14.4891 13.8978 14.2594 14.1274C14.0296 14.3572 14.0296 14.7296 14.2593 14.9593L15.9215 16.6216C16.0364 16.7365 16.1869 16.7939 16.3375 16.7939C16.488 16.7939 16.6386 16.7365 16.7534 16.6216C16.9832 16.3919 16.9832 16.0195 16.7534 15.7897Z" fill="white"/>
<path d="M15.1229 17.7275H12.7721C12.4472 17.7275 12.1839 17.9909 12.1839 18.3158C12.1839 18.6406 12.4473 18.904 12.7721 18.904H15.1229C15.4477 18.904 15.7111 18.6406 15.7111 18.3158C15.7111 17.9909 15.4477 17.7275 15.1229 17.7275Z" fill="white"/>
<path d="M18.4983 12.0013C18.1734 12.0013 17.91 12.2647 17.91 12.5896V14.9403C17.91 15.2652 18.1734 15.5286 18.4983 15.5286C18.8231 15.5286 19.0865 15.2652 19.0865 14.9403V12.5896C19.0865 12.2647 18.8231 12.0013 18.4983 12.0013Z" fill="white"/>
<path d="M23.4367 13.0941C23.207 12.8645 22.8346 12.8644 22.6048 13.0941L20.9426 14.7564C20.7128 14.9861 20.7128 15.3585 20.9425 15.5883C21.0574 15.7031 21.208 15.7605 21.3585 15.7605C21.5091 15.7605 21.6597 15.7031 21.7745 15.5883L23.4367 13.926C23.6665 13.6963 23.6665 13.3239 23.4367 13.0941Z" fill="white"/>
<path d="M16.0714 20.4595C15.8416 20.2298 15.4691 20.2298 15.2394 20.4595L13.5772 22.1218C13.3474 22.3515 13.3475 22.7239 13.5772 22.9537C13.692 23.0685 13.8426 23.1259 13.9932 23.1259C14.1437 23.1259 14.2943 23.0685 14.4091 22.9537L16.0714 21.2914C16.3011 21.0616 16.301 20.6892 16.0714 20.4595Z" fill="white"/>
<path d="M10.4302 18.9007C10.7561 18.9007 11.0203 18.6365 11.0203 18.3106C11.0203 17.9848 10.7561 17.7206 10.4302 17.7206C10.1044 17.7206 9.84021 17.9848 9.84021 18.3106C9.84021 18.6365 10.1044 18.9007 10.4302 18.9007Z" fill="white"/>
<path d="M10.328 8.82498C10.8435 8.60121 11.1547 8.07598 11.1547 7.2784C11.1547 5.89723 10.2113 5.56653 9.1997 5.56653H7.32248C7.04041 5.56653 6.76807 5.7027 6.76807 5.96532V12.2876C6.76807 12.4919 6.98205 12.6767 7.32248 12.6767H9.38451C10.4836 12.6767 11.3298 12.132 11.3298 10.6147V10.4104C11.3298 9.4377 10.9213 9.05842 10.328 8.82498ZM8.02279 6.67536H9.10244C9.59849 6.67536 9.89029 6.98655 9.89029 7.49239C9.89029 7.98838 9.6374 8.32881 9.11216 8.32881H8.02279V6.67536ZM10.0654 10.5076C10.0654 11.2468 9.71527 11.5679 9.12195 11.5679H8.02285V9.32098H9.12195C9.71527 9.32098 10.0654 9.59332 10.0654 10.352V10.5076Z" fill="white"/>
<path d="M16.2417 5.56653C15.9207 5.56653 15.6095 5.68325 15.6095 5.95559V10.5076C15.6095 11.2663 15.2107 11.6262 14.5396 11.6262C13.8684 11.6262 13.4697 11.2663 13.4697 10.5076V5.95559C13.4697 5.68319 13.1487 5.56653 12.8374 5.56653C12.5164 5.56653 12.2052 5.68325 12.2052 5.95559V10.5076C12.2052 12.132 13.2265 12.7351 14.5396 12.7351C15.8429 12.7351 16.874 12.132 16.874 10.5076V5.95559C16.874 5.68319 16.553 5.56653 16.2417 5.56653Z" fill="white"/>
<path d="M22.0874 5.56653C21.8831 5.56653 21.7956 5.65407 21.708 5.81936L20.2199 8.63039L18.7414 5.81936C18.6539 5.64434 18.5566 5.56653 18.3524 5.56653C18.0119 5.56653 17.5159 5.78045 17.5159 6.09176C17.5159 6.12094 17.5256 6.16957 17.545 6.21821L19.5584 9.70031C19.5779 9.72949 19.5876 9.77813 19.5876 9.82676V12.2778C19.5876 12.5405 19.9086 12.6767 20.2199 12.6767C20.5408 12.6767 20.8521 12.5405 20.8521 12.2778V9.82676C20.8521 9.77813 20.8715 9.72949 20.891 9.70031L22.8947 6.21821C22.9238 6.16957 22.9238 6.12094 22.9238 6.09176C22.9238 5.78045 22.4278 5.56653 22.0874 5.56653Z" fill="white"/>
</svg>
