<?xml version="1.0" encoding="utf-8"?>
<!-- Generator: Adobe Illustrator 22.1.0, SVG Export Plug-In . SVG Version: 6.00 Build 0)  -->
<svg version="1.1" id="Слой_1" xmlns="http://www.w3.org/2000/svg" xmlns:xlink="http://www.w3.org/1999/xlink" x="0px" y="0px"
	 viewBox="0 0 275 301" style="enable-background:new 0 0 275 301;" xml:space="preserve">
<style type="text/css">
	.st0{clip-path:url(#SVGID_2_);}
	.st1{opacity:0.4;fill:#5933C6;enable-background:new    ;}
	.st2{opacity:0.4;fill:#917DC7;enable-background:new    ;}
	.st3{fill:#F2F2F2;}
	.st4{fill:#FFFFFF;}
	.st5{fill:#F9D9EB;}
	.st6{opacity:0.46;fill:#EF92C7;enable-background:new    ;}
	.st7{fill:#EF92C7;}
	.st8{fill:#243762;}
	.st9{opacity:0.89;fill:#4C65BA;enable-background:new    ;}
	.st10{opacity:0.13;fill:#C5D9FF;enable-background:new    ;}
	.st11{fill:#F9F9F9;}
	.st12{opacity:0.89;fill:#471AC5;enable-background:new    ;}
</style>
<g>
	<defs>
		<rect id="SVGID_1_" x="0.5" y="0.5" width="274.2" height="300"/>
	</defs>
	<clipPath id="SVGID_2_">
		<use xlink:href="#SVGID_1_"  style="overflow:visible;"/>
	</clipPath>
	<g class="st0">
		<path class="st1" d="M255.6,166.9c9.8-61.6-32.1-119.4-93.7-129.3c-61.6-9.8-119.4,32.1-129.3,93.7
			c-9.8,61.6,32.1,119.4,93.7,129.3C187.9,270.3,245.8,228.4,255.6,166.9z"/>
		<path class="st2" d="M236.6,223c50.9-50.9,50.9-133.4,0-184.3c-50.9-50.9-133.4-50.9-184.3,0C1.3,89.6,1.3,172.1,52.2,223
			C103.1,273.9,185.7,273.9,236.6,223z"/>
		<path class="st3" d="M182.2,150.6h-76c-28.2,0-51,21.9-51,48.9V300h178V199.5C233.2,172.5,210.3,150.6,182.2,150.6z"/>
		<path class="st4" d="M97.4,197.6c-0.1,0-0.3,0.1-0.4,0.1c-0.1,0.1-0.2,0.2-0.2,0.4v19l-10.4-24.6c0-0.1-0.1-0.1-0.1-0.2
			c-0.1-0.1-0.1-0.1-0.2-0.1c-0.1,0-0.1,0-0.2,0c-0.1,0-0.1,0-0.2,0.1c-0.1,0.1-0.2,0.2-0.3,0.3c-0.1,0.1-0.1,0.3,0,0.4l11.4,27
			v80.1c0,0.1,0.1,0.3,0.2,0.4c0.1,0.1,0.2,0.2,0.4,0.2c0.1,0,0.3-0.1,0.4-0.2c0.1-0.1,0.2-0.2,0.2-0.4v-102c0-0.1-0.1-0.3-0.2-0.4
			C97.6,197.7,97.5,197.6,97.4,197.6z"/>
		<path class="st4" d="M203.9,192.2c-0.1,0-0.1,0-0.2-0.1c-0.1,0-0.1,0-0.2,0c-0.1,0-0.1,0.1-0.2,0.1c0,0-0.1,0.1-0.1,0.2l-10,23.6
			v-17.8c0-0.1-0.1-0.3-0.2-0.4c-0.1-0.1-0.2-0.2-0.4-0.2s-0.3,0.1-0.4,0.2c-0.1,0.1-0.2,0.2-0.2,0.4v20.3l-0.4,1
			c-0.1,0.1-0.1,0.3,0,0.4c0.1,0.1,0.2,0.2,0.3,0.3h0.1v79.7c0,0.1,0.1,0.3,0.2,0.4c0.1,0.1,0.2,0.2,0.4,0.2s0.3-0.1,0.4-0.2
			c0.1-0.1,0.2-0.2,0.2-0.4v-81.1l11-25.9c0-0.1,0-0.1,0.1-0.2c0-0.1,0-0.1,0-0.2c0-0.1-0.1-0.1-0.1-0.2
			C204,192.2,204,192.2,203.9,192.2z"/>
		<path class="st5" d="M162.2,144.1c-1.1,0.2-2.2,0.4-3.3,0.4h-27.7c-1.1,0-2.2-0.1-3.3-0.4c-3.1-0.7-5.8-2.2-8-4.5v9.7
			c0.2,6.5,2.9,12.7,7.6,17.3c4.7,4.5,11,7.1,17.5,7.1c6.5,0,12.8-2.5,17.5-7.1c4.7-4.5,7.4-10.7,7.6-17.3v-9.7
			C167.9,141.8,165.2,143.4,162.2,144.1z"/>
		<path class="st6" d="M131.2,144.5c-1.1,0-2.2-0.1-3.3-0.4c4.7,4.4,10.8,6.8,17.2,6.8s12.5-2.4,17.2-6.8c-1.1,0.2-2.2,0.4-3.3,0.4
			H131.2z"/>
		<path class="st5" d="M112,99.5c0,0,0,0-0.2,0c-0.1,0-0.3-0.1-0.4-0.1c-0.1-0.1-0.2-0.2-0.2-0.4c-0.1-1.3,0.3-2.5,1.1-3.5
			c0.8-1,2-1.6,3.2-1.8v-2.5c-0.2-0.3-0.4-0.7-0.6-1c-2.1,0.6-4,1.9-5.2,3.6c-1.3,1.8-2,3.9-1.9,6.1c0.1,2.2,0.9,4.3,2.3,5.9
			c1.4,1.7,3.3,2.8,5.5,3.3v-4c-1-0.5-1.9-1.3-2.5-2.3C112.4,101.8,112,100.7,112,99.5z"/>
		<path class="st5" d="M182.1,99.6c0-2.2-0.7-4.3-2.1-6s-3.3-2.9-5.4-3.4c0,0.3-0.2,0.6-0.3,0.9v2.5c0.2,0.1,0.4,0.2,0.6,0.3
			c0.7,0,1.3,0.2,1.9,0.5c0.6,0.3,1.1,0.7,1.6,1.2c0.4,0.5,0.8,1.1,1,1.7c0.2,0.6,0.3,1.3,0.2,1.9c0,0.1-0.1,0.3-0.2,0.4
			c-0.1,0.1-0.2,0.2-0.4,0.2c-0.1,1.4-0.6,2.7-1.4,3.8c-0.8,1.1-2,1.9-3.3,2.3v3.5c2.2-0.4,4.2-1.6,5.6-3.4
			C181.3,104,182.1,101.8,182.1,99.6z"/>
		<path class="st7" d="M178.5,99c0-0.5,0-1.1-0.2-1.6c-0.2-0.5-0.5-1-0.8-1.4c-0.4-0.4-0.8-0.7-1.3-0.9c-0.5-0.2-1-0.3-1.6-0.3
			c-0.1,0-0.3-0.1-0.4-0.2v11.1c1.3-0.4,2.5-1.2,3.3-2.3c0.8-1.1,1.3-2.4,1.4-3.8c-0.1,0-0.1,0-0.2,0c-0.1,0-0.1-0.1-0.2-0.1
			c0,0-0.1-0.1-0.1-0.2S178.5,99.1,178.5,99z"/>
		<path class="st7" d="M112.3,99c0,0.1,0,0.2-0.1,0.3c-0.1,0.1-0.1,0.1-0.2,0.2c0.1,1.2,0.4,2.3,1.1,3.3c0.6,1,1.6,1.8,2.6,2.3V94.8
			c-1,0.1-1.9,0.7-2.6,1.5C112.5,97,112.2,98,112.3,99z"/>
		<path class="st6" d="M174.6,93.7h0.3c-0.2-0.1-0.4-0.2-0.6-0.3v0.5C174.3,93.8,174.4,93.7,174.6,93.7z"/>
		<path class="st8" d="M174.2,93.9v0.8c0.1,0.1,0.2,0.1,0.4,0.2c0.5,0,1.1,0.1,1.6,0.3c0.5,0.2,0.9,0.5,1.3,0.9
			c0.4,0.4,0.6,0.9,0.8,1.4c0.2,0.5,0.2,1.1,0.2,1.6c0,0.1,0,0.1,0,0.2c0,0.1,0.1,0.1,0.1,0.2c0,0,0.1,0.1,0.2,0.1
			c0.1,0,0.1,0,0.2,0c0.1,0,0.3-0.1,0.4-0.2c0.1-0.1,0.2-0.2,0.2-0.4c0.1-0.7,0-1.3-0.2-1.9c-0.2-0.6-0.5-1.2-1-1.7
			c-0.4-0.5-1-0.9-1.6-1.2c-0.6-0.3-1.2-0.5-1.9-0.5h-0.3C174.4,93.7,174.3,93.8,174.2,93.9z"/>
		<path class="st8" d="M111.3,99c0,0.1,0.1,0.3,0.2,0.4c0.1,0.1,0.2,0.1,0.4,0.1c0,0,0,0,0.2,0c0.1,0,0.2-0.1,0.2-0.2
			c0.1-0.1,0.1-0.2,0.1-0.3c-0.1-1,0.2-2,0.8-2.8c0.6-0.8,1.5-1.3,2.6-1.5v-1.1c-1.3,0.1-2.5,0.8-3.3,1.7
			C111.6,96.5,111.2,97.8,111.3,99z"/>
		<path class="st8" d="M174.2,94.6V91c0.1-0.3,0.2-0.6,0.3-0.9c0.6-1.6,1.2-3.2,1.8-4.5c5-10.3,8.2-26.7-6.8-28.7
			c-0.7-0.1-1.3-0.1-2-0.1c-2.6,0-5.1-0.7-7.4-1.9c-2.3-1.3-4.1-3.1-5.5-5.3c-1.7-2.7-4.1-4.9-6.9-6.5c-2.8-1.5-6-2.4-9.2-2.3
			c-2.6,0.1-5.1,0.6-7.5,1.7c-2.4,1-4.5,2.6-6.3,4.4s-3.2,4.1-4.1,6.5c-0.9,2.4-1.3,5-1.3,7.6c-1.8,0.1-3.6,0.7-5.1,1.8
			c-1.5,1.1-2.6,2.6-3.3,4.3c-0.8,2.5-0.9,5.1-0.5,7.7c0.5,3.9,1.4,7.7,2.6,11.5c0.4,1.4,1,2.8,1.7,4.2c0.2,0.3,0.4,0.7,0.6,1v37.7
			c0,4.1,1.7,8,4.6,10.9c2.9,2.9,6.8,4.5,10.9,4.6h27.6c4.1,0,8-1.6,10.9-4.5c2.9-2.9,4.5-6.8,4.5-10.9V94.6L174.2,94.6z"/>
		<path class="st5" d="M121.4,101v-21c-0.2-2.4,0.7-4.9,2.3-6.7c1.6-1.8,3.9-3,6.3-3.2h-1.1c-2.5,0.1-4.9,1.1-6.7,3
			c-1.7,1.8-2.7,4.3-2.6,6.8v20.7c0,2.2,0.7,4.3,1.9,6c1.3,1.7,3.1,3,5.2,3.5c-1.7-0.9-3.1-2.2-4-3.8
			C121.8,104.8,121.4,102.9,121.4,101z"/>
		<path class="st5" d="M160.7,70.3h-1c2.4,0.2,4.7,1.3,6.3,3.2c1.6,1.8,2.4,4.3,2.3,6.7v21c0.1,1.8-0.4,3.7-1.3,5.3
			c-0.9,1.6-2.3,2.9-3.9,3.8c2-0.6,3.7-1.9,4.9-3.6c1.2-1.7,1.9-3.7,1.8-5.8V80.1c0.1-2.5-0.9-4.9-2.6-6.8
			C165.6,71.5,163.2,70.4,160.7,70.3z"/>
		<path class="st6" d="M121.4,101v-21c-0.2-2.4,0.7-4.9,2.3-6.7c1.6-1.8,3.9-3,6.3-3.2h-1.1c-2.5,0.1-4.9,1.1-6.7,3
			c-1.7,1.8-2.7,4.3-2.6,6.8v20.7c0,2.2,0.7,4.3,1.9,6c1.3,1.7,3.1,3,5.2,3.5c-1.7-0.9-3.1-2.2-4-3.8
			C121.8,104.8,121.4,102.9,121.4,101z"/>
		<path class="st6" d="M160.7,70.3h-1c2.4,0.2,4.7,1.3,6.3,3.2c1.6,1.8,2.4,4.3,2.3,6.7v21c0.1,1.8-0.4,3.7-1.3,5.3
			c-0.9,1.6-2.3,2.9-3.9,3.8c2-0.6,3.7-1.9,4.9-3.6c1.2-1.7,1.9-3.7,1.8-5.8V80.1c0.1-2.5-0.9-4.9-2.6-6.8
			C165.6,71.5,163.2,70.4,160.7,70.3z"/>
		<path class="st5" d="M159.7,70.3h-1.4c-0.5,3.2-2.2,6.2-4.7,8.3c-2.5,2.1-5.7,3.3-9,3.3c-3.3,0-6.5-1.2-9-3.3
			c-2.5-2.1-4.2-5.1-4.7-8.3h-0.7c-2.4,0.2-4.7,1.3-6.3,3.2c-1.6,1.8-2.4,4.3-2.3,6.7v21c-0.1,1.9,0.4,3.8,1.4,5.4
			c1,1.6,2.4,2.9,4.1,3.8c1,0.5,2.1,0.7,3.2,0.7h5.1c0.6-1.5,1.6-2.8,3-3.7c1.3-0.9,2.9-1.4,4.5-1.4h5.4c1.6,0,3.2,0.5,4.5,1.4
			c1.3,0.9,2.4,2.2,3,3.7h4.1c1.2,0,2.4-0.3,3.5-0.8c1.6-0.9,3-2.2,3.9-3.8c0.9-1.6,1.4-3.4,1.3-5.3v-21c0.1-1.2-0.1-2.5-0.5-3.6
			c-0.4-1.2-1-2.2-1.8-3.1c-0.8-0.9-1.8-1.7-2.9-2.2C162.2,70.7,161,70.4,159.7,70.3z"/>
		<path class="st8" d="M157.6,98.4c0.3,0,0.6-0.1,0.9-0.4c0.2-0.2,0.4-0.5,0.4-0.9v-2.4c0-0.3-0.1-0.6-0.4-0.9
			c-0.2-0.2-0.5-0.4-0.9-0.4c-0.3,0-0.6,0.1-0.9,0.4c-0.2,0.2-0.4,0.5-0.4,0.9v2.4c0,0.3,0.1,0.6,0.4,0.9
			C156.9,98.3,157.3,98.4,157.6,98.4z"/>
		<path class="st8" d="M133.6,98.4c0.3,0,0.6-0.1,0.9-0.4c0.2-0.2,0.4-0.5,0.4-0.8v-2.4c0-0.2,0-0.3-0.1-0.5
			c-0.1-0.1-0.1-0.3-0.3-0.4c-0.1-0.1-0.2-0.2-0.4-0.3s-0.3-0.1-0.5-0.1c-0.2,0-0.3,0-0.5,0.1c-0.1,0.1-0.3,0.2-0.4,0.3
			c-0.1,0.1-0.2,0.3-0.3,0.4c-0.1,0.1-0.1,0.3-0.1,0.5v2.4c0,0.2,0,0.3,0.1,0.5c0.1,0.1,0.2,0.3,0.3,0.4c0.1,0.1,0.2,0.2,0.4,0.3
			C133.2,98.4,133.4,98.4,133.6,98.4z"/>
		<path class="st8" d="M154.3,89.8c0.6,0.4,1.4,0.7,2.1,0.7c0.8,0.1,1.5,0.3,2.1,0.5c0.6,0.2,1.4,0.4,2.1,0.6
			c0.7,0.3,1.4,0.4,2.1,0.3c0.6-0.2,1.1-1.1,0.7-2.4c-0.3-0.9-0.8-1.6-1.5-2.2c-0.7-0.6-1.5-1-2.4-1.3c-0.9-0.2-1.8-0.3-2.6,0
			c-0.9,0.2-1.6,0.7-2.3,1.3C153.8,88.3,153.8,89.3,154.3,89.8z"/>
		<path class="st8" d="M128.1,92c0.8,0.1,1.6,0,2.3-0.3c0.8-0.3,1.6-0.5,2.3-0.6c0.7-0.2,1.5-0.3,2.3-0.4c0.8,0,1.5-0.3,2.1-0.7
			c0.5-0.5,0.5-1.5-0.6-2.6c-0.7-0.7-1.6-1.1-2.5-1.4c-0.9-0.3-1.9-0.3-2.9,0c-0.9,0.2-1.8,0.6-2.5,1.3c-0.7,0.6-1.2,1.5-1.5,2.4
			C126.9,90.9,127.4,91.7,128.1,92z"/>
		<path class="st4" d="M146.2,122.9l-2.8,0.2c-1.4,0-2.5-0.6-2.5-1.5l-0.3-6l15.3-0.7C156.4,123,151.8,122.6,146.2,122.9z"/>
		<path class="st8" d="M149.3,103H144c-0.6,0-1.2-0.2-1.7-0.4c-0.5-0.3-1-0.7-1.3-1.2c-0.3-0.5-0.5-1-0.6-1.6
			c-0.1-0.6,0-1.2,0.2-1.7l2.9-11.2c0-0.1,0-0.1,0.1-0.2c0-0.1,0.1-0.1,0.1-0.2c0.1,0,0.1-0.1,0.2-0.1c0.1,0,0.1,0,0.2,0
			c0.1,0,0.1,0.1,0.2,0.1c0.1,0,0.1,0.1,0.1,0.2c0,0.1,0.1,0.1,0.1,0.2c0,0.1,0,0.1,0,0.2l-2.9,11.2c-0.2,0.4-0.2,0.8-0.2,1.3
			c0,0.4,0.2,0.8,0.4,1.2c0.2,0.3,0.6,0.6,0.9,0.8c0.4,0.2,0.8,0.3,1.2,0.3h5.3c0.1,0,0.2,0.1,0.3,0.2c0.1,0.1,0.1,0.2,0.1,0.3
			s0,0.2-0.1,0.3C149.6,102.9,149.4,102.9,149.3,103z"/>
		<path class="st9" d="M155,187l-2.5-5l-3,5.8c-0.2,0.3-0.5,0.6-0.8,0.8c-0.3,0.2-0.7,0.3-1.1,0.3h-3.7c-0.3,0-0.7-0.1-1-0.2
			c-0.3-0.2-0.6-0.4-0.7-0.7l-3.8-6.4l-2.5,5l5.3,10l-5.6,65.9c0,0.2,0,0.4,0,0.6l8.9,24.2c0.1,0.3,0.3,0.5,0.5,0.6s0.5,0.2,0.8,0.2
			c0.3,0,0.6-0.1,0.8-0.2c0.2-0.2,0.4-0.4,0.5-0.6l8.3-24.2c0-0.2,0-0.4,0-0.5l-5-65.6c0-0.1,0.2-0.3,0.3-0.4L155,187z M150.4,225.3
			c0,0.1,0,0.2,0,0.3l-4,11.8c0,0.1-0.1,0.2-0.2,0.3c-0.1,0.1-0.2,0.1-0.4,0.1c-0.1,0-0.3,0-0.4-0.1c-0.1-0.1-0.2-0.2-0.2-0.3
			l-4.3-11.8c0-0.1,0-0.2,0-0.3l2.3-27.5h0.4h4.8L150.4,225.3z"/>
		<path class="st9" d="M148.2,197.8h-4.8H143l-2.3,27.5c0,0.1,0,0.2,0,0.3l4.3,11.8c0,0.1,0.1,0.2,0.2,0.3c0.1,0.1,0.2,0.1,0.4,0.1
			c0.1,0,0.3,0,0.4-0.1c0.1-0.1,0.2-0.2,0.2-0.3l4-11.8c0-0.1,0-0.2,0-0.3L148.2,197.8L148.2,197.8z"/>
		<path class="st10" d="M148.2,197.8h-4.8H143l-2.3,27.5c0,0.1,0,0.2,0,0.3l4.3,11.8c0,0.1,0.1,0.2,0.2,0.3c0.1,0.1,0.2,0.1,0.4,0.1
			c0.1,0,0.3,0,0.4-0.1c0.1-0.1,0.2-0.2,0.2-0.3l4-11.8c0-0.1,0-0.2,0-0.3L148.2,197.8L148.2,197.8z"/>
		<path class="st9" d="M138.4,181.5l3.8,6.4c0.2,0.3,0.4,0.5,0.7,0.7c0.3,0.2,0.7,0.3,1,0.2h3.7c0.4,0,0.7-0.1,1.1-0.3
			c0.3-0.2,0.6-0.5,0.8-0.8l3-5.8l-7.2-14.4L138.4,181.5z"/>
		<path class="st10" d="M138.4,181.5l3.8,6.4c0.2,0.3,0.4,0.5,0.7,0.7c0.3,0.2,0.7,0.3,1,0.2h3.7c0.4,0,0.7-0.1,1.1-0.3
			c0.3-0.2,0.6-0.5,0.8-0.8l3-5.8l-7.2-14.4L138.4,181.5z"/>
		<path class="st4" d="M172.7,143.6L145.3,166l-27.4-22.3l-13.7,20.5l30.2,25.1l1.4-2.8l2.5-5l6.9-13.9l7.2,14.4l2.5,5l1.1,2.3
			l30.2-25.1L172.7,143.6z"/>
		<path class="st5" d="M260.7,125.7c-0.5-0.3-1-0.4-1.6-0.4c-0.6,0-1.1,0.1-1.6,0.3c-0.5,0.2-1,0.5-1.4,0.9
			c-0.4,0.4-0.7,0.9-0.9,1.4c-1.1,2.7-2.3,5.4-3.3,8.1c0.4-0.9,2.8-21.1,2.9-23c0.4-1.7,0.3-3.5-0.2-5.1c-0.2-0.3-0.5-0.5-0.9-0.7
			c-0.3-0.2-0.7-0.2-1.1-0.2c-0.8-0.1-1.6,0-2.3,0.3c-0.6,0.4-1.1,1-1.4,1.7c-0.3,0.7-0.4,1.4-0.5,2.1c-1,6-2.1,12-2.9,18
			c0.2-8.3,1-16.4,1.5-24.7c0.2-1.3,0.1-2.6-0.3-3.9c-0.2-0.6-0.6-1.2-1-1.6c-0.5-0.4-1.1-0.7-1.7-0.8c-0.6,0-1.2,0.2-1.7,0.5
			c-0.5,0.3-0.9,0.8-1.2,1.3c-0.5,1.1-0.9,2.3-1,3.5c-0.5,3.8-1.1,7.6-1.6,11.3c-0.3,1.9-0.5,3.8-0.8,5.7l-0.4,2.8
			c0,0.9-0.2,1.8-0.5,2.7c-0.1-1.7,0-3.4,0.2-5.1c0-1.8,0.1-3.6,0.2-5.3l0.4-10.6c0.1-1.3,0-2.6-0.2-3.9c-0.2-1.3-0.8-2.5-1.7-3.4
			c-0.5-0.4-1-0.8-1.7-0.9c-0.6-0.2-1.3-0.1-1.9,0c-0.8,0.3-1.5,0.9-2,1.7c-0.4,0.8-0.8,1.6-1,2.5c-0.9,3.2-1.6,6.6-2,9.9
			c-0.5,3.5-1,7.1-1.4,10.6c-0.2,1.5-0.4,3.5-1.9,4.2c-0.3,0.1-0.6,0.2-1,0.2c-0.3,0-0.7-0.1-1-0.2c-0.3-0.1-0.6-0.3-0.8-0.6
			c-0.2-0.3-0.4-0.5-0.5-0.9c-0.7-2.4-1.2-4.8-1.9-7.2c-0.4-1.9-1.4-3.6-2.9-4.8c-0.7-0.5-1.4-0.7-2.3-0.8c-0.8-0.1-1.6,0-2.4,0.3
			c-0.8,0.3-1.4,0.8-2,1.4c-0.5,0.6-0.9,1.3-1.1,2.1c-0.2,1.1-0.2,2.2,0,3.3c1.2,11.7,2.3,23.3,3.4,35l36.1,8.8l12.9-30.4
			C262.3,127.8,261.8,126.4,260.7,125.7z"/>
		<path class="st6" d="M228,143.6c0.1,0,0.2-0.1,0.2-0.1c0.1-0.1,0.1-0.2,0.1-0.2c0.8-3.4,0.5-7-0.7-10.2s-3.4-6.1-6.2-8.2
			c-0.1-0.1-0.2-0.1-0.4,0c-0.1,0-0.2,0.1-0.3,0.2c0,0.1-0.1,0.1-0.1,0.2c0,0.1,0,0.1,0,0.2c0,0.1,0,0.1,0.1,0.2
			c0,0.1,0.1,0.1,0.1,0.1c2.7,1.9,4.8,4.6,5.9,7.7c1.2,3.1,1.4,6.5,0.6,9.7c0,0.1,0,0.3,0.1,0.4c0.1,0.1,0.2,0.2,0.3,0.2H228z"/>
		<path class="st3" d="M209.5,153.1c-0.8-0.2-1.6-0.2-2.4-0.1c-0.8,0.1-1.5,0.4-2.2,0.9c-0.7,0.4-1.2,1-1.6,1.7
			c-0.4,0.7-0.7,1.4-0.8,2.2l-12.6,84.5v1.7c0,32.7,47.8,35.8,52.2,3.4l10.5-78.6c0.2-1.4-0.1-2.9-0.9-4.1c-0.8-1.2-2-2-3.4-2.4
			h-0.5l-36.2-8.8L209.5,153.1z"/>
		<path class="st11" d="M249.9,183.7c0.2,0,0.4-0.1,0.6-0.3c0.2-0.1,0.3-0.3,0.3-0.5c0-0.1,0-0.3,0-0.4c0-0.1-0.1-0.3-0.1-0.4
			c-0.1-0.1-0.2-0.2-0.3-0.3c-0.1-0.1-0.2-0.1-0.4-0.2l-39.7-9.2l-2.3-11.6c0-0.1-0.1-0.3-0.2-0.4c-0.1-0.1-0.2-0.2-0.3-0.3
			c-0.1-0.1-0.2-0.1-0.4-0.2c-0.1,0-0.3,0-0.4,0c-0.3,0.1-0.5,0.2-0.7,0.4c-0.2,0.2-0.2,0.5-0.2,0.8l2.3,11.6
			c0.1,0.4,0.3,0.8,0.6,1.1s0.7,0.5,1.1,0.6l39.8,9.2C249.7,183.8,249.8,183.7,249.9,183.7z"/>
		<path class="st11" d="M215.5,169.2c-0.9-0.2-1.7-0.8-2.2-1.6c-0.5-0.8-0.7-1.8-0.5-2.7c0.2-0.6,0.5-1.2,0.9-1.7
			c0.5-0.5,1-0.8,1.7-1c0.6-0.2,1.3-0.2,1.9,0c0.6,0.2,1.2,0.5,1.6,1s0.7,1.1,0.9,1.7c0.1,0.6,0.1,1.3-0.2,1.9
			c-0.2,0.6-0.6,1.2-1.1,1.6c-0.5,0.4-1.1,0.7-1.8,0.8C216.4,169.4,216,169.4,215.5,169.2z M214.8,165.3c-0.1,0.4,0,0.8,0.2,1.1
			c0.2,0.3,0.6,0.6,1,0.7c0.4,0.1,0.8,0,1.1-0.2c0.3-0.2,0.6-0.5,0.7-0.9c0.1-0.4,0-0.8-0.2-1.2c-0.2-0.4-0.6-0.6-1-0.7
			c-0.2,0-0.4,0-0.6,0c-0.3,0-0.6,0.2-0.8,0.4C215.1,164.8,214.9,165,214.8,165.3z"/>
		<path class="st12" d="M47,46.1c8.4,0,16.7,2.3,23.9,6.6s13.2,10.6,17.1,18s5.8,15.8,5.4,24.3c-0.4,8.4-3.2,16.6-7.9,23.6
			c0,0.1,0.3,1.6,0.5,2.5c1.3,5.7,4.3,10.9,8.6,14.8c4.2,3.5-8.2,6.3-17.2,0.4c-1.9-1.3-3.6-2.9-4.9-4.8c-6.1,4-13,6.5-20.1,7.3
			c-7.2,0.8-14.5,0-21.3-2.5c-6.8-2.5-12.9-6.5-17.9-11.8c-5-5.3-8.6-11.6-10.7-18.6C0.5,99,0.1,91.7,1.3,84.5
			c1.3-7.1,4.2-13.9,8.5-19.7c4.3-5.8,9.9-10.5,16.4-13.8c6.5-3.3,13.6-4.9,20.9-4.9L47,46.1z"/>
	</g>
</g>
<g>
	<path class="st4" d="M28.5,82.6c0.2,0,0.3,0.1,0.4,0.2c0.1,0.1,0.2,0.3,0.2,0.4v14.2c0,0.2-0.1,0.3-0.2,0.4
		c-0.1,0.1-0.3,0.2-0.4,0.2h-2.9c-0.2,0-0.3-0.1-0.4-0.2c-0.1-0.1-0.2-0.3-0.2-0.4V92h-4.9v5.4c0,0.2-0.1,0.3-0.2,0.4
		c-0.1,0.1-0.3,0.2-0.4,0.2h-2.9c-0.2,0-0.3-0.1-0.4-0.2s-0.2-0.3-0.2-0.4V83.2c0-0.2,0.1-0.3,0.2-0.4c0.1-0.1,0.3-0.2,0.4-0.2h2.9
		c0.2,0,0.3,0.1,0.4,0.2c0.1,0.1,0.2,0.3,0.2,0.4v5.3H25v-5.3c0-0.2,0.1-0.3,0.2-0.4c0.1-0.1,0.3-0.2,0.4-0.2H28.5z"/>
	<path class="st4" d="M35.3,93.5c0,0.3,0.1,0.6,0.2,0.8c0.1,0.2,0.3,0.4,0.5,0.5c0.2,0.1,0.4,0.2,0.6,0.3c0.2,0.1,0.5,0.1,0.7,0.1
		c0.4,0,0.8,0,1-0.1c0.3-0.1,0.5-0.2,0.6-0.4c0.2-0.1,0.3-0.2,0.4-0.3s0.2-0.1,0.4-0.1h2.9c0.3,0,0.5,0.2,0.5,0.5
		c0,0.2-0.1,0.4-0.3,0.8c-0.2,0.4-0.6,0.7-1,1.1c-0.5,0.4-1.1,0.7-1.8,1c-0.7,0.3-1.6,0.4-2.6,0.4c-1,0-1.8-0.1-2.5-0.4
		c-0.7-0.3-1.4-0.7-1.9-1.2c-0.5-0.5-0.9-1.1-1.1-1.9s-0.4-1.6-0.4-2.5c0-0.9,0.1-1.6,0.4-2.4s0.6-1.4,1.1-1.9
		c0.5-0.5,1.1-0.9,1.9-1.2c0.7-0.3,1.6-0.5,2.5-0.5c1.1,0,2,0.2,2.7,0.5c0.8,0.4,1.4,0.8,1.8,1.4c0.5,0.6,0.8,1.2,1,1.9
		c0.2,0.7,0.3,1.4,0.3,2.1v0.6c0,0.2-0.1,0.3-0.2,0.4c-0.1,0.1-0.3,0.2-0.4,0.2H35.3z M37.2,89.3c-0.6,0-1.1,0.2-1.4,0.5
		c-0.3,0.4-0.5,0.8-0.6,1.2h4c-0.1-0.5-0.2-0.9-0.6-1.2C38.3,89.5,37.9,89.3,37.2,89.3z"/>
	<path class="st4" d="M49.1,97.4c0,0.2-0.1,0.3-0.2,0.4c-0.1,0.1-0.3,0.2-0.4,0.2h-2.8c-0.2,0-0.3-0.1-0.4-0.2
		c-0.1-0.1-0.2-0.3-0.2-0.4V82.9c0-0.2,0.1-0.3,0.2-0.4c0.1-0.1,0.3-0.2,0.4-0.2h2.8c0.2,0,0.3,0.1,0.4,0.2c0.1,0.1,0.2,0.3,0.2,0.4
		V97.4z"/>
	<path class="st4" d="M55.6,97.4c0,0.2-0.1,0.3-0.2,0.4c-0.1,0.1-0.3,0.2-0.4,0.2h-2.8c-0.2,0-0.3-0.1-0.4-0.2
		c-0.1-0.1-0.2-0.3-0.2-0.4V82.9c0-0.2,0.1-0.3,0.2-0.4c0.1-0.1,0.3-0.2,0.4-0.2h2.8c0.2,0,0.3,0.1,0.4,0.2c0.1,0.1,0.2,0.3,0.2,0.4
		V97.4z"/>
	<path class="st4" d="M69.7,91.4c0,0.2,0,0.5,0,0.8c0,0.3,0,0.6,0,0.8c0,0.7-0.2,1.4-0.5,2c-0.3,0.6-0.7,1.2-1.2,1.6
		c-0.5,0.5-1.1,0.8-1.9,1.1c-0.7,0.3-1.5,0.4-2.4,0.4s-1.7-0.1-2.4-0.4c-0.7-0.3-1.3-0.6-1.9-1.1s-0.9-1-1.2-1.6
		c-0.3-0.6-0.5-1.3-0.5-2c0-0.2,0-0.5,0-0.8c0-0.3,0-0.6,0-0.8c0-0.7,0.2-1.4,0.5-2c0.3-0.6,0.7-1.2,1.2-1.6
		c0.5-0.5,1.1-0.8,1.9-1.1c0.7-0.3,1.5-0.4,2.4-0.4s1.7,0.1,2.4,0.4s1.3,0.6,1.9,1.1c0.5,0.5,0.9,1,1.2,1.6
		C69.5,90,69.7,90.7,69.7,91.4z M61.7,93c0,0.6,0.2,1,0.6,1.3c0.4,0.3,0.8,0.5,1.4,0.5s1.1-0.2,1.4-0.5c0.4-0.3,0.6-0.8,0.6-1.3
		c0-0.2,0-0.5,0-0.7c0-0.3,0-0.5,0-0.7c0-0.6-0.2-1-0.6-1.3s-0.8-0.5-1.4-0.5s-1.1,0.2-1.4,0.5s-0.6,0.8-0.6,1.3c0,0.2,0,0.5,0,0.7
		C61.6,92.5,61.6,92.8,61.7,93z"/>
	<path class="st4" d="M75.8,92.6c0,0.2-0.1,0.3-0.2,0.4c-0.1,0.1-0.3,0.2-0.4,0.2h-2.8c-0.2,0-0.3-0.1-0.4-0.2
		c-0.1-0.1-0.2-0.3-0.2-0.4v-9.5c0-0.2,0.1-0.3,0.2-0.4c0.1-0.1,0.3-0.2,0.4-0.2h2.8c0.2,0,0.3,0.1,0.4,0.2c0.1,0.1,0.2,0.3,0.2,0.4
		V92.6z M75.8,97.4c0,0.2-0.1,0.3-0.2,0.4c-0.1,0.1-0.3,0.2-0.4,0.2h-2.8c-0.2,0-0.3-0.1-0.4-0.2c-0.1-0.1-0.2-0.3-0.2-0.4v-2.2
		c0-0.2,0.1-0.3,0.2-0.4c0.1-0.1,0.3-0.2,0.4-0.2h2.8c0.2,0,0.3,0.1,0.4,0.2c0.1,0.1,0.2,0.3,0.2,0.4V97.4z"/>
</g>
</svg>
