<svg width="558" height="287" fill="none" xmlns="http://www.w3.org/2000/svg">
  <path fill-rule="evenodd" clip-rule="evenodd" d="M1 11.39v.89l13.22 7.48c.31.17.6.4 1.08.73l-1.34.77L1 28.56v.91l13.08-7.74 1.46-.84c.05.62.1 1.03.09 1.43-.08 7.32-.19 14.63-.22 21.94a2.15 2.15 0 01-1.23 2.11L1 54.11v.57c4.51-2.53 9.03-5.06 13.54-7.62a2.16 2.16 0 012.45 0c6.36 3.66 12.78 7.26 19.19 10.89.32.18.62.4 1.16.75l-2.9 1.66-17.42 9.8a2.14 2.14 0 01-2.45 0L1.03 62.42v.76c5.5 3.15 12.42 7.28 14.28 8.6l.22 24.44c-.71-.15-8.45-4.55-14.51-8.16v.79l12.82 7.22c.4.23.77.48 1.3.82-.48.33-.8.58-1.15.77l-13 7.3v.79c4.3-2.52 8.6-5.06 12.87-7.6l1.48-.85c0 .61.1 1.02.1 1.42-.08 7.36-.19 14.72-.25 22.08a1.85 1.85 0 01-.97 1.85C9.8 125.22 5.4 127.83.98 130.4v.74c4.52-2.54 9.03-5.06 13.54-7.62a1.93 1.93 0 012.2 0c6.43 3.68 12.89 7.3 19.35 10.95.32.19.61.4 1.05.68-.42.28-.7.51-.97.68-6.54 3.63-13.06 7.27-19.55 10.93a1.73 1.73 0 01-1.94 0c-4.54-2.6-9.08-5.16-13.64-7.74v.7c4.41 2.58 8.82 5.19 13.23 7.82a1.49 1.49 0 01.87 1.45c0 7.65.13 15.3.2 22.96 0 .18 0 .36-.08.88l-14.22-8.43v.86l13.05 7.44c.3.2.59.4.86.63-.47.3-.8.54-1.15.74L1 181.21v.85l9.34-5.47c1.54-.91 3.1-1.8 4.9-2.83 0 .65.06 1.1.05 1.56-.08 7.27-.18 14.51-.23 21.82a2.14 2.14 0 01-1.22 2.12c-4.28 2.5-8.56 5.01-12.84 7.55v.53c4.52-2.54 9.04-5.06 13.54-7.62a1.54 1.54 0 011.7-.07 3316 3316 0 0020.08 11.41c.22.15.42.32.62.5l-1.4.8c-6.28 3.54-12.57 7.05-18.86 10.64a2.25 2.25 0 01-2.58 0c-4.34-2.5-8.7-4.97-13.1-7.44v.7l12.9 7.63a1.72 1.72 0 011.08 1.6c0 7.6.12 15.2.18 22.8 0 .24 0 .47-.05.84a5.3 5.3 0 01-.91-.3L1 241v.88l12.63 7.14c.36.2.7.45 1.2.79l-1.37.78-12.45 7v.73l13.2-7.74c.2-.11.43-.17.84-.35 0 .57.06.97.06 1.31-.1 7.42-.19 14.83-.26 22.25a1.71 1.71 0 01-.9 1.73c-4.31 2.52-8.63 5.05-12.94 7.6v.64l13.27-7.48a1.65 1.65 0 011.84-.1c6.3 3.6 12.58 7.14 18.92 10.71h1.28c-3.87-1.93-18.48-10.56-20.53-12.08l-.22-24.44c1.12.28 19.15 10.82 21.4 12.48l.22 24.04h.49v-.92c.08-7.27.19-14.51.22-21.81a2.26 2.26 0 011.32-2.22c6.28-3.66 12.57-7.37 18.81-11.06.35-.2.73-.37 1.26-.64 0 .6.08 1.06.07 1.51-.08 7.27-.19 14.51-.23 21.81a2.17 2.17 0 01-1.2 2.15c-6.28 3.65-12.57 7.38-18.8 11.08l-.18.1h.65l18.82-10.58a1.85 1.85 0 012.08-.08c6.25 3.58 12.53 7.11 18.8 10.64h.97l-20.3-11.99c-.08-8.17-.16-16.32-.22-24.5 1.1.3 19.57 11.12 21.34 12.48l.22 24h.48a2.7 2.7 0 01-.05-.6c.07-7.51.15-15.02.24-22.51a1.51 1.51 0 01.76-1.52c4.15-2.43 8.3-4.87 12.43-7.32l5.5-3.25 1.8-1.07c.16-.09.35-.17.55-.27l.19-.07c.06.36.1.71.1 1.07-.08 7.45-.17 14.9-.23 22.36a1.71 1.71 0 01-.97 1.72l-7.13 4.19v.07l-12.2 7.2h.97l11.97-6.73 6.86-3.87a2.92 2.92 0 01.61-.26h.06c.22-.05.44-.05.65 0 .17.05.33.12.48.2 6.27 3.58 12.58 7.11 18.81 10.64h1.17c-6.45-3.81-12.9-7.64-19.35-11.47a1.39 1.39 0 01-.83-1.33c-.04-7.74-.1-15.48-.18-23.22l.08-.58c.44.22.79.38 1.1.57l19.01 11.26a1.68 1.68 0 011.08 1.6c0 7.6.12 15.21.19 22.8v.4h.68c-.04-.2-.06-.4-.06-.59l.24-22.5a1.54 1.54 0 01.77-1.52 1798.2 1798.2 0 0019.96-11.75l.33-.14.18-.07c0 .48.06.84.05 1.2-.07 7.4-.17 14.8-.24 22.24a1.72 1.72 0 01-.89 1.75c-6.45 3.77-12.9 7.58-19.35 11.41h.85c6.23-3.51 12.47-7 18.7-10.53a2.3 2.3 0 011.8-.27c.13.05.26.1.38.18 6.23 3.56 12.5 7.08 18.76 10.64h1.43c-3.49-1.72-17.16-9.67-20.59-12.07l-.2-24.32c.65.24 2.9 1.45 5.75 3.06l13.37 7.91c.77.5 1.44.92 1.93 1.27l.23 24.08h.64a5.61 5.61 0 01-.05-.65c.07-7.45.17-14.91.24-22.37a1.94 1.94 0 01.52-1.44l.24-.2.28-.18a3328.9 3328.9 0 0016.26-9.53c.97-.55 1.86-1.13 2.8-1.69.3-.18.65-.33 1.08-.54h.07c0 .53.06.9.06 1.25-.09 7.42-.18 14.83-.25 22.25a1.72 1.72 0 01-.9 1.74c-6.47 3.77-12.93 7.6-19.35 11.4h1.02l18.83-10.64.42-.2h.1l.21-.05c.16-.03.32-.03.48 0 .17.04.33.11.49.2 6.3 3.6 12.57 7.14 18.91 10.71h1.41c-1.6-.82-5.07-2.79-8.7-4.91l-5.8-3.44a165.54 165.54 0 01-5.54-3.41 1.86 1.86 0 01-.45-.88l-.21-23.5v-.31c.97.38 4.7 2.51 8.83 4.91l3.18 1.89c4.26 2.51 8.24 4.92 9.23 5.65.06 7.96.13 15.97.22 24.04h.63v-.92c.07-7.28.2-14.51.22-21.82a2.24 2.24 0 011.32-2.21c6.28-3.66 12.57-7.37 18.81-11.06.32-.18.66-.35 1.12-.57 0 .57.07.97.06 1.44-.07 7.27-.18 14.51-.22 21.8a2.18 2.18 0 01-1.2 2.16c-6.29 3.65-12.58 7.38-18.8 11.07l-.18.11h.7c6.29-3.52 12.56-7.05 18.83-10.58.3-.19.63-.3.97-.35.34 0 .68.1.97.27 6.25 3.58 12.53 7.1 18.8 10.64h1.07l-20.2-11.98c-.08-8.15-.16-16.28-.22-24.44 2.04.79 19.45 11 21.2 12.35l.23 24h.64c-.03-.2-.05-.4-.05-.6l.25-22.51a1.51 1.51 0 01.76-1.52c6.68-3.92 13.34-7.85 20-11.78.15-.07.3-.14.47-.19 0 .47.06.82.05 1.16-.07 7.42-.17 14.82-.23 22.26a1.84 1.84 0 01-.97 1.81c-6.46 3.78-12.9 7.59-19.35 11.38h1.14l18.78-10.56c.3-.18.63-.29.97-.32.3 0 .6.1.85.25 6.25 3.56 12.5 7.1 18.77 10.64h1.09l-19.28-11.4a1.52 1.52 0 01-.96-1.43c-.05-7.69-.13-15.38-.19-23.08 0-.16 0-.35.08-.72.51.27.9.47 1.26.69 6.26 3.7 12.5 7.42 18.77 11.1a2.04 2.04 0 011.17 1.99c0 7.32.11 14.63.18 21.95v.9h.68a4.3 4.3 0 01-.05-.6l.25-22.36a1.61 1.61 0 01.8-1.64 2702.9 2702.9 0 0019.88-11.7c.18-.1.37-.18.56-.25 0 .47.06.78.06 1.1-.1 7.45-.19 14.9-.25 22.35a1.71 1.71 0 01-.97 1.72c-6.46 3.78-12.89 7.59-19.35 11.38h.85c6.18-3.47 12.37-6.94 18.54-10.45.41-.26.89-.4 1.38-.42.42.04.82.17 1.18.4 6.13 3.53 12.3 6.99 18.47 10.47h1.42c-3.65-1.84-17.6-10-20.53-12.05l-.23-24.35c1.16.5 2.3 1.08 3.4 1.72l17.54 10.39.27.18.22 24.11h.65a1.92 1.92 0 01-.06-.4c.08-7.6.17-15.21.23-22.82a1.76 1.76 0 011.1-1.62c5.41-3.16 10.83-6.34 16.25-9.53.97-.55 1.86-1.14 2.8-1.69.3-.18.65-.34 1.09-.55 0 .53.07.97.06 1.32-.07 7.36-.17 14.73-.24 22.1.03.4-.05.82-.23 1.2-.07.1-.15.2-.24.29-.09.06-.17.14-.28.2h-.06c-6.5 3.8-12.95 7.62-19.43 11.44h1.03l18.88-10.65c.25-.16.54-.25.85-.29.25.01.5.08.71.2l11.56 6.56v-.05l7.46 4.21h1.27c-1.58-.8-4.97-2.73-8.58-4.83v-.09l-10.2-6-.72-.46a2.1 2.1 0 01-.97-1.94c0-7.27-.12-14.51-.18-21.82 0-.4 0-.8.06-1.3.56.24 2.2 1.13 4.34 2.33l7.52 4.47v-.09l.15.1a188.3 188.3 0 019.22 5.64l.22 24.04h.5v-.92c.07-7.27.19-14.5.22-21.81a2.23 2.23 0 011.31-2.22c6.3-3.66 12.58-7.37 18.82-11.06.35-.2.73-.36 1.26-.63 0 .6.07 1.05.07 1.5-.08 7.27-.19 14.52-.24 21.81a2.17 2.17 0 01-1.19 2.15c-6.28 3.66-12.57 7.38-18.8 11.08l-.18.1h.64l18.83-10.58a1.84 1.84 0 012.07-.08c6.26 3.58 12.58 7.11 18.8 10.64h.97l-20.2-11.97-.22-24.51c1.11.3 19.57 11.12 21.34 12.48l.22 24h.5l-.05-.6.25-22.5a1.51 1.51 0 01.77-1.53l20-11.78c.12-.07.26-.1.6-.24 0 .5.07.88.06 1.23-.08 7.41-.18 14.82-.24 22.26a1.83 1.83 0 01-.97 1.81c-6.46 3.78-12.9 7.59-19.35 11.38h.97l18.79-10.56a1.73 1.73 0 011.93-.07c6.25 3.56 12.5 7.1 18.77 10.64h.97c-6.45-3.8-12.87-7.6-19.27-11.4a1.53 1.53 0 01-.97-1.43c0-7.69-.13-15.38-.18-23.08 0-.18 0-.36.08-.78.58.3.97.5 1.4.75 6.26 3.7 12.5 7.42 18.77 11.1a2.05 2.05 0 011.17 1.99c0 7.32.11 14.63.17 21.95v.9h.53a4.3 4.3 0 01-.05-.6c.1-7.45.18-14.9.26-22.36a1.61 1.61 0 01.79-1.64 2738.7 2738.7 0 0019.88-11.7c.17-.1.35-.15.7-.3 0 .5.07.82.06 1.14-.08 7.46-.19 14.91-.25 22.36a1.74 1.74 0 01-.96 1.73c-6.46 3.77-12.89 7.58-19.35 11.37h.7c6.19-3.47 12.38-6.93 18.54-10.45a2.39 2.39 0 012.71 0c6.13 3.53 12.3 7 18.47 10.48h1.28c-3.65-1.84-17.61-10-20.53-12.05l-.24-24.72 21.36 12.64c.06 8.03.13 16.08.22 24.13h.5a2 2 0 01-.06-.4c.08-7.6.19-15.21.24-22.82a1.76 1.76 0 011.09-1.62c5.43-3.16 10.85-6.34 16.25-9.53.97-.55 1.86-1.13 2.8-1.69.35-.2.72-.36 1.23-.6 0 .56.08.96.08 1.37l-.25 22.1a1.75 1.75 0 01-.83 1.77c-6.49 3.78-12.95 7.61-19.42 11.42h.88l18.88-10.64a1.53 1.53 0 011.7-.09l11.6 6.56v-.76c-3.54-2.11-7.1-4.21-10.64-6.3a2.13 2.13 0 01-1.2-2.12c0-7.27-.12-14.51-.17-21.83 0-.45 0-.9.06-1.5.52.26.9.42 1.24.63l10.76 6.38v-.82l-11.04-6.24c-.16-.1-.3-.23-.6-.43.28-.24.56-.47.86-.68l10.78-6.05v-.7l-11.36 6.7c-.19.08-.39.15-.59.2 0-.5-.05-.87-.05-1.24.07-7.4.18-14.81.24-22.25a1.73 1.73 0 01.9-1.73c3.63-2.12 7.25-4.25 10.86-6.39v-.8L546.81 223a2.22 2.22 0 01-2.57 0c-6.31-3.62-12.65-7.17-18.97-10.76-.37-.2-.7-.44-1.19-.75.27-.22.55-.42.84-.6l19.75-11.11a1.64 1.64 0 011.83 0l11.25 6.38v-.76l-11.6-6.9-.23-24.82 11.88 7.04v-.81l-10.64-5.96c-.27-.17-.52-.37-1.02-.7l1.3-.75 10.26-5.8v-.8l-10.2 6.03-1.58.91c0-.67-.09-1.08-.08-1.49.08-7.32.19-14.63.23-21.95a2.16 2.16 0 011.22-2.13c3.49-2.02 6.96-4.06 10.41-6.11v-.58l-11 6.18a1.72 1.72 0 01-1.93.07c-6.56-3.75-13.14-7.44-19.71-11.16-.24-.13-.44-.3-.81-.56.43-.29.74-.54 1.1-.73l19.34-10.9a1.72 1.72 0 011.94-.07c3.67 2.1 7.36 4.18 11.04 6.27v-.71c-3.52-2.1-7.03-4.18-10.56-6.25a1.73 1.73 0 01-.97-1.69c0-7.44-.12-14.9-.18-22.36 0-.36 0-.72.08-1.25.54.28.97.46 1.34.7l10.3 6.08v-.8l-10.13-5.78c-.36-.2-.71-.44-1.2-.75.35-.25.58-.46.85-.61l10.47-5.9v-.66l-10.16 6.02-1.36.77c-.07-.41-.12-.82-.14-1.24.08-7.46.18-14.92.25-22.39a1.73 1.73 0 01.89-1.73c3.5-2.05 7.02-4.11 10.52-6.18v-.73c-3.6 2.04-7.22 4.06-10.83 6.1a1.75 1.75 0 01-1.94 0c-6.56-3.74-13.13-7.44-19.71-11.17-.25-.13-.46-.3-.87-.59.5-.31.8-.54 1.13-.72 6.3-3.54 12.57-7.06 18.88-10.64a2.55 2.55 0 012.95 0c3.47 1.99 6.94 3.97 10.41 5.93v-.78l-11.3-6.7-.23-24.46c.69.13 6.14 3.2 11.53 6.35v-.67l-10.32-5.8c-.24-.14-.44-.32-.8-.56.33-.23.52-.4.74-.53l10.38-5.8v-.82l-10.15 5.89-1.21.7a6.48 6.48 0 01-.18-1.01l.2-17.94h-.82l.18 19.1-21.35-12.66-.05-6.44h-.8v5.3a1.85 1.85 0 01-.98 1.81c-6.44 3.76-12.85 7.58-19.28 11.38-.28.16-.58.29-.96.48-.1-.26-.16-.53-.2-.81L502.3 1h-.82l.18 19.14-21.5-12.69L480.1 1h-.8l-.06 5.4a1.5 1.5 0 01-.77 1.52c-6.67 3.94-13.35 7.87-20.02 11.78-.2.08-.4.15-.6.2 0-.57-.05-.96-.05-1.4L458 1h-.82l.18 19c-.63-.34-1.05-.53-1.44-.76-6.26-3.71-12.5-7.43-18.79-11.11a2.05 2.05 0 01-1.16-2.03V.97h-.78l-.06 5.3a1.72 1.72 0 01-.95 1.76c-6.56 3.83-13.1 7.7-19.64 11.61-.25.14-.52.27-.79.38 0-.48-.1-.88-.09-1.28l.2-17.67h-.82c.04 5.95.1 11.89.16 17.82 0 .32-.05.64-.09 1.18-.58-.31-.97-.5-1.31-.7-6.3-3.74-12.59-7.47-18.89-11.18a1.93 1.93 0 01-1.14-1.88V1.07h-.8l-.05 5.24a1.7 1.7 0 01-.91 1.72c-6.37 3.72-12.72 7.46-19.07 11.22l-.1.06-.54.31-.58.27c-.08-.29-.12-.59-.15-.89l.2-17.93h-.97l.16 19-21.2-12.57-.05-6.44h-.97c0 1.77 0 3.52-.05 5.29a1.85 1.85 0 01-.96 1.82c-6.45 3.76-12.88 7.55-19.27 11.36l-.88.43a3.03 3.03 0 01-.17-.74l.2-18.16h-.98l.18 19.06-21.29-12.58-.05-6.45h-.97c0 1.8-.05 3.6-.06 5.4 0 .33-.07.66-.23.96-.06.1-.13.2-.2.27l-.12.09-.28.21a11059 11059 0 00-19.73 11.61l-.46.23-.23.06c0-.54-.05-.96-.05-1.35.06-5.8.14-11.67.19-17.5h-.97c.05 6.19.1 12.39.17 18.7v.21c-.54-.28-.97-.46-1.28-.68-6.26-3.7-12.51-7.43-18.79-11.1a2.03 2.03 0 01-1.1-2.1V.97h-.91c0 1.77-.05 3.53-.06 5.3a1.72 1.72 0 01-.95 1.76c-6.56 3.83-13.1 7.7-19.65 11.61-.2.12-.42.23-.64.32 0-.46-.1-.84-.1-1.22l.2-17.67h-.97l.16 17.82c0 .3 0 .6-.08 1.11-.5-.27-.85-.44-1.18-.64-6.28-3.78-12.58-7.53-18.9-11.24a1.94 1.94 0 01-1.15-1.88V1h-.96c0 1.75-.05 3.5-.06 5.24a1.74 1.74 0 01-.91 1.72c-6.57 3.87-13.11 7.74-19.65 11.56-.2.11-.42.22-.64.3 0-.1 0-.19-.07-.27v-.97l.19-17.61h-.97l.17 19-21.2-12.59-.06-6.42H170v5.2a1.94 1.94 0 01-1.06 1.94c-6.4 3.75-12.8 7.51-19.17 11.3-.27.16-.56.28-.97.47 0-.11-.06-.2-.08-.3v-.97c.06-5.88.14-11.75.19-17.63h-.97c0 6.27.1 12.58.17 19.03L126.82 7.42 126.76 1h-.96l-.06 5.3a1.71 1.71 0 01-.97 1.7c-6.45 3.8-12.92 7.6-19.4 11.43-.24.14-.51.26-.87.43 0-.5-.1-.9-.09-1.28.06-5.8.14-11.72.19-17.58h-.97l.14 17.25v1.66l-.16-.07-8.4-5.03c-3.79-2.2-7.6-4.43-11.43-6.67a2.05 2.05 0 01-1.16-2.03V.97h-.83v5.32a1.72 1.72 0 01-.96 1.74c-6.57 3.87-13.1 7.74-19.65 11.61-.26.14-.52.27-.8.38 0-.48-.1-.88-.08-1.28l.19-17.67h-.81l.15 17.82c0 .32 0 .64-.07 1.18l-1.33-.7A2463.6 2463.6 0 0039.55 8.11a1.93 1.93 0 01-1.13-1.88V1h-.8c0 1.75 0 3.5-.04 5.24a1.74 1.74 0 01-.9 1.72c-6.62 3.84-13.16 7.7-19.7 11.56-.21.12-.43.2-.83.4 0-.59-.07-.97-.06-1.31L16.3 1h-.82l.18 19.08L1 11.39zm15.19 61.22a1.72 1.72 0 011.11-1.6l15.4-9.04c1.54-.91 3.1-1.79 4.84-2.8 0 .56.08.97.08 1.28-.09 7.41-.18 14.83-.24 22.25a1.84 1.84 0 01-.97 1.82c-6.44 3.77-12.87 7.56-19.3 11.36-.27.17-.57.3-.96.5-.1-.26-.16-.54-.2-.82.06-7.65.18-15.3.24-22.95zm86.36-1.56a1.71 1.71 0 01.97 1.66c0 7.5.12 15 .18 22.51 0 .3 0 .61-.07 1.1-.45-.23-.76-.38-1.05-.55l-7.42-4.4A2759.8 2759.8 0 0083.6 84.6a2.13 2.13 0 01-1.2-2.07c0-7.28-.1-14.51-.16-21.8 0-.46 0-.93.05-1.55.47.23.81.35 1.11.54l11.61 6.9 7.53 4.43zm399.14 102.71c.55.3.96.48 1.35.72 6.26 3.7 12.51 7.43 18.79 11.1a2.12 2.12 0 011.22 2.11c0 7.27.11 14.52.17 21.83 0 .46 0 .91-.06 1.53-.56-.29-.96-.47-1.36-.72-6.26-3.7-12.5-7.43-18.79-11.1a2.12 2.12 0 01-1.2-2.11c0-7.28-.12-14.51-.18-21.83-.03-.45.06-.85.06-1.53zm0-2.08l.24-22.5a1.52 1.52 0 01.77-1.51c6.68-3.92 13.35-7.85 20-11.78.2-.1.4-.17.6-.24 0 .52.07.88.07 1.24-.09 7.41-.19 14.82-.25 22.26a1.7 1.7 0 01-.88 1.73l-19.66 11.6c-.25.15-.5.28-.77.4-.06-.4-.1-.8-.12-1.2zm20.88 13.33c-6.56-3.75-13.14-7.45-19.71-11.17-.25-.13-.47-.3-.83-.55.31-.25.64-.48.97-.7 6.46-3.63 12.94-7.25 19.35-10.91a1.94 1.94 0 012.2-.06c6.48 3.7 13 7.36 19.48 11.04.28.16.54.35 1.06.7-.61.35-.97.59-1.42.81l-19 10.7a1.86 1.86 0 01-2.12.14h.02zm-.06-76.52c-6.35-3.64-12.74-7.22-19.1-10.83-.37-.2-.7-.44-1.18-.75.3-.25.63-.48.96-.7 6.47-3.64 12.94-7.26 19.35-10.91a1.94 1.94 0 012.2 0c6.43 3.68 12.9 7.31 19.35 10.96.32.18.62.4 1.17.77l-1.43.82c-6.3 3.55-12.58 7.06-18.9 10.65a2.16 2.16 0 01-2.44-.01h.02zm.75-25.8a1.7 1.7 0 01-.87 1.73l-19.67 11.6c-.2.12-.42.2-.75.37a7.7 7.7 0 01-.14-1.13c.08-7.46.19-14.93.23-22.39a1.93 1.93 0 011.13-1.93c6.45-3.76 12.86-7.58 19.3-11.36.31-.17.63-.32.96-.45 0 .57.07.96.07 1.3-.1 7.42-.2 14.84-.28 22.25h.02zm-.1 27.34l.23 24.69-21.36-12.65c-.06-8.16-.13-16.32-.22-24.48 1.07.24 19.02 10.71 21.33 12.44h.02zm-20.85 13.25c6.68 3.8 13.36 7.58 20.05 11.37.16.1.28.22.63.5l-1.38.8c-6.3 3.54-12.58 7.05-18.87 10.64a2.26 2.26 0 01-2.58 0c-6.3-3.62-12.64-7.17-18.97-10.75-.35-.2-.7-.45-1.19-.76.27-.22.55-.42.84-.6l19.75-11.1a1.52 1.52 0 011.7-.1h.01zm-44.79 50.44c7.24 4.24 14.22 8.42 21.28 12.58l.23 24.77-1.54-.86c-6.17-3.67-12.35-7.34-18.54-10.96a2.23 2.23 0 01-1.31-2.2c0-7.19-.11-14.37-.17-21.55l.03-1.78h.02zm0-2.36l.24-22.07a1.72 1.72 0 01.88-1.75c6.6-3.86 13.18-7.73 19.77-11.6.2-.12.4-.22.62-.3.09.31.15.63.17.96l-.24 22.79a1.53 1.53 0 01-.87 1.46l-19.65 11.6c-.23.14-.49.23-.85.4-.09-.66-.13-1.08-.13-1.49h.06zm20.68 13.55c-6.35-3.63-12.73-7.2-19.1-10.8l-1.18-.76c.43-.3.74-.55 1.09-.75l19.35-10.9a1.74 1.74 0 011.93-.08c6.55 3.75 13.14 7.45 19.71 11.17.23.13.45.3.9.62l-1.3.74c-6.38 3.59-12.77 7.15-19.12 10.77a2.04 2.04 0 01-2.34-.03l.06.02zm1.55 2.57a1.93 1.93 0 011.13-1.93c6.45-3.77 12.86-7.57 19.3-11.35.23-.15.5-.24.96-.46 0 .57.07.97.07 1.31-.08 7.41-.18 14.82-.23 22.25a1.83 1.83 0 01-1.02 1.81c-6.44 3.76-12.85 7.58-19.29 11.36-.27.16-.57.3-1.03.53 0-.51-.11-.9-.11-1.3.02-7.4.12-14.83.17-22.24l.05.02zm21.41-14.6c-.63-.34-1.03-.57-1.44-.81-6.21-3.68-12.41-7.37-18.65-11.02a2.13 2.13 0 01-1.24-2.1c0-7.27-.1-14.51-.16-21.82 0-.45 0-.9.05-1.52.47.22.8.34 1.12.53l19.24 11.4a1.59 1.59 0 01.97 1.51c0 7.6.12 15.2.18 22.8-.02.34-.06.68-.13 1.01l.06.02zm-21.44-39.66c.08-7.32.19-14.63.24-21.96a2.05 2.05 0 011.1-2.04c6.42-3.72 12.8-7.5 19.2-11.28.26-.16.56-.29.96-.5.08.32.14.64.17.97-.08 7.54-.18 15.1-.25 22.65a1.65 1.65 0 01-.88 1.61l-19.65 11.61c-.27.15-.56.28-.85.4a11.7 11.7 0 01-.1-1.48l.06.02zm21.62-36.83c-3.7-1.99-7.13-4.17-10.64-6.23-3.52-2.06-7.07-4.18-10.65-6.3l-.22-24.6c.38.13.74.29 1.1.47l19.35 11.47a1.5 1.5 0 01.88 1.44c0 7.65.13 15.3.2 22.96 0 .15-.04.35-.08.77l.06.02zm-20.8-11.18c6.44 3.69 12.9 7.31 19.36 10.96.31.18.62.4 1.15.76-1.2.7-2.17 1.25-3.16 1.8-5.68 3.2-11.38 6.37-17.03 9.6a2.37 2.37 0 01-2.7 0c-6.26-3.6-12.58-7.14-18.86-10.7-.4-.22-.78-.47-1.3-.8.26-.23.54-.44.83-.64 6.5-3.67 13.03-7.3 19.51-11a1.94 1.94 0 012.2.02zm-1.44-2.36a1.53 1.53 0 01-.78 1.5c-6.68 3.95-13.35 7.87-20.02 11.78-.19.09-.38.16-.58.22 0-.52-.07-.89-.06-1.24.08-7.41.18-14.82.25-22.26a1.73 1.73 0 01.9-1.72l19.64-11.6c.2-.12.42-.21.74-.37.08.32.13.65.16.97-.08 7.62-.18 15.17-.25 22.72zm-21.4 14.41c7.18 4.26 14.19 8.42 21.29 12.58.08 8.18.14 16.33.23 24.66-.33-.09-.65-.2-.97-.35l-19.63-11.6a1.4 1.4 0 01-.83-1.33L457.61 98c.01-.25.05-.5.1-.74zm.7 26.2c6.43 3.69 12.9 7.32 19.35 10.98.32.17.62.4 1.17.76l-1.43.83c-6.3 3.53-12.58 7.05-18.9 10.64a2.16 2.16 0 01-2.44 0c-6.36-3.64-12.75-7.22-19.11-10.82-.36-.2-.7-.45-1.2-.75.32-.25.64-.49.98-.7 6.46-3.64 12.93-7.26 19.35-10.93a1.94 1.94 0 012.23 0zm-44.3 50.67c6.58 3.87 13.17 7.77 19.75 11.69a1.41 1.41 0 01.8 1.33c0 7.74.13 15.48.2 23.22-.02.22-.05.43-.1.64-.5-.26-.89-.42-1.23-.64l-19.02-11.25a1.8 1.8 0 01-1.06-1.76c0-7.46-.12-14.92-.18-22.38v-1.1c.29.05.57.13.84.25zm-.79-2.8c.08-7.28.19-14.52.24-21.82a2.15 2.15 0 011.19-2.15c6.32-3.68 12.62-7.41 18.93-11.13.35-.2.73-.36 1.26-.63 0 .6.07 1.06.07 1.5-.1 7.28-.19 14.52-.24 21.82a2.16 2.16 0 01-1.2 2.14c-6.27 3.67-12.57 7.38-18.8 11.09l-1.38.78c-.03-.7-.06-1.15-.06-1.6zm20.55 13.48c-6.34-3.63-12.72-7.22-19.08-10.82-.35-.2-.68-.45-1.2-.8l1.34-.77c6.39-3.58 12.77-7.14 19.13-10.76a1.94 1.94 0 012.2 0c6.39 3.66 12.8 7.26 19.2 10.88.37.2.69.45 1.14.76-.46.3-.8.54-1.16.74-6.37 3.58-12.75 7.15-19.1 10.77a2.17 2.17 0 01-2.47 0zm1.7 2.59a1.6 1.6 0 01.89-1.6l19.64-11.61c.2-.12.41-.21.77-.39.07.37.12.73.14 1.1-.08 7.51-.18 15.01-.25 22.5a1.5 1.5 0 01-.76 1.53c-6.72 3.93-13.43 7.88-20.13 11.84-.16.06-.32.11-.49.14 0-.42-.06-.74-.05-1.06.07-7.46.17-14.96.24-22.45zm.11-27.1l-.23-24.47c1.07.21 18.85 10.57 21.35 12.43l.23 24.7-21.35-12.65zm-.22-26.7c.08-7.56.19-15.12.24-22.66a1.83 1.83 0 011.13-1.76 4296 4296 0 0017.24-10.1l3.03-1.76v1.63c-.07 7.32-.17 14.64-.22 21.96a1.85 1.85 0 01-.97 1.8c-6.45 3.77-12.86 7.58-19.3 11.37-.27.16-.57.29-.97.5a6.48 6.48 0 01-.18-1.02v.03zm21.65-37.13c-.62-.35-1.03-.57-1.43-.81-6.22-3.68-12.42-7.37-18.65-11.02a2.13 2.13 0 01-1.25-2.11c0-7.28-.1-14.51-.16-21.8 0-.46 0-.93.04-1.55.47.23.8.35 1.12.54l19.25 11.4a1.6 1.6 0 01.97 1.5c0 7.6.11 15.2.18 22.8.01.26.01.53-.07 1.02v.03zm-20.87-11.3c6.6 3.75 13.23 7.48 19.84 11.22.2.12.38.26.74.53-.46.3-.76.52-1.08.7l-19.35 10.9a1.84 1.84 0 01-2.07 0c-6.51-3.72-13.05-7.4-19.58-11.1-.24-.13-.47-.3-.83-.53.3-.25.6-.48.92-.68l19.62-11.04a1.64 1.64 0 011.8 0zm-1.3-2.52a1.84 1.84 0 01-1.06 1.81c-6.47 3.79-12.93 7.6-19.4 11.41-.24.15-.5.26-.86.44a5.87 5.87 0 01-.16-.97c.09-7.56.18-15.1.25-22.65a1.54 1.54 0 01.79-1.51c6.67-3.9 13.34-7.83 20-11.77.12-.07.26-.1.58-.23 0 .53.07.9.07 1.26-.08 7.4-.21 14.8-.21 22.21zm-20.14 15.36c6.34 3.74 12.67 7.52 19.02 11.26a1.68 1.68 0 01.96 1.65c0 7.51.13 15.02.2 22.53v.81l-.17.1h-.12c-.25-.12-.52-.23-.76-.36l-20.28-11.94c-.06-8.18-.14-16.3-.22-24.7.64.31 1.02.47 1.37.65zm-.49 25.42c6.4 3.66 12.82 7.27 19.24 10.9.31.18.61.4 1.18.76l-1.43.82-19.02 10.7a1.85 1.85 0 01-2.08.14c-6.56-3.75-13.14-7.46-19.71-11.17-.25-.14-.46-.31-.82-.56.31-.25.63-.48.97-.7 6.46-3.63 12.94-7.24 19.35-10.91a2.06 2.06 0 012.32.06v-.03zm-44.12 75.47l-.77-.51-.22-24.67 11.73 6.95v-.05l9.51 5.64.24 24.46c-.52-.09-4.9-2.53-9.6-5.26v-.06l-10.89-6.5zm.55-26.97l-.68.38c-.21.12-.45.22-.78.38 0-.58-.06-.97-.06-1.34.07-7.33.18-14.64.23-21.96a2.16 2.16 0 011.22-2.13 1333 1333 0 0010.4-6.11v-.08l8.62-5.08c.31-.17.64-.32.97-.46.05.46.1.82.1 1.17l-.24 22.38a1.74 1.74 0 01-.92 1.72l-8.7 5.1-10.16 6.03zm19.06 12.91l-8.7-4.95-10.55-5.96c-.26-.16-.51-.35-.97-.67l.32-.24.97-.54 10.26-5.8v.02c2.93-1.64 5.86-3.3 8.77-4.95a1.94 1.94 0 012.2 0c6.46 3.67 12.9 7.33 19.36 10.96.32.18.62.4 1.18.76l-1.44.84c-6.3 3.53-12.58 7.05-18.9 10.64a2.15 2.15 0 01-2.5-.06v-.05zm1.56 2.56a1.73 1.73 0 01.91-1.73c6.52-3.8 13.01-7.66 19.52-11.49.24-.15.5-.25.92-.46 0 .5.1.9.1 1.3-.09 7.4-.18 14.8-.25 22.24a1.74 1.74 0 01-.9 1.74c-6.56 3.87-13.1 7.74-19.65 11.55-.2.11-.42.2-.83.4 0-.57-.06-.97-.06-1.3l.28-22.2-.04-.04zm21.43-14.65c-.45-.22-.78-.35-1.09-.53-6.43-3.8-12.84-7.63-19.27-11.41a1.7 1.7 0 01-.97-1.66c0-7.51-.13-15.03-.18-22.54 0-.32 0-.63.06-1.1.41.2.71.32.97.47 6.46 3.83 12.92 7.68 19.35 11.48a1.73 1.73 0 01.97 1.66c0 7.52.11 15.03.18 22.53.06.37.01.68-.02 1.15v-.05zm-21.47-39.56c.08-7.36.19-14.72.25-22.08a1.84 1.84 0 01.96-1.84c6.44-3.75 12.85-7.55 19.28-11.35.3-.18.64-.33 1.13-.57 0 .6.07 1.05.06 1.5-.08 7.27-.19 14.51-.23 21.8a2.17 2.17 0 01-1.22 2.12c-6.28 3.65-12.53 7.37-18.78 11.06l-1.36.78c0-.56-.09-.97-.09-1.38v-.04zm.35-49.35l-.22-24.4.21-.11a.2.2 0 01.13 0c.25.12.51.23.76.38l20.24 12 .23 24.8-21.35-12.67zm.38 1.27c6.6 3.78 13.22 7.5 19.83 11.23.2.12.37.27.69.49-.36.26-.62.5-.92.67l-19.5 10.98a1.75 1.75 0 01-1.93.1c-3.04-1.75-6.08-3.48-9.12-5.2l-10.15-5.76c-.36-.2-.7-.44-1.2-.75.36-.25.59-.46.85-.61l10.48-5.9v-.1c3.01-1.67 6.02-3.36 9.03-5.06a1.73 1.73 0 011.94-.09zm-1.29-2.42a1.83 1.83 0 01-.96 1.82l-8.85 5.2-10.17 6.02-.45.26c-.22.12-.46.24-.77.38a9.9 9.9 0 01-.13-1.1c.09-7.47.18-14.93.25-22.4a1.71 1.71 0 01.9-1.73l10.52-6.18v-.06l4.99-2.9c1.54-.91 3.1-1.8 4.84-2.8 0 .55.08.97.08 1.28a4183 4183 0 00-.25 22.21zm-21.28 14.8l.25.07c.35.18.67.33.97.5l10.3 6.1 8.9 5.26a1.42 1.42 0 01.83 1.32c0 7.74.12 15.48.19 23.22-.02.22-.06.43-.1.64-.5-.25-.88-.42-1.23-.62l-8.51-5.01c-3.52-2.1-7.03-4.18-10.57-6.25a1.73 1.73 0 01-.96-1.69c0-7.44-.13-14.9-.19-22.36 0-.38.04-.72.08-1.18h.04zm0 25.72c.16.04.31.1.45.2l11.05 6.27 8.49 4.78c.32.19.6.4 1.04.68-.42.28-.7.51-.97.68l-8.52 4.84-11 6.18c-.13.07-.26.13-.4.18l-.24.08c-.21.05-.43.05-.65 0-.16-.04-.32-.1-.46-.2-6.56-3.74-13.14-7.43-19.7-11.15-.25-.13-.46-.3-.82-.56.43-.3.74-.54 1.1-.74 6.44-3.62 12.9-7.25 19.34-10.89a2.26 2.26 0 011.24-.35h.05zm-40.3 52.95c5.23 3.1 10.44 6.2 15.69 9.27l.4.26a2.1 2.1 0 011.07 2c0 7.27.11 14.52.17 21.83 0 .44 0 .87-.06 1.46-.47-.25-.86-.43-1.22-.64-6.26-3.71-12.5-7.44-18.79-11.11a2.14 2.14 0 01-1.22-2.11c0-7.28-.1-14.51-.16-21.83 0-.4 0-.8.05-1.31.5.23 2.02 1.05 4.02 2.18h.05zm-4.06-4.48l.24-22.5a1.52 1.52 0 01.77-1.51c6.68-3.92 13.35-7.85 20.01-11.78.15-.08.3-.14.46-.19 0 .49.06.84.06 1.2l-.25 22.25a1.78 1.78 0 01-.75 1.64l-.14.09-19.64 11.6c-.14.09-.28.16-.43.23l-.21.1a7.6 7.6 0 01-.17-1.13h.05zm21.2 13.48h-.05l-.26-.13c-6.56-3.75-13.15-7.46-19.72-11.17-.24-.14-.46-.3-.82-.55.3-.25.6-.48.92-.7 6.46-3.64 12.93-7.25 19.35-10.91.32-.2.68-.32 1.06-.36.34.02.67.12.97.3 6.48 3.7 12.98 7.36 19.47 11.04.27.14.53.34.97.66-.43.28-.75.51-1.08.7l-.27.15c-6.35 3.57-12.7 7.13-19.02 10.7l-.47.23c-.3.14-.64.19-.97.13l-.07-.09zm1.78-49.1c6.51 3.87 13.01 7.72 19.5 11.55a1.39 1.39 0 01.87 1.3c0 7.8.12 15.59.18 23.38-.02.14-.05.28-.1.4-3.59-1.93-7-4.08-10.47-6.13-3.47-2.04-7.06-4.18-10.64-6.28l-.22-24.54c.28.08.56.19.83.32h.05zm-.83-2.8c.07-7.42.17-14.82.24-22.26a1.7 1.7 0 01.92-1.71c6.51-3.81 13.01-7.65 19.51-11.5.2-.12.44-.23.75-.37.05.35.1.71.11 1.07-.08 7.46-.18 14.91-.24 22.36a1.72 1.72 0 01-.91 1.73c-6.55 3.83-13.08 7.7-19.62 11.55l-.72.32c-.06-.49-.1-.85-.1-1.2h.06zm.07 54.44a2.16 2.16 0 011.23-2.13c6.23-3.63 12.44-7.3 18.66-10.97l1.25-.72c.1.31.16.64.18.97a25204.16 25204.16 0 01-.25 23.07 2 2 0 01-.96 1.28l-19.75 11.6c-.15.08-.3.14-.46.18a.9.9 0 000-.16c0-.5-.05-.91 0-1.3-.1-7.28.01-14.55.05-21.83h.05zM364.7 94l-16.24-9.54-.23-.15a1.37 1.37 0 01-.7-1.25c-.04-7.74-.12-15.48-.18-23.22v-.4c.51.2 1.94.96 3.81 2l16.89 10.01.49.34.22 24.45a41.9 41.9 0 01-4.11-2.24h.05zm-17.16-8.97c.17.07.34.14.5.24 6.44 3.68 12.91 7.31 19.36 10.96.3.17.59.39 1.08.71l-.97.68-.35.2c-6.2 3.49-12.42 6.95-18.6 10.46l-.3.17c-.2.11-.4.2-.62.28a2.3 2.3 0 01-.43.09c-.44 0-.86-.11-1.23-.34-6.35-3.64-12.74-7.22-19.1-10.83-.37-.2-.7-.44-1.2-.75.4-.28.67-.52.98-.7 6.46-3.64 12.93-7.26 19.35-10.91.3-.18.62-.3.96-.34.18 0 .35.04.52.08h.05zm-.97-2.35c.01.38-.06.76-.22 1.1-.18.28-.42.5-.71.66-6.5 3.8-13 7.63-19.49 11.48l-.61.3-.14.08a6.92 6.92 0 01-.13-1.08c.08-7.46.19-14.93.24-22.39a1.94 1.94 0 011.06-1.91c6.44-3.76 12.86-7.58 19.3-11.36.25-.14.53-.27.8-.39 0 .54.07.9.07 1.24-.07 7.44-.17 14.85-.24 22.27h.07zm-12.58 19.8l8.7 5.16c1.83 1.1 3.21 1.99 3.75 2.4.07 7.96.15 15.98.21 24.29a41.85 41.85 0 01-4.24-2.22l-16.15-9.57-.8-.54-.22-24.36c.83.37 4.57 2.45 8.7 4.84h.05zm-8.7 20.66c.11.03.22.08.33.14 6.68 3.8 13.38 7.6 20.08 11.37l.54.41c-.23.2-.47.4-.73.56l-.1.05-2.4 1.3a2582 2582 0 00-13 7.32l-4.14 2.34c-.32.18-.69.3-1.06.33-.45 0-.9-.14-1.28-.38-6.3-3.62-12.63-7.17-18.96-10.75-.36-.2-.7-.45-1.2-.76.27-.21.55-.42.84-.6l19.76-11.1a2.3 2.3 0 011.23-.2l.08-.03zm-44.3 50.7l.37.19c6.89 4.04 13.54 8.03 20.32 12.01.23.2.4.45.47.74.08 7.83.15 15.65.21 23.71v.5l-1.34-.76c-6.17-3.67-12.35-7.34-18.54-10.96a2.24 2.24 0 01-1.31-2.2c0-7.19-.11-14.37-.17-21.55-.14-.47-.13-.95-.1-1.68h.08zm0-2.48c.07-7.36.17-14.72.23-22.07a1.73 1.73 0 01.88-1.75c6.6-3.86 13.17-7.73 19.76-11.6.13-.08.29-.15.5-.25.09.29.14.58.16.87-.07 7.6-.18 15.2-.24 22.79 0 .3-.06.58-.2.84a.97.97 0 01-.1.12c-.15.2-.35.38-.58.5l-19.63 11.6c-.2.13-.44.21-.72.34-.16-.6-.2-.99-.2-1.39h.13zm20.67 13.55c-6.35-3.63-12.73-7.2-19.1-10.8l-1.18-.76c.43-.3.74-.55 1.1-.75l19.34-10.9c.27-.16.58-.28.9-.32.15 0 .3.01.44.05.16.05.31.11.46.2 6.56 3.74 13.13 7.46 19.7 11.16.23.12.44.29.83.56-.3.23-.63.45-.97.65l-.27.15c-5.8 3.25-11.6 6.5-17.36 9.77l-1.8.97c-.16.1-.34.18-.53.24h-.07a2.2 2.2 0 01-1.62-.24l.13.02zm1.55 2.57a1.94 1.94 0 011.14-1.93c6.44-3.77 12.85-7.57 19.29-11.35.2-.13.43-.21.78-.38 0 .09 0 .17.05.24 0 .4.05.69.05.97-.08 7.41-.17 14.82-.23 22.25a1.84 1.84 0 01-.97 1.81c-6.44 3.77-12.87 7.58-19.3 11.36-.23.15-.5.26-.84.44h-.06c0-.48-.1-.85-.1-1.23-.08-7.37.02-14.79.07-22.2l.12.02zm21.29-14.67c-.54-.3-.97-.52-1.3-.74-6.22-3.68-12.42-7.37-18.66-11.02a2.13 2.13 0 01-1.24-2.1c0-7.27-.1-14.51-.16-21.82 0-.43 0-.88.05-1.46.33.14.65.3.96.47l19.26 11.4a1.6 1.6 0 01.96 1.51c0 7.6.13 15.2.2 22.8-.1.24-.16.5-.2.94l.13.02zm-21.29-39.6c.08-7.3.18-14.62.24-21.95a2.05 2.05 0 011.1-2.04c6.42-3.72 12.8-7.5 19.19-11.28.25-.14.52-.27.86-.43.08.31.13.64.15.96-.08 7.55-.17 15.1-.24 22.66 0 .3-.05.6-.18.88a.6.6 0 01-.07.14l-.14.18-.11.13c-.12.1-.25.2-.38.28l-8.15 4.84-4.62 2.72-6.63 3.87c-.24.14-.51.27-.83.43l-.13.06a4.6 4.6 0 01-.21-1.46l.15.02zm21.48-36.9c-3.63-1.93-7.04-4.12-10.5-6.15-3.47-2.03-7.07-4.18-10.65-6.3l-.22-24.55c.33.11.66.25.97.42 6.45 3.82 12.91 7.65 19.4 11.47a1.5 1.5 0 01.87 1.44c0 7.65.12 15.3.2 22.96-.13.15-.18.33-.22.7l.15.02zM303.41 85c.18.06.36.14.53.23 6.43 3.68 12.9 7.31 19.35 10.96.29.17.57.38.97.68-.2.18-.4.35-.62.51l-1.35.77-4.17 2.35-10.07 5.67-4.05 2.28c-.32.18-.67.3-1.04.34a2.59 2.59 0 01-1.32-.4c-6.26-3.6-12.58-7.14-18.86-10.7-.38-.21-.75-.45-1.23-.75h-.06c.26-.23.54-.45.83-.64 6.5-3.67 13.02-7.3 19.5-11 .25-.13.51-.23.79-.3.21-.04.44-.05.66-.02l.14.02zm-.97-2.13a1.52 1.52 0 01-.77 1.5c-6.74 3.94-13.44 7.85-20.1 11.76l-.41.15c0-.49-.07-.84-.06-1.2.07-7.4.17-14.8.24-22.25a1.73 1.73 0 01.9-1.72l19.64-11.6c.17-.1.37-.2.6-.3.09.3.13.6.15.9-.11 7.64-.25 15.2-.25 22.74l.06.02zm-21.28 14.51l21.15 12.58.24 24.61a4.62 4.62 0 01-.82-.3l-19.64-11.6a1.38 1.38 0 01-.83-1.34c0-7.73-.12-15.47-.18-23.21-.08-.25-.05-.4.02-.78l.06.04zm0 25.89c.18.06.36.13.53.23 6.44 3.69 12.9 7.32 19.35 10.97.3.17.59.37 1.07.7-.36.26-.6.47-.88.64l-.45.26c-5.39 3.02-10.77 6.04-16.15 9.08-.97.52-1.88 1.04-2.8 1.57-.33.19-.68.3-1.05.35-.43 0-.84-.11-1.2-.34-6.36-3.65-12.74-7.22-19.1-10.82-.37-.2-.72-.45-1.2-.75.31-.25.63-.49.97-.7 6.46-3.64 12.93-7.26 19.35-10.93.31-.19.66-.3 1.02-.34.16 0 .32 0 .48.04l.06.04zm-43.76 50.9l19.73 11.69a1.4 1.4 0 01.82 1.33l.19 23.22c-.02.2-.05.38-.09.57-.43-.22-.8-.38-1.11-.57l-19.01-11.25a1.8 1.8 0 01-1.06-1.76c0-7.46-.11-14.92-.18-22.38v-1.06c.23.03.45.09.67.17l.04.04zm-.65-2.8c.07-7.28.18-14.52.23-21.82a2.16 2.16 0 011.18-2.15c6.34-3.68 12.58-7.41 18.94-11.13.31-.18.66-.34 1.12-.57 0 .58.06 1.02.06 1.44-.08 7.28-.18 14.52-.23 21.82a2.14 2.14 0 01-1.2 2.14c-6.28 3.67-12.58 7.38-18.8 11.09l-1.23.7c-.07-.7-.11-1.13-.11-1.56l.04.03zm20.55 13.48c-6.35-3.64-12.73-7.22-19.1-10.82-.34-.2-.67-.45-1.18-.8l1.33-.77c6.39-3.58 12.78-7.14 19.13-10.76.31-.2.66-.3 1.03-.34.36.03.72.14 1.03.34 6.39 3.66 12.8 7.26 19.22 10.87.35.2.67.46 1.13.77-.48.3-.81.54-1.16.74-6.38 3.58-12.76 7.15-19.12 10.77-.35.22-.74.35-1.15.37a2.56 2.56 0 01-1.2-.4l.04.03zm1.69 2.58a1.61 1.61 0 01.9-1.6l19.63-11.6c.17-.1.37-.2.64-.32.07.34.1.69.13 1.03-.08 7.51-.18 15.01-.25 22.5 0 .23-.03.44-.08.66-.13.4-.4.74-.76.96-6.7 3.92-13.38 7.85-20.06 11.8-.1.05-.22.08-.33.1 0-.4-.07-.71-.06-1.02.04-7.55.1-15.05.2-22.54l.04.03zm16.85-17.19c-5.66-3.36-11.17-6.64-16.74-9.93-.07-8.13-.14-16.28-.23-24.42 1.18.45 7.5 4.05 12.98 7.3l4.84 2.9c1.61.96 2.85 1.77 3.38 2.17l.23 24.3a44.66 44.66 0 01-4.5-2.36l.04.04zm-17-36.68c.08-7.55.19-15.1.25-22.65a1.83 1.83 0 011.13-1.75 4296 4296 0 0017.23-10.12l2.9-1.66v1.54c-.08 7.32-.18 14.64-.23 21.96a1.85 1.85 0 01-.97 1.81c-6.45 3.76-12.88 7.55-19.29 11.36-.25.14-.52.27-.86.43-.07-.3-.13-.6-.15-.92zm21.52-37.2c-.54-.3-.97-.5-1.3-.73-6.21-3.68-12.42-7.37-18.65-11.02a2.13 2.13 0 01-1.25-2.08c0-7.28-.1-14.51-.16-21.8 0-.45 0-.9.05-1.48.33.14.65.3.97.47 6.45 3.79 12.86 7.59 19.25 11.4a1.6 1.6 0 01.97 1.5c0 7.6.12 15.2.18 22.8 0 .32-.02.63-.06.94zm-20.87-11.2c6.6 3.76 13.22 7.49 19.83 11.23.2.12.38.26.74.53-.45.3-.75.52-1.07.7l-19.35 10.9c-.3.18-.63.3-.97.33-.34-.01-.68-.11-.97-.3-6.5-3.71-13.05-7.39-19.58-11.08-.24-.14-.46-.3-.82-.54.28-.25.59-.48.9-.68l19.62-11.04c.26-.16.55-.25.85-.3.3.02.57.1.82.25zm-1.34-2.5a1.82 1.82 0 01-1.02 1.8c-6.48 3.79-12.94 7.6-19.4 11.41-.22.13-.45.23-.74.37-.07-.3-.12-.6-.15-.9.1-7.56.18-15.1.26-22.65a1.54 1.54 0 01.78-1.51c6.68-3.91 13.34-7.84 20-11.78.14-.07.28-.13.43-.18 0 .5.07.85.07 1.21-.07 7.4-.17 14.81-.23 22.22zM238.05 98c6.33 3.74 12.66 7.52 19.01 11.26a1.68 1.68 0 01.97 1.65c0 7.51.13 15.02.2 22.53v.81l-.17.1c-.24-.1-.5-.22-.71-.34l-20.26-12-.23-24.64c.5.31.85.47 1.18.63zm-.49 25.42c6.39 3.66 12.81 7.27 19.23 10.9.31.18.61.4 1.17.76l-1.42.82-19.02 10.7c-.34.23-.73.36-1.14.4-.28-.03-.55-.11-.8-.26-6.55-3.75-13.13-7.46-19.71-11.17-.24-.14-.46-.31-.81-.56.3-.25.63-.48.96-.7 6.47-3.63 12.94-7.24 19.35-10.91.33-.2.71-.32 1.1-.33.39.04.76.18 1.1.4v-.05zm-41.83 76.83a59.34 59.34 0 01-3.02-1.93l-.22-24.62 21.2 12.57.22 24.42c-.96-.36-5.13-2.72-9.6-5.3l-8.58-5.14zm-3.23-29.02c.08-7.28.2-14.51.23-21.82a2.25 2.25 0 011.27-2.21l1.7-.97c5.8-3.38 11.6-6.77 17.41-10.22.24-.13.52-.25.87-.4.06.36.1.73.1 1.1-.08 7.47-.18 14.93-.24 22.39a1.72 1.72 0 01-.91 1.72c-6.5 3.78-12.96 7.61-19.42 11.42-.25.15-.52.26-.97.47-.02-.61-.04-1.02-.04-1.42v-.06zm20.69 13.6c-6.35-3.65-12.74-7.23-19.1-10.83-.37-.2-.72-.44-1.19-.75.31-.25.63-.48.97-.7 6.46-3.63 12.93-7.25 19.35-10.92.31-.2.67-.31 1.03-.35.37.02.72.13 1.03.32 6.45 3.68 12.9 7.33 19.35 10.96.32.19.62.4 1.18.77l-1.43.83c-6.31 3.53-12.58 7.05-18.9 10.64-.36.22-.75.35-1.16.4-.4-.01-.78-.12-1.13-.32v-.06zm1.56 2.56a1.74 1.74 0 01.9-1.74c6.53-3.8 13.02-7.66 19.52-11.49.21-.13.46-.23.79-.39.04.4.07.81.08 1.22-.08 7.4-.17 14.81-.24 22.25a1.74 1.74 0 01-.9 1.74c-6.56 3.87-13.1 7.74-19.65 11.55-.17.1-.37.18-.69.34 0-.54-.06-.9-.06-1.24.08-7.37.18-14.78.25-22.19v-.05zm21.28-14.72c-.37-.18-.68-.31-.97-.47-6.42-3.8-12.83-7.63-19.27-11.41a1.7 1.7 0 01-.97-1.67c0-7.5-.12-15.02-.18-22.53 0-.34.03-.68.07-1.02.28.11.55.25.82.4 6.46 3.81 12.92 7.67 19.35 11.47a1.7 1.7 0 01.97 1.66c0 7.52.12 15.03.2 22.53.06.36.02.67-.02 1.1v-.06zm-21.28-39.5c.07-7.36.18-14.72.24-22.08a1.84 1.84 0 01.97-1.84c6.43-3.75 12.84-7.56 19.27-11.35.27-.16.59-.3.97-.5 0 .55.05.97 0 1.43-.08 7.27-.19 14.51-.23 21.8a2.17 2.17 0 01-1.22 2.12c-6.27 3.66-12.52 7.37-18.78 11.06l-1.21.7c0-.5-.05-.9-.05-1.28l.04-.06zm.34-49.34l-.22-24.4c.07-.05.14-.09.22-.12.24.12.49.22.72.36l20.25 12 .22 24.72-21.19-12.56zm.25 1.26c6.59 3.78 13.21 7.5 19.82 11.24.2.11.38.26.69.48-.36.26-.62.5-.92.67l-19.5 10.98c-.28.17-.58.28-.9.34-.32 0-.63-.08-.9-.25-6.6-3.77-13.22-7.5-19.83-11.23-.18-.1-.36-.25-.72-.51.31-.22.54-.42.77-.55l.23-.14 3.39-1.93c5.34-3.02 10.7-6.02 16.06-9.03.28-.17.59-.28.9-.35.32.02.62.12.88.3l.03-.02zm-1.3-2.42a1.84 1.84 0 01-.97 1.82c-6.45 3.78-12.88 7.57-19.29 11.37-.27.16-.55.3-.84.44-.1-.25-.15-.5-.18-.76.07-7.65.18-15.3.24-22.95 0-.2.02-.38.09-.57.17-.44.5-.81.93-1.02l15.48-9.04c1.5-.88 3.02-1.75 4.72-2.72 0 .5.07.86.07 1.2-.13 7.41-.23 14.83-.29 22.24h.04zm-20.58 15.1l19.62 11.6a1.42 1.42 0 01.83 1.33c0 7.74.12 15.48.19 23.22-.02.2-.05.4-.09.58-.42-.22-.78-.38-1.1-.56-6.33-3.75-12.66-7.53-19.01-11.25a1.82 1.82 0 01-1.08-1.76c0-7.46-.11-14.92-.17-22.38v-1.08c.28.07.55.17.81.3zm-.13 25.7c6.42 3.67 12.88 7.3 19.35 10.95.32.18.6.4 1.04.67-.41.28-.7.52-.97.68l-19.5 10.97c-.28.18-.62.29-.96.31-.3-.02-.6-.1-.86-.27-6.51-3.72-13.05-7.4-19.58-11.09-.26-.14-.5-.33-.92-.6.38-.27.68-.5.97-.67l.4-.23a42636 42636 0 0017.85-10.07l1.16-.65c.3-.18.63-.3.97-.34.38.01.74.13 1.05.33zm-36.84 55.03c2.75 1.65 5.52 3.28 8.29 4.9 1.93 1.18 3.54 2.17 4.36 2.72.19.2.33.44.4.7l.23 24.2-.49-.25-20.22-11.99c-.27-.26-.47-.6-.56-.97-.06-7.89-.14-15.74-.21-23.62v-.25c.88.4 4.31 2.32 8.2 4.56zm-8.13-6.84l.24-22.5a1.53 1.53 0 01.76-1.52c6.69-3.87 13.35-7.86 20.01-11.78l.44-.17c0 .49.06.83.06 1.18-.08 7.46-.18 14.91-.25 22.37a1.62 1.62 0 01-.88 1.59l-19.76 11.6c-.14.09-.3.15-.52.26a7.2 7.2 0 01-.1-1.03zm20.91 13.34c-6.6-3.76-13.2-7.51-19.84-11.25-.2-.11-.39-.25-.72-.48.28-.25.57-.48.89-.69l19.51-10.98.32-.15c.36-.16.76-.19 1.14-.09l.36.14c6.56 3.75 13.14 7.46 19.72 11.18.3.2.58.4.86.63-.47.3-.8.54-1.15.74-6.45 3.6-12.87 7.22-19.27 10.84-.29.18-.62.3-.96.35-.3 0-.6-.1-.85-.24zm1.32 2.25a1.94 1.94 0 01.86-1.46l.23-.16c5.16-3 10.3-6.01 15.4-9.03 1.5-.88 3.01-1.74 4.74-2.73v.13c0 .53.06.96.05 1.33-.08 7.27-.19 14.51-.24 21.82a2.14 2.14 0 01-1.22 2.12c-6.28 3.65-12.57 7.38-18.8 11.08l-1.03.6h-.08c-.09-.32-.15-.65-.18-.97.1-7.5.21-15.13.27-22.73zm21.29-14.51l-1.04-.58-20.13-11.91-.23-24.55.22.07c.26.09.5.2.74.33l19.4 11.47a1.5 1.5 0 01.87 1.44c0 7.66.13 15.3.2 22.96 0 .17-.03.35-.07.77h.04zm-21.34-39.67c.08-7.27.2-14.51.24-21.8a2.14 2.14 0 011.2-2.12c6.24-3.63 12.45-7.32 18.67-11l.64-.36.7-.35c0 .53.09.9.09 1.28-.08 7.36-.19 14.72-.24 22.08a1.85 1.85 0 01-.97 1.85c-6.52 3.8-13.03 7.63-19.53 11.47-.25.15-.51.27-.78.38a24.4 24.4 0 01-.06-1.47l.04.04zm14-41.05l-10.3-6.1a75.08 75.08 0 01-3.13-1.99c-.1-.12-.18-.26-.22-.41l-.22-23.99v-.12c.78.3 3.6 1.85 6.95 3.78l11.92 7.06a58.1 58.1 0 012.37 1.54l.22 24.39c-.82-.35-3.97-2.05-7.63-4.2l.04.04zm-13.08-6.7c6.31 3.62 12.66 7.17 18.98 10.76.4.23.78.48 1.32.82-.5.33-.81.58-1.16.77-6.45 3.6-12.88 7.22-19.27 10.84a2.6 2.6 0 01-.8.3c-.22.04-.44.04-.66 0a2.23 2.23 0 01-.48-.2c-6.52-3.73-13.06-7.4-19.6-11.1-.25-.15-.48-.34-.88-.63.35-.25.6-.47.87-.62l.24-.14c6.38-3.59 12.77-7.16 19.13-10.79.2-.1.4-.2.6-.26h.13c.12-.03.24-.05.36-.05.43 0 .85.1 1.22.3zm-1.62-2.68a1.81 1.81 0 01-.97 1.81c-6.44 3.77-12.86 7.58-19.3 11.37-.23.14-.52.26-.86.45a7.04 7.04 0 01-.13-1.09l.24-22.37a1.94 1.94 0 01.5-1.44c.1-.1.24-.2.37-.28l.12-.08c6.48-3.79 12.93-7.62 19.4-11.42.17-.1.36-.18.65-.31l.16-.07c0 .52.06.88.06 1.24-.12 7.37-.24 14.78-.24 22.2zm-16.7 17.42l15.68 9.29.91.6c.06 8.13.14 16.25.22 24.36-.8-.31-3.94-2.05-7.6-4.16-3.66-2.11-7.04-4.16-10.53-6.23-1.43-.88-2.53-1.59-3.07-1.94l-.23-24.33c.37.07 2.17 1.04 4.58 2.4l.04.01zm-4.04 23.33c6.45 3.7 12.94 7.36 19.46 11.02.28.16.54.34.97.6-.26.23-.53.43-.8.61l-19.74 11.13c-.12.06-.24.12-.36.16-.36.1-.75.1-1.11 0l-.22-.1c-6.6-3.75-13.2-7.5-19.83-11.23a6.82 6.82 0 01-.72-.5c.31-.23.53-.41.76-.56l.37-.2 19.35-10.88c.27-.16.58-.26.9-.3.32 0 .65.08.93.24h.04zm-43.78 51.04c6.35 3.75 12.7 7.5 19.03 11.26a1.7 1.7 0 011.02 1.65c0 7.5.12 15.01.18 22.52 0 .3 0 .6-.08 1.1L105 198.83a1.86 1.86 0 01-.62-1.02l-.22-23.78v-.19c.49.25.84.4 1.15.6zm-1.17-3.32c.09-7.22.19-14.43.23-21.65a2.19 2.19 0 011.2-2.12c4.44-2.58 8.87-5.19 13.29-7.82l5.8-3.4.42-.24c.13-.08.29-.14.52-.25.06.37.1.74.1 1.12-.07 7.45-.17 14.9-.23 22.36a1.72 1.72 0 01-.97 1.7c-6.52 3.8-13.01 7.63-19.5 11.47-.2.13-.45.22-.8.39-.04-.66-.06-1.14-.06-1.56zm21.29 14.07c-.15-.05-.3-.12-.44-.2-6.5-3.7-13.05-7.39-19.58-11.08-.26-.15-.5-.33-.97-.62.4-.27.7-.5.97-.69l.35-.2c6.34-3.55 12.68-7.1 19.01-10.68.31-.2.66-.31 1.03-.36.36.01.71.12 1.02.31 6.42 3.68 12.89 7.3 19.35 10.95.32.19.62.4 1.05.68-.41.28-.68.51-.97.69l-19.5 10.96c-.22.13-.46.22-.71.28-.19.01-.38 0-.56-.04h-.05zm.9 2.4a2.01 2.01 0 01.75-1.78l.25-.19.12-.07c6.45-3.76 12.87-7.57 19.3-11.35l.38-.2.37-.16c.07.3.12.6.14.91l-.24 22.67a1.63 1.63 0 01-.88 1.6c-6.57 3.86-13.11 7.73-19.66 11.6-.17.1-.38.19-.7.34 0-.59-.06-.96-.06-1.38.12-7.35.19-14.67.29-22h-.05zm21.3-14.81c-.55-.31-.97-.52-1.3-.74-6.22-3.67-12.43-7.38-18.67-11.02a2.13 2.13 0 01-1.23-2.1c0-7.27-.12-14.51-.18-21.8v-1.49c.33.14.65.3.97.46 6.45 3.8 12.87 7.6 19.26 11.4a1.72 1.72 0 01.97 1.65c0 7.5.11 15.02.17 22.52.13.3.08.6.04 1.12h-.04zm-21.3-39.35c.1-7.46.2-14.92.26-22.38-.02-.33.04-.66.15-.97a.77.77 0 01.12-.19.56.56 0 01.08-.13 2.06 2.06 0 01.54-.48c6.53-3.8 13.02-7.65 19.53-11.48l.5-.26.3-.13v1.4c-.07 7.33-.18 14.64-.24 21.96a1.94 1.94 0 01-1.02 1.94c-6.4 3.73-12.78 7.53-19.17 11.29-.28.16-.59.3-.97.5 0-.4-.07-.7-.07-1.07zm20.41-37.73L126.7 83.84c-.06-8.12-.14-16.2-.22-24.59l.82.34 20.02 11.87c.17.15.3.33.37.54l.22 24.36-1.16-.66zm-19.48-10.4c6.3 3.62 12.65 7.18 18.98 10.76.37.2.72.44 1.19.74-.24.23-.5.45-.78.64l-19.76 11.12c-.1.05-.19.1-.28.13a2 2 0 01-1.28-.06l-20.16-11.45a5 5 0 01-.46-.36l.53-.43.36-.24c6.1-3.42 12.2-6.83 18.28-10.3l.97-.55c.2-.12.4-.21.63-.28h.07c.13-.04.26-.06.4-.07.46-.01.91.11 1.3.36zm-1.66-2.46a1.53 1.53 0 01-.8 1.5l-19.96 11.78c-.14.07-.3.12-.44.17 0-.5-.06-.86-.05-1.22.07-7.4.17-14.81.24-22.25a1.74 1.74 0 01.9-1.73c6.53-3.77 13.06-7.62 19.53-11.45.2-.13.45-.23.73-.37.07.3.11.61.13.92l-.24 22.65h-.04zm-21.28 14.51l21.16 12.58.23 24.61a4.38 4.38 0 01-.82-.3l-19.63-11.6a1.4 1.4 0 01-.84-1.33c0-7.74-.11-15.48-.18-23.22.05-.24.08-.38.13-.76l-.05.02zm.71 26.2c6.35 3.63 12.73 7.22 19.1 10.82.36.2.7.44 1.18.75-.3.25-.63.48-.97.7l-19.52 10.97-.4.2a1.87 1.87 0 01-1.28-.06c-2.65-1.52-5.32-3.02-7.98-4.52l-11.44-6.54c-.36-.2-.7-.45-1.18-.75.3-.25.63-.49.97-.7l11.74-6.61 7.58-4.28c.34-.22.74-.35 1.15-.38.39.04.77.16 1.1.37l-.05.02zm-44.29 50.58l19.74 11.69a1.42 1.42 0 01.82 1.33c.05 7.74.1 15.48.18 23.22a5.9 5.9 0 01-.1.64c-.5-.26-.88-.42-1.23-.64l-19.02-11.25a1.8 1.8 0 01-1.06-1.76c0-7.46-.11-14.92-.18-22.38 0-.33 0-.66.05-1.1.27.06.54.14.8.25zm-.8-2.8c.09-7.28.2-14.52.24-21.82a2.15 2.15 0 011.19-2.16c6.33-3.67 12.63-7.41 18.93-11.13.35-.2.73-.36 1.26-.63 0 .6.07 1.06.07 1.5-.09 7.28-.18 14.52-.23 21.82a2.16 2.16 0 01-1.2 2.14 2550.6 2550.6 0 00-18.8 11.09l-1.37.78c-.04-.7-.08-1.14-.08-1.6zm20.57 13.48c-6.35-3.6-12.73-7.22-19.04-10.82-.36-.2-.69-.45-1.2-.8l1.34-.77c6.38-3.58 12.76-7.14 19.13-10.76a1.94 1.94 0 012.2 0c4.04 2.32 8.1 4.62 12.16 6.9l7.27 4.1c.23.14.45.31.9.62l-.1.06-1.21.7-6.86 3.86v.07A3894.6 3894.6 0 0083 184.8a2.16 2.16 0 01-2.5.02zm1.68 2.59a1.64 1.64 0 01.9-1.6l12.1-7.13 6.91-4.1.65-.38.68-.34c0 .58.06.97.06 1.34-.07 7.37-.18 14.73-.24 22.1a1.81 1.81 0 01-.96 1.8c-2.42 1.41-4.84 2.85-7.25 4.27v.1l-12.58 7.39a2.9 2.9 0 01-.47.14c0-.42-.07-.74-.07-1.06.1-7.53.2-15.05.27-22.53zm13.64-19.11l-13.54-8.01-.23-24.48c.63.13 7.23 3.87 12.97 7.25v.13l7.43 4.4.85.57.22 24.35c-.77-.3-3.98-2.07-7.7-4.21zM82.1 133.56c.08-7.55.18-15.1.24-22.65a1.86 1.86 0 011.13-1.75c5.75-3.36 11.49-6.73 17.23-10.12l2.7-1.55.2-.09c0 .47.1.86.09 1.24-.08 7.4-.17 14.82-.24 22.25a1.74 1.74 0 01-.9 1.74l-7.5 4.4v.07l-11.8 6.97c-.28.16-.58.29-.96.5-.1-.33-.16-.66-.19-1zm.78-48.37c4.06 2.32 8.12 4.61 12.18 6.9v.05l7.37 4.17c.28.15.53.34.97.65l-1.29.75-7.03 3.96v.06l-12.06 6.78a1.84 1.84 0 01-2.07 0c-6.5-3.72-13.05-7.4-19.58-11.1-.24-.13-.46-.3-.82-.53.29-.25.59-.48.9-.68l19.63-11.04a1.63 1.63 0 011.8 0v.03zm-1.34-2.5a1.82 1.82 0 01-1.01 1.77c-6.48 3.78-12.95 7.6-19.41 11.4-.24.15-.5.26-.86.44a6.98 6.98 0 01-.17-.97c.1-7.56.18-15.1.26-22.65a1.54 1.54 0 01.78-1.5c6.68-3.92 13.35-7.84 20-11.78.13-.07.27-.1.59-.23 0 .53.06.9.06 1.26-.08 7.4-.18 14.81-.24 22.22v.03zM61.48 98c6.34 3.74 12.67 7.52 19.03 11.26a1.68 1.68 0 01.97 1.65c0 7.51.12 15.02.19 22.53v.81l-.17.1h-.12c-.26-.12-.52-.23-.77-.36l-20.3-11.94-.23-24.7c.62.31 1 .47 1.4.65zm-.49 25.42c6.4 3.66 12.82 7.27 19.24 10.9.32.18.62.4 1.18.76l-1.42.82-19.03 10.7a1.85 1.85 0 01-2.08.14c-6.55-3.75-13.13-7.46-19.7-11.17-.25-.14-.47-.31-.82-.56.3-.25.63-.48.97-.7 6.45-3.63 12.94-7.24 19.35-10.91a2.07 2.07 0 012.27.06l.04-.03zm-23 64.02a1.74 1.74 0 01.92-1.73c6.52-3.81 13.02-7.66 19.52-11.5.24-.14.5-.24.9-.45 0 .5.12.9.1 1.29-.07 7.4-.17 14.81-.24 22.25a1.74 1.74 0 01-.9 1.73c-6.56 3.87-13.1 7.74-19.65 11.56-.2.11-.41.2-.83.4 0-.57-.06-.97-.06-1.3.1-7.43.19-14.84.25-22.25zm-1.55-2.56c-6.35-3.68-12.7-7.22-19.1-10.82-.37-.21-.7-.44-1.19-.75.39-.28.66-.52.97-.7 6.46-3.64 12.93-7.25 19.35-10.92a1.93 1.93 0 012.2 0c6.44 3.68 12.9 7.33 19.34 10.96.32.18.62.4 1.18.77l-1.43.83c-6.3 3.53-12.58 7.05-18.9 10.64a2.15 2.15 0 01-2.42-.01zm22.99-12.1c-.45-.2-.79-.34-1.1-.53-6.42-3.8-12.84-7.62-19.27-11.4a1.7 1.7 0 01-.97-1.67c0-7.5-.12-15.02-.18-22.53 0-.37.03-.73.08-1.1.4.2.7.32.96.47 6.47 3.82 12.92 7.67 19.35 11.48a1.7 1.7 0 01.97 1.66c0 7.52.13 15.03.19 22.53.08.32 0 .63-.03 1.1zm-21.47-39.55c.08-7.36.18-14.72.24-22.08a1.84 1.84 0 01.97-1.84c6.43-3.75 12.85-7.56 19.27-11.35.3-.18.65-.33 1.13-.57 0 .59.07 1.04.06 1.5-.08 7.27-.18 14.51-.22 21.8a2.17 2.17 0 01-1.22 2.11 2709.69 2709.69 0 00-20.15 11.85c-.03-.61-.08-1.02-.08-1.42zm.35-49.35l-.23-24.4c.06-.06.11-.13.18-.18a.2.2 0 01.12 0c.26.13.53.23.77.38l20.24 12 .23 24.81-21.31-12.6zm.38 1.27c6.6 3.77 13.22 7.49 19.83 11.23.19.12.37.26.68.49-.35.26-.62.5-.92.66l-19.5 10.99a1.75 1.75 0 01-1.93.1c-6.6-3.85-13.23-7.55-19.88-11.29-.2-.11-.37-.27-.8-.57l1.32-.7 19.25-10.81a1.75 1.75 0 011.95-.15v.05zm-2.52 48.85c-6.34-3.8-12.67-7.58-19.01-11.3a1.8 1.8 0 01-1.08-1.76c-.07-7.46-.07-14.92-.18-22.38v-1.12c.33.07.66.18.97.33l19.62 11.6a1.42 1.42 0 01.83 1.33c0 7.74.12 15.48.18 23.22-.02.22-.05.43-.1.64-.5-.24-.88-.4-1.23-.6v.04zM16 149.48a2.29 2.29 0 011.3-2.23c6.36-3.7 12.7-7.47 19.05-11.2.32-.18.64-.34.97-.47.06.38.1.77.1 1.17l-.24 22.38a1.73 1.73 0 01-.87 1.77c-6.53 3.73-13 7.56-19.46 11.37-.27.17-.56.28-1.07.54v-1.51c.04-7.28.16-14.55.22-21.82zm0 48.89l-.23-24.71 21.29 12.65.23 24.46c-1.05-.18-18.5-10.35-21.3-12.4zm-.35 49.47c.07-7.35.17-14.71.23-22.07a1.82 1.82 0 01.97-1.82c6.43-3.77 12.84-7.58 19.27-11.36.3-.19.64-.32 1.1-.54 0 .54.08.96.08 1.35-.08 7.32-.2 14.62-.23 21.94a2.15 2.15 0 01-1.23 2.11c-6.3 3.64-12.46 7.32-18.68 11l-1.46.84c-.05-.63-.1-1.04-.1-1.45h.05zm42.3 2.55c-6.5 3.67-13 7.3-19.5 10.97a1.6 1.6 0 01-1.83.1 4341.8 4341.8 0 00-20-11.31 7.78 7.78 0 01-.7-.52c.45-.3.71-.5.97-.65 6.38-3.6 12.78-7.16 19.13-10.8a2.36 2.36 0 012.71 0c6.26 3.6 12.58 7.14 18.85 10.65.4.23.78.48 1.31.82-.4.33-.66.56-.97.74h.04zm-20-13.7l-.22-24.49c1.23.3 17.82 9.97 21.35 12.4l.22 24.73-21.34-12.64zm20.71-13.46c-6.55-3.73-13.14-7.44-19.7-11.15-.24-.14-.45-.31-.8-.57.42-.28.74-.53 1.08-.73l19.35-10.9a1.74 1.74 0 011.94-.07l19.74 11.16c.24.14.45.3.9.62l-1.19.68-19.34 10.9a1.75 1.75 0 01-1.98.06zm1.09 24.8c.07-7.46.17-14.92.25-22.38a1.71 1.71 0 01.89-1.74l19.66-11.61c.26-.14.54-.26.82-.36 0 .57.07.97.06 1.3-.08 7.43-.18 14.84-.25 22.26a1.72 1.72 0 01-.89 1.73 3301.7 3301.7 0 00-19.54 11.5c-.23.14-.5.25-.87.43-.07-.37-.11-.75-.13-1.13zm41.98 2.57l-6.68 3.76v.06l-12.25 6.9a2.04 2.04 0 01-2.32 0c-6.39-3.67-12.82-7.26-19.23-10.9-.32-.18-.63-.39-1.07-.66.23-.23.49-.45.76-.64L80.7 238a1.54 1.54 0 011.7-.07l12.66 7.15 6.85 3.87c.35.2.67.44 1.2.8l-1.37.86zm1.6-1.49l-.47-.15-7.67-4.55v.06l-12.28-7.28a1.38 1.38 0 01-.83-1.32c-.05-7.74-.11-15.48-.19-23.22.01-.14.03-.28.06-.4.62.08 7.26 3.86 13.1 7.3v.14l7.18 4.25a1.72 1.72 0 01.97 1.66c0 7.52.12 15.03.19 22.53 0 .26-.02.54-.06.98zm.35-25.73h-.1a2.3 2.3 0 01-.42-.1 3.27 3.27 0 01-.67-.3 611 611 0 00-7.3-4.14l-11.47-6.46-1.48-.85c.3-.27.63-.51.97-.74l11.95-6.72 7.44-4.2.18-.08.18-.09a1.94 1.94 0 011.75.12c6.48 3.7 12.99 7.36 19.48 11.03.27.16.53.36.97.7l-3.14 1.8c-5.68 3.19-11.38 6.36-17.05 9.58-.38.26-.83.41-1.3.45zm.36 24.88c.07-7.6.17-15.2.23-22.81a1.7 1.7 0 010-.32c.14-.49.45-.9.88-1.17l.17-.12c5.16-3.01 10.3-6.02 15.4-9.03 1.52-.9 3.03-1.75 4.73-2.72 0 .43.08.74.08 1.03-.08 7.5-.18 15.03-.24 22.52a1.75 1.75 0 01-.97 1.7c-6.44 3.79-12.91 7.6-19.4 11.44-.2.13-.45.22-.74.37a3.67 3.67 0 01-.14-.89zm42.16 2.08l-19.5 10.97c-.29.19-.62.3-.96.33-.3-.01-.6-.1-.85-.25a3153.5 3153.5 0 00-19.71-11.17c-.24-.13-.46-.3-.91-.62l1.55-.88c5.84-3.3 11.76-6.56 17.57-9.9l1.3-.73c.17-.1.35-.18.53-.24h.07c.12-.03.25-.05.37-.06.42 0 .83.11 1.19.33 6.34 3.64 12.71 7.22 19.09 10.82.35.2.7.44 1.18.75-.38.22-.65.48-.96.65h.04zm.4-1.68c-6.4-3.81-12.82-7.61-19.25-11.4a1.69 1.69 0 01-.96-1.65c0-7.46-.13-14.92-.19-22.37 0-.34 0-.68.08-1.2l.57.3 20 11.86c.26.21.44.49.54.8l.22 24.19c-.52-.25-.8-.39-1-.53zm1.42-25.16c-.37 0-.72-.11-1.04-.3-6.43-3.7-12.9-7.32-19.35-10.97-.3-.18-.6-.4-.96-.67l.28-.26c.2-.16.42-.31.65-.45l16.1-9.07 3.33-1.88c.14-.08.3-.15.45-.2h.06c.14-.05.28-.07.42-.08.38 0 .75.11 1.07.31 6.44 3.68 12.9 7.3 19.36 10.97.3.17.59.38 1.1.72h.06l-1.31.76-19.15 10.75c-.33.21-.72.33-1.11.34l.04.03zm.16 24.19c.09-7.31.19-14.63.25-21.94-.03-.44.07-.88.28-1.26l.06-.08.2-.22c.12-.1.24-.2.37-.28 6.49-3.78 12.94-7.62 19.4-11.43l.16-.07.7-.34c.05.36.09.72.1 1.08-.08 7.46-.17 14.9-.23 22.37a1.74 1.74 0 01-.97 1.71c-6.52 3.8-13.01 7.65-19.52 11.49-.2.12-.45.22-.8.38 0-.6-.03-1-.03-1.4l.03-.01zm42.99 2.22l-1.12.64c-6.34 3.56-12.69 7.1-19 10.7a2.4 2.4 0 01-1.26.34 2.6 2.6 0 01-1.05-.36c-6.34-3.63-12.72-7.21-19.09-10.81-.34-.2-.67-.46-1.12-.76.49-.3.82-.55 1.18-.75a7143.7 7143.7 0 0015.99-8.99l3.28-1.84.17-.09.32-.14h.18c.1-.03.2-.04.3-.05.38.03.74.14 1.07.33 6.38 3.66 12.8 7.27 19.21 10.9.34.19.67.43 1.15.76l-.21.12zm.53-.87a3.61 3.61 0 01-.77-.27l-19.62-11.6a1.41 1.41 0 01-.84-1.33c0-7.74-.12-15.48-.18-23.22l.09-.6c.42.23.77.38 1.1.57l19 11.26c.27.15.51.33.72.55l.07.1c.21.28.31.62.3.97 0 7.6.11 15.2.18 22.8 0 .23-.03.45-.05.8v-.03zm.31-25.7a2.79 2.79 0 01-1.18-.39c-6.3-3.62-12.63-7.18-18.96-10.76-.36-.2-.7-.44-1.18-.75a9 9 0 01.85-.6l19.74-11.1.33-.16c.3-.1.62-.1.91 0 .12.03.22.07.32.13 6.69 3.8 13.37 7.6 20.07 11.37.21.15.42.32.62.5l-1.4.8c-6.28 3.54-12.57 7.05-18.86 10.64-.38.23-.81.35-1.26.36v-.03zm.43 25.81c0-.56-.1-.97-.1-1.34.1-7.35.2-14.71.25-22.07a1.83 1.83 0 01.97-1.82c6.44-3.76 12.85-7.58 19.28-11.36.31-.18.64-.33.97-.47 0 .5.08.89.08 1.28-.08 7.32-.2 14.62-.24 21.94a2.15 2.15 0 01-1.22 2.11c-6.25 3.64-12.45 7.32-18.67 11l-1.18.67-.14.06zm42.08 1.21c-6.5 3.67-13.01 7.3-19.51 10.97-.26.17-.56.28-.86.33-.3 0-.58-.08-.82-.23-6.64-3.79-13.3-7.56-19.97-11.31-.18-.1-.34-.25-.63-.48a7.28 7.28 0 01.94-.7c6.37-3.58 12.77-7.15 19.13-10.78.39-.24.83-.38 1.28-.42.46.03.9.17 1.29.42 6.26 3.6 12.57 7.13 18.84 10.64.4.23.79.49 1.32.82-.43.36-.7.6-1 .77v-.03zm-19.81-13.7l-.22-24.44c2 .78 17.76 9.99 21.2 12.36l.22 24.65-21.2-12.57zm21.6-13.2c-.31 0-.63-.1-.9-.26-6.56-3.73-13.13-7.45-19.7-11.15a9.15 9.15 0 01-.8-.56c.42-.3.74-.54 1.08-.74 6.44-3.62 12.9-7.25 19.34-10.9.29-.16.6-.27.91-.32.32 0 .63.09.9.25 6.55 3.74 13.14 7.45 19.7 11.16.24.14.46.3.91.62l-1.19.68-19.35 10.9c-.27.17-.58.3-.9.35v-.03zm.19 24.54l.24-22.38a1.72 1.72 0 01.9-1.74l19.66-11.61c.22-.12.45-.22.68-.3 0 .53.06.89 0 1.25-.07 7.42-.17 14.83-.24 22.25a1.72 1.72 0 01-.89 1.73 3298.4 3298.4 0 00-19.54 11.5c-.2.12-.44.22-.74.36a8.74 8.74 0 01-.07-1.03V248zm41.94 2.6c-6.35 3.55-12.7 7.11-19.03 10.7-.33.2-.7.32-1.09.35a2.13 2.13 0 01-1.1-.34c-6.39-3.67-12.81-7.26-19.22-10.9-.32-.18-.63-.39-1.07-.66.23-.24.49-.45.76-.64L257.45 238c.25-.15.51-.25.8-.3.26 0 .53.08.76.22l20.21 11.45c.2.15.38.3.56.47l-1.33.77zm1.64-1.52a4.34 4.34 0 01-.8-.3l-19.62-11.6a1.43 1.43 0 01-.83-1.33c0-7.74-.12-15.48-.19-23.22v-.37c1.15.43 7.53 4.03 13.11 7.34v.07l5.23 3.1c1.02.64 1.88 1.19 2.51 1.61.17.18.29.4.35.63l.22 23.77c.06.1.06.2.06.33l-.04-.03zm.3-25.73c-.46-.05-.9-.2-1.3-.45-6.18-3.56-12.4-7.04-18.61-10.55l-1.47-.85c.3-.27.63-.51.97-.74 6.42-3.62 12.85-7.2 19.26-10.85a2.5 2.5 0 011.19-.38c.4.02.78.14 1.12.35 6.35 3.63 12.74 7.21 19.1 10.81.37.22.7.45 1.3.82-1.21.7-2.18 1.27-3.16 1.82-4.91 2.76-9.84 5.5-14.73 8.3l-2.27 1.27c-.42.29-.9.45-1.4.48v-.03zm.38 25.71c0-.55-.06-.96-.06-1.33.08-7.28.2-14.51.22-21.82a2.23 2.23 0 011.32-2.21c6.26-3.65 12.49-7.35 18.73-11.01l.15-.1c.3-.17.63-.32 1.08-.54v1.42c-.08 7.28-.19 14.51-.23 21.82a2.14 2.14 0 01-1.2 2.13l-.08.05c-6.26 3.65-12.48 7.36-18.71 11.04l-.51.3-.72.34s.02 0 0-.06v-.03zm42.1 1.27L303.4 261.3c-.12.07-.24.13-.37.18l-.27.1a1.53 1.53 0 01-1.15-.21c-6.56-3.74-13.14-7.44-19.7-11.16-.24-.14-.45-.31-.92-.62l1.3-.75 19.25-10.82c.22-.13.46-.22.7-.29.24-.04.48-.04.71 0 .14.04.27.1.4.17 6.55 3.74 13.13 7.44 19.7 11.15.24.14.45.31.82.55-.4.35-.68.59-.99.76v-.03zm1.35-1.15l-.39-.2-20.32-12.06c-.19-.18-.33-.4-.42-.65l-.22-24.24c.54.27.96.45 1.27.66 6.26 3.71 12.5 7.44 18.77 11.1a2.13 2.13 0 011.2 2.12c0 7.22.1 14.44.18 21.66-.03.47-.05.92-.07 1.64v-.03zm.46-25.73a2.4 2.4 0 01-1.1-.33c-6.38-3.67-12.8-7.28-19.22-10.9-.32-.18-.63-.4-1.07-.68.23-.23.48-.44.76-.63l19.75-11.12a1.7 1.7 0 011.3-.22l.26.1a7033.4 7033.4 0 0020.21 11.46c.12.07.21.18.56.47l-1.33.77c-6.35 3.56-12.7 7.1-19.03 10.69-.19.1-.39.2-.6.27h-.09a2.1 2.1 0 01-.4.15v-.03zm.25 25.62c0-.51-.07-.9-.07-1.3.08-7.36.18-14.7.24-22.07a1.83 1.83 0 01.97-1.82c6.44-3.76 12.86-7.58 19.28-11.36.27-.16.58-.29.97-.47 0 .5.08.9.07 1.28-.07 7.32-.18 14.63-.22 21.95a2.16 2.16 0 01-1.22 2.1l-1.52.9c-5.8 3.4-11.6 6.81-17.41 10.24-.31.18-.65.34-1.08.55zm42.15 1.32l-8.8 4.94-1.52.86-9.16 5.15a2.07 2.07 0 01-1.93 0c-6.51-3.72-13.05-7.4-19.58-11.09-.24-.13-.45-.32-.9-.62l1.18-.67 19.35-10.9c.27-.17.58-.28.9-.33a1.91 1.91 0 01.9.26c6.56 3.74 13.14 7.44 19.71 11.16.28.17.55.35.8.55-.37.32-.65.54-.95.72v-.03zm1.32-1.32l-.41-.12-.56-.28c-6.45-3.8-12.87-7.61-19.26-11.41a1.57 1.57 0 01-.96-1.52c0-7.6-.13-15.2-.19-22.8.01-.32.04-.64.08-.96h.06l1.26.7c6.22 3.68 12.42 7.39 18.65 11.03a2.14 2.14 0 011.24 2.1c0 7.27.1 14.52.16 21.81 0 .5-.05.93-.07 1.48v-.03zm.62-25.74c-.27.04-.55.02-.82-.06a2.93 2.93 0 01-.65-.3c-6.3-3.62-12.64-7.17-18.96-10.76-.37-.2-.7-.43-1.2-.75.36-.25.59-.46.85-.6 6.6-3.7 13.18-7.4 19.75-11.11.26-.16.56-.25.87-.26.29.02.56.11.81.26l11.25 6.38v-.05l8.71 4.95c.22.15.42.32.62.5l-1.4.8-7.97 4.47-10.94 6.19c-.17.1-.35.18-.54.25l-.3.08h-.08zm0 24.6c.08-7.41.19-14.82.25-22.26a1.73 1.73 0 01.9-1.73c3.63-2.12 7.25-4.25 10.86-6.39v-.08l8.4-4.95c.3-.18.64-.32 1.1-.54 0 .54.08.97.08 1.35-.09 7.32-.2 14.62-.23 21.94a2.15 2.15 0 01-1.23 2.12c-2.76 1.6-5.52 3.21-8.26 4.83l-11.36 6.7c-.15.07-.3.12-.45.16.06-.41-.02-.77-.02-1.11l-.04-.05zm42.22 2.43c-6.5 3.67-13.02 7.3-19.51 10.97a1.62 1.62 0 01-1.83.1l-8.87-5.02v-.05l-11.04-6.24c-.16-.1-.3-.22-.6-.43.27-.24.56-.47.86-.68l10.78-6.05v-.08l8.35-4.72a2.34 2.34 0 012.7 0c6.27 3.6 12.58 7.13 18.86 10.64.4.23.77.49 1.31.82-.39.36-.67.6-.98.77l-.03-.03zm-19.95-13.7l-.23-24.49c1.23.3 17.81 9.97 21.34 12.4l.23 24.74-21.34-12.65zm20.7-13.46l-19.63-11.12a9.46 9.46 0 01-.8-.57c.42-.28.74-.53 1.08-.73l19.35-10.9a1.75 1.75 0 011.94-.07 2630.6 2630.6 0 0019.7 11.16c.3.2.6.4.9.62l-1.19.68-19.35 10.9a1.73 1.73 0 01-1.96.06l-.04-.03zm1.08 24.8c.08-7.46.18-14.92.25-22.38a1.72 1.72 0 01.9-1.74l19.65-11.61a8 8 0 01.83-.36c0 .57.06.97.06 1.3-.08 7.43-.18 14.84-.25 22.26a1.73 1.73 0 01-.9 1.73c-6.52 3.81-13.03 7.65-19.53 11.5-.23.14-.5.25-.87.43a9.95 9.95 0 01-.1-1.1l-.04-.03zm42.09 2.6c-6.35 3.55-12.7 7.11-19.03 10.7a2.04 2.04 0 01-2.32 0c-6.4-3.67-12.82-7.27-19.24-10.9-.32-.19-.63-.4-1.06-.67.23-.23.48-.45.75-.64l19.76-11.12a1.54 1.54 0 011.7-.08c6.72 3.82 13.46 7.64 20.21 11.45.2.15.38.3.55.47l-1.32.8zm.7-1.82l-19.63-11.6a1.43 1.43 0 01-.83-1.33c0-7.74-.11-15.48-.18-23.22 0-.14.03-.28.06-.4.97.14 17.63 9.8 21.28 12.39l.23 24.56c-.3-.1-.6-.22-.89-.37l-.03-.03zm-.2-25.88c-6.18-3.56-12.4-7.04-18.61-10.55l-1.47-.85c.3-.27.63-.51.96-.74 6.43-3.62 12.86-7.2 19.27-10.85a2.17 2.17 0 012.45 0c6.35 3.63 12.74 7.21 19.1 10.81.37.22.7.45 1.3.82-1.21.7-2.18 1.27-3.16 1.82-5.68 3.2-11.38 6.35-17.04 9.6a2.45 2.45 0 01-2.77-.03l-.04-.03zm1.62 24.83c.08-7.28.2-14.51.22-21.82a2.23 2.23 0 011.32-2.21 2917.1 2917.1 0 0018.8-11.06c.36-.22.74-.38 1.3-.66 0 .68.05 1.1 0 1.52-.08 7.27-.18 14.51-.23 21.81a2.16 2.16 0 01-1.2 2.14c-6.28 3.67-12.57 7.39-18.79 11.1-.4.21-.8.44-1.38.78.04-.67 0-1.13 0-1.57l-.04-.03zm42.3 2.6L480.1 261.3a1.72 1.72 0 01-1.93.08c-6.55-3.75-13.13-7.44-19.71-11.16-.23-.14-.45-.31-.91-.63l1.3-.74 19.25-10.82a1.72 1.72 0 011.93-.08c6.56 3.74 13.14 7.44 19.71 11.15.24.14.46.31.81.55-.29.25-.6.49-.92.71l-.03-.03zm1.35-1.04l-21.28-12.58-.24-24.72c.62.32 1.04.51 1.43.74 6.26 3.71 12.49 7.43 18.77 11.1a2.12 2.12 0 011.19 2.12c0 7.22.11 14.44.18 21.66.03.46 0 .92-.01 1.7l-.04-.02zm-.77-26.13c-6.4-3.66-12.82-7.27-19.24-10.9-.32-.17-.63-.39-1.06-.67.23-.23.48-.44.75-.63l19.76-11.12a1.55 1.55 0 011.7-.09c6.73 3.83 13.47 7.65 20.21 11.46.2.14.38.3.56.47l-1.34.76c-6.34 3.56-12.7 7.1-19.02 10.7a2.04 2.04 0 01-2.28 0l-.04.02zm1.26 24.66c.1-7.36.19-14.71.25-22.07a1.82 1.82 0 01.96-1.82c6.44-3.77 12.85-7.58 19.28-11.36.3-.18.63-.32 1.09-.54 0 .54.09.97.09 1.35-.08 7.32-.2 14.63-.24 21.94a2.15 2.15 0 01-1.22 2.12c-6.32 3.68-12.57 7.41-18.92 11.13-.35.2-.72.37-1.22.62.02-.57-.03-.97-.03-1.38l-.04.01zm42.36 2.62l-19.45 10.94a1.73 1.73 0 01-1.94.08c-6.56-3.75-13.14-7.44-19.7-11.16-.24-.13-.45-.32-.9-.62l1.17-.68 19.35-10.89a1.72 1.72 0 011.94-.08c6.56 3.75 13.14 7.44 19.7 11.17.29.17.56.35.82.55-.37.27-.64.5-.95.67l-.04.02zm-18.67-37.66c6.21 3.68 12.41 7.38 18.65 11.02a2.16 2.16 0 011.24 2.11c0 7.27.1 14.51.16 21.8 0 .46 0 .92-.05 1.54-.48-.22-.8-.36-1.12-.53-6.45-3.81-12.86-7.61-19.25-11.41a1.58 1.58 0 01-.97-1.52c0-7.6-.12-15.2-.18-22.8 0-.27.05-.54.09-1.02.66.33 1.06.55 1.47.8l-.04.01zm19.95-15.16a1.42 1.42 0 01-.73 1.4 5617.1 5617.1 0 00-20.01 11.8c-.21.1-.43.17-.64.24 0-.62-.06-1.07 0-1.53.07-7.27.18-14.51.23-21.81a2.15 2.15 0 011.22-2.13c6.33-3.68 12.58-7.41 18.93-11.14l1.1-.63c.1.32.17.64.2.97-.09 7.61-.14 15.22-.26 22.81l-.04.02zm-20.32-61.54c6.51 3.87 13.02 7.72 19.51 11.55a1.38 1.38 0 01.88 1.3c0 7.8.11 15.58.17 23.38-.02.16-.07.32-.13.48-3.62-1.94-7.07-4.14-10.58-6.2-3.51-2.07-7.06-4.2-10.64-6.3l-.23-24.58a6 6 0 011.06.35l-.04.02zm20.48-15.2a1.75 1.75 0 01-.9 1.73c-6.57 3.87-13.1 7.74-19.66 11.55-.2.12-.42.2-.83.4 0-.57-.06-.97 0-1.3.08-7.42.18-14.82.24-22.26a1.72 1.72 0 01.97-1.71c6.5-3.81 13.01-7.65 19.51-11.5.25-.14.5-.25.89-.44.06.38.1.76.12 1.14-.14 7.5-.25 14.94-.34 22.39zm.08-49.2l.23 24.65a4.82 4.82 0 01-.84-.28c-6.6-3.87-13.18-7.76-19.76-11.7a1.38 1.38 0 01-.82-1.33l-.18-23.22c.02-.24.05-.48.1-.71l21.27 12.6zm.36-49.84l-.24 22.92a1.42 1.42 0 01-.76 1.38c-6.72 3.94-13.42 7.89-20.11 11.84-.16.07-.31.12-.48.15 0-.48-.06-.84-.06-1.2.08-7.46.18-14.91.24-22.37a1.62 1.62 0 01.89-1.59l19.64-11.6c.2-.12.41-.2.72-.36.1.26.16.54.19.83h-.03zm-42.04-2.26l19.13-10.75a1.94 1.94 0 012.2 0c6.38 3.64 12.78 7.26 19.2 10.87.36.2.69.46 1.14.75-.48.31-.82.56-1.18.76-6.37 3.59-12.75 7.15-19.1 10.78a2.18 2.18 0 01-2.47 0c-6.34-3.64-12.7-7.23-19.06-10.83-.36-.2-.68-.45-1.2-.8l1.34-.78zM502 21.05c.27.06.54.14.8.26l19.73 11.68a1.38 1.38 0 01.83 1.33l.18 23.22c-.02.21-.05.42-.1.63-.5-.25-.88-.43-1.23-.63-6.34-3.76-12.66-7.53-19.02-11.25a1.8 1.8 0 01-1.06-1.76c0-7.46-.12-14.92-.18-22.38 0-.32.04-.65.06-1.1h-.01zm.62 25.93c6.55 3.75 13.13 7.44 19.7 11.16.24.13.46.3.82.55-.35.27-.71.51-1.09.74l-19.35 10.9a1.71 1.71 0 01-1.93.08c-6.55-3.75-13.13-7.44-19.71-11.16-.23-.13-.45-.3-.9-.62.52-.3.84-.5 1.17-.68l19.35-10.89a1.73 1.73 0 011.98-.08h-.04zm-1.12-24.74c-.09 7.4-.18 14.8-.25 22.25a1.73 1.73 0 01-.89 1.74c-6.57 3.87-13.1 7.74-19.65 11.55-.2.12-.43.2-.74.35a6.6 6.6 0 01-.16-.97c.08-7.54.18-15.1.25-22.64a1.52 1.52 0 01.79-1.5l20-11.8c.12-.06.27-.09.58-.21.03.49.07.86.07 1.23zm-42.1-2.6c6.33-3.56 12.69-7.1 19-10.72a2.26 2.26 0 012.58 0c6.31 3.62 12.66 7.18 18.98 10.76.36.2.71.44 1.18.74-.24.24-.5.45-.78.64-6.59 3.74-13.17 7.46-19.77 11.16a1.54 1.54 0 01-1.7.07c-6.69-3.8-13.38-7.6-20.1-11.38-.15-.1-.28-.22-.66-.51l1.27-.76zm19.74 13.83l.23 24.8L458 45.65c-.07-8.16-.14-16.3-.23-24.83l21.35 12.65zm-20.88 13.35c6.73 3.84 13.47 7.66 20.22 11.46.17.15.35.3.5.46l-1.32.76c-6.3 3.54-12.57 7.07-18.87 10.65a2.25 2.25 0 01-2.58 0c-6.33-3.65-12.72-7.22-19.08-10.83-.32-.18-.62-.4-1.06-.68.2-.2.42-.38.65-.54 6.64-3.7 13.3-7.45 19.97-11.21a1.44 1.44 0 011.57-.05v-.02zm-.9-24.67c-.1 7.46-.19 14.92-.25 22.39a1.75 1.75 0 01-.92 1.72c-6.49 3.78-12.94 7.62-19.41 11.43-.34.19-.7.36-1.05.5 0-.54-.07-.87-.07-1.2.1-7.46.19-14.92.25-22.38a1.84 1.84 0 011.03-1.8c6.44-3.76 12.87-7.57 19.3-11.35.27-.16.57-.29.97-.5.08.5.15.86.15 1.2v-.01zm-42.52-2.37c6.5-3.66 13.02-7.3 19.5-10.98a1.93 1.93 0 012.21 0c6.44 3.68 12.9 7.31 19.35 10.96.32.18.61.4 1.15.75-1.2.69-2.16 1.26-3.15 1.81-5.68 3.2-11.38 6.37-17.04 9.59a2.36 2.36 0 01-2.7 0c-6.22-3.59-12.48-7.1-18.73-10.64l-1.45-.84c.28-.23.56-.44.86-.63v-.02zm-1.19 1.13c.56.29.97.48 1.36.72 6.26 3.7 12.5 7.43 18.79 11.1a2.12 2.12 0 011.23 2.1c0 7.28.1 14.51.17 21.83 0 .45 0 .97-.06 1.55-.55-.3-.97-.49-1.35-.72-6.26-3.7-12.51-7.43-18.8-11.1a2.14 2.14 0 01-1.22-2.12c0-7.26-.1-14.5-.16-21.82.04-.45.04-.87.04-1.54zm.97 26.24c6.3 3.63 12.65 7.18 18.97 10.76.37.2.72.43 1.18.72-.18.22-.38.42-.6.6l-20.01 11.24a1.43 1.43 0 01-1.58 0l-20.21-11.43c-.12-.07-.21-.18-.5-.4.47-.32.8-.56 1.16-.75 6.34-3.57 12.69-7.12 19-10.72a2.26 2.26 0 012.6-.02zm-1.47-24.91l-.24 22.25a1.7 1.7 0 01-.9 1.73 3525.5 3525.5 0 00-19.52 11.5c-.24.14-.5.24-.97.48v-1.62c.07-7.23.18-14.45.22-21.68a2.29 2.29 0 011.27-2.25c6.37-3.7 12.7-7.46 19.05-11.2.28-.16.58-.28 1.03-.5 0 .5.06.89.05 1.29h.01zm-42.45-2.29l10.38-5.8v-.08l9.26-5.2a1.73 1.73 0 011.93-.08c6.56 3.74 13.14 7.44 19.71 11.16.28.17.55.35.8.55-.38.27-.66.5-.96.67-6.52 3.64-13 7.29-19.45 10.94a1.73 1.73 0 01-1.94.07c-3.1-1.77-6.2-3.53-9.3-5.27l-10.32-5.8c-.24-.14-.44-.32-.79-.56.26-.3.45-.47.68-.6zm4.95 4.55l15.14 8.97.23 24.81-5.08-3-4.84-2.9-10.83-6.42a1.68 1.68 0 01-.5-.8l-.22-23.91c.7.25 3.1 1.55 6.1 3.23v.02zm-6.42 22.25a3 3 0 011.3.45c3.45 1.99 6.92 3.97 10.4 5.93l8.61 4.83c.32.19.62.41 1.17.76l-2.9 1.66-11.3 6.35-6.3 3.54a2.06 2.06 0 01-1.68.23c-.09 0-.16-.05-.25-.1-6.56-3.76-13.14-7.45-19.72-11.18-.24-.13-.45-.3-.86-.59.5-.32.8-.54 1.12-.72 6.3-3.54 12.58-7.07 18.88-10.65.45-.3.98-.5 1.53-.53v.02zm-.27-24.92l-.26 22.92V45a2.03 2.03 0 01-.96 1.28 3132.1 3132.1 0 00-19.9 11.7c-.1.04-.21.08-.32.1 0-.45-.07-.81-.06-1.16.08-7.46.17-14.9.23-22.37a1.63 1.63 0 01.89-1.59l19.64-11.6c.17-.1.37-.19.6-.3.08.26.13.52.14.78v-.01zm-43.13-1.57l1.2-.69 19.13-10.75c.32-.2.68-.32 1.05-.33.34.04.67.15.96.34 6.39 3.64 12.81 7.25 19.22 10.87.35.2.68.46 1.13.75-.48.31-.81.56-1.17.76-6.34 3.6-12.71 7.14-19.08 10.79a3.46 3.46 0 01-.81.3h-.06c-.27.05-.55.03-.81-.05a2.88 2.88 0 01-.63-.28c-6.34-3.64-12.72-7.22-19.08-10.82-.36-.2-.68-.45-1.18-.8l.13-.09zm-.43.82c.23.05.45.12.66.22 6.58 3.87 13.16 7.76 19.74 11.68a1.44 1.44 0 01.76.87v.44l.18 23.22c0 .2-.04.38-.09.57-.43-.22-.78-.39-1.1-.57-6.28-3.72-12.6-7.49-18.97-11.21a1.8 1.8 0 01-1.06-1.76c0-7.46-.12-14.92-.19-22.38l.07-1.07zm-.42 25.65H325.38c.17.05.34.12.5.21 6.54 3.75 13.12 7.44 19.7 11.16.23.14.45.3.8.54l-.23.18c-.27.2-.55.4-.85.57l-19.35 10.9c-.23.14-.48.23-.74.3H324.64a1.95 1.95 0 01-.5-.22c-6.56-3.75-13.14-7.44-19.7-11.16-.24-.13-.45-.3-.9-.62.52-.3.83-.5 1.16-.67l19.35-10.9c.29-.16.6-.25.92-.29zm-.23-24.5c-.09 7.4-.18 14.8-.24 22.26.02.44-.1.89-.36 1.26l-.12.16a2.2 2.2 0 01-.23.16c-.07.07-.16.13-.24.19-6.53 3.8-13.03 7.65-19.55 11.5l-.51.24-.15.07c-.07-.3-.12-.6-.14-.9.07-7.55.17-15.1.25-22.65a1.51 1.51 0 01.78-1.5l20-11.8c.15-.06.3-.12.44-.16.03.46.07.82.07 1.18zm-41.96-2.59c6.34-3.56 12.7-7.1 19-10.72.39-.23.82-.36 1.27-.37.42.04.82.17 1.18.4 6.3 3.61 12.64 7.17 18.97 10.75.37.2.72.44 1.2.74-.25.23-.52.45-.8.64-6.59 3.73-13.17 7.44-19.77 11.14l-.25.12a1.6 1.6 0 01-1.01.07l-.3-.12c-6.68-3.8-13.37-7.6-20.09-11.38-.15-.1-.29-.22-.67-.51l1.27-.76zm-.51 1.94l20.11 11.9.24 24.73-21.21-12.58-.23-24.7 1.09.65zm-.97 25.15l.24.1c6.73 3.83 13.46 7.65 20.2 11.44.15.12.3.25.43.38-.23.2-.47.38-.73.54l-3.62 2.05-10.97 6.19-5.06 2.85c-.3.16-.64.26-.97.3a2.46 2.46 0 01-1.24-.39c-6.34-3.64-12.72-7.21-19.09-10.82-.32-.18-.62-.4-1.05-.68.2-.2.41-.38.64-.54l20-11.26.34-.17c.28-.07.57-.06.84.01h.04zm-.67-24.57c-.09 7.45-.17 14.92-.24 22.39 0 .26-.04.53-.12.78a2 2 0 01-.63.81l-.13.1-.1.07c-6.47 3.77-12.9 7.6-19.36 11.4-.24.14-.5.25-.9.44 0-.52-.07-.83-.07-1.15.09-7.46.18-14.92.24-22.38a1.84 1.84 0 011.04-1.8c6.44-3.76 12.86-7.57 19.34-11.35.25-.14.52-.26.87-.43-.03.45.03.8.03 1.13l.03-.01zm-42.36-2.37c6.5-3.66 13.01-7.3 19.5-10.98.31-.2.67-.32 1.04-.35.36.02.71.13 1.02.32 6.44 3.68 12.9 7.31 19.35 10.96.3.16.57.37.97.67-.16.16-.33.3-.5.45l-1.29.75-5.56 3.12c-4.24 2.38-8.48 4.75-12.7 7.16-.4.25-.83.4-1.3.45a2.6 2.6 0 01-1.26-.4c-6.22-3.59-12.48-7.1-18.73-10.64l-1.45-.85c.27-.23.56-.45.87-.65l.04-.01zm-1.18 1.19c.47.24.86.42 1.2.64 6.28 3.7 12.52 7.43 18.8 11.1a2.12 2.12 0 011.22 2.1c0 7.28.12 14.51.18 21.83 0 .43 0 .88-.06 1.47-.48-.24-.86-.43-1.21-.64-6.26-3.7-12.51-7.43-18.79-11.1a2.15 2.15 0 01-1.23-2.12c0-7.26-.1-14.5-.17-21.82-.04-.42-.01-.86.02-1.45l.04-.01zm-.5 25.75c.44.02.86.16 1.22.39 6.31 3.63 12.66 7.18 18.98 10.76.37.2.72.43 1.19.72-.2.22-.4.42-.63.6l-20 11.25c-.23.12-.47.2-.73.23a1.5 1.5 0 01-.7-.22c-6.74-3.83-13.47-7.65-20.21-11.45-.12-.07-.22-.17-.5-.4.47-.32.8-.56 1.15-.75 6.35-3.57 12.7-7.12 19.01-10.72.37-.23.79-.37 1.22-.4zm-.24-24.52c-.08 7.4-.17 14.82-.24 22.25a1.73 1.73 0 01-.9 1.73c-6.52 3.81-13.03 7.65-19.53 11.5-.22.13-.45.23-.84.42v-1.56c.08-7.23.19-14.45.23-21.68a2.29 2.29 0 011.26-2.25c6.38-3.69 12.7-7.46 19.05-11.2.25-.14.54-.26.9-.43.05.48.11.87.11 1.25l-.04-.03zm-42.47-2.27l.42-.24 2.82-1.59 7.16-4.02 9.4-5.28c.28-.18.59-.29.91-.33.32 0 .62.09.9.25 6.55 3.74 13.13 7.44 19.7 11.16.24.14.46.3.81.56-.4.27-.67.49-.97.66l-19.49 10.97c-.28.17-.59.28-.9.32-.33.01-.64-.08-.9-.25-6.56-3.74-13.14-7.44-19.7-11.15a9.86 9.86 0 01-.83-.56c.23-.17.46-.33.7-.47l-.03-.03zm-1.03 1.26c1.24.55 2.44 1.17 3.6 1.85L214 33.44c.08 8.16.16 16.28.22 24.74l-4.93-2.9c-5.04-3-10.07-6-15.12-8.94a2.02 2.02 0 01-1.1-2c0-7.27-.11-14.51-.18-21.81-.04-.38 0-.77.01-1.3l-.04-.03zm.2 25.6l.47.22c6.4 3.67 12.82 7.27 19.22 10.9.32.18.62.4 1.16.75l-2.9 1.66-17.41 9.8c-.4.26-.85.4-1.32.4a2.34 2.34 0 01-.97-.35c-6.34-3.63-12.73-7.21-19.1-10.81-.36-.2-.7-.45-1.18-.75.3-.26.62-.5.96-.7 6.4-3.61 12.83-7.2 19.23-10.84h.1l.24-.12c.47-.2 1-.25 1.5-.12v-.03zm-.92-25.75c0 .53.08.9.06 1.26-.07 7.32-.18 14.63-.22 21.94a2.15 2.15 0 01-1.22 2.11c-6.25 3.64-12.45 7.33-18.67 11l-1.17.67-.18.06c0-.6-.06-1.03-.06-1.46.08-7.27.18-14.51.22-21.8a2.16 2.16 0 011.23-2.1c6.24-3.64 12.45-7.34 18.66-11l.74-.43.59-.3.06.08-.04-.03zm-42.1-1.37c2.6-1.45 5.19-2.9 7.79-4.38l3.75-2.11 7.95-4.47c.1-.04.2-.08.32-.1.36-.13.75-.13 1.12 0 .13.04.26.1.38.17 6.45 3.7 12.94 7.37 19.46 11.02.32.17.61.4 1.08.73l-1.33.77c-6.34 3.57-12.68 7.1-19 10.7a2.4 2.4 0 01-1.2.36c-.38-.03-.76-.15-1.1-.35-6.35-3.65-12.73-7.22-19.1-10.83-.35-.2-.68-.44-1.13-.74.44-.34.73-.57 1.04-.74l-.04-.03zm-1.35 1.37l.33.08c.22.1.43.2.64.33 6.44 3.8 12.87 7.59 19.26 11.39a1.7 1.7 0 01.97 1.67c0 7.46.11 14.92.18 22.38 0 .34-.05.69-.09 1.15-.38-.17-.69-.3-.97-.46-6.45-3.8-12.87-7.6-19.26-11.4a1.74 1.74 0 01-.97-1.67c0-7.46-.11-14.92-.17-22.38.05-.3.09-.63.12-1.07l-.04-.02zm-.38 25.68c.34.02.67.12.97.3 6.46 3.7 12.96 7.35 19.45 11.02.28.16.54.35.97.6-.26.24-.54.46-.82.66l-19.75 11.1c-.26.16-.55.26-.85.29-.3-.01-.58-.1-.83-.25-6.6-3.76-13.21-7.5-19.83-11.23-.2-.11-.38-.26-.8-.57l1.26-.72c6.42-3.61 12.85-7.2 19.25-10.83.16-.1.33-.17.5-.23h.14c.1-.06.22-.1.34-.14zm-.26-24.51c-.09 7.4-.19 14.8-.24 22.25a1.82 1.82 0 01-1.02 1.8c-6.45 3.78-12.92 7.59-19.4 11.41-.22.13-.45.24-.74.37-.07-.3-.12-.6-.15-.9.1-7.55.18-15.1.25-22.66a1.53 1.53 0 01.79-1.5l20.05-11.82c.1 0 .23-.09.44-.16-.02.49.02.85.02 1.2zm-42.06-2.52c6.38-3.6 12.77-7.17 19.14-10.79a3.3 3.3 0 01.85-.33c.3-.04.59-.02.87.06.2.06.4.15.57.25 6.35 3.64 12.73 7.22 19.1 10.83.37.2.7.44 1.18.74-.4.3-.66.54-.97.71-6.5 3.66-13.03 7.3-19.52 10.97-.3.18-.63.28-.97.3-.3-.01-.6-.1-.87-.27-6.52-3.73-13.07-7.45-19.66-11.16-.24-.14-.45-.32-.9-.63l1.18-.68zm9.08 7.47c3.54 2.08 7.06 4.18 10.64 6.3l.22 24.72-21.2-12.58-.23-24.66c3.7 2.05 7.1 4.19 10.57 6.22zm-11.01 19.5c.34.01.67.11.96.3a2161 2161 0 0019.47 11.01c.26.15.52.33.88.57h.06c-.25.22-.52.42-.8.6L104.9 70.27c-.13.07-.27.13-.4.18-.32.09-.66.09-.97 0l-.28-.11-8.04-4.56c-3.82-2.12-7.6-4.26-11.47-6.47-.33-.17-.63-.4-1.06-.68.2-.2.41-.38.64-.54l19.82-11.1c.28-.16.6-.27.92-.32zm-.23-25.65c0 .57.06.96.06 1.44-.08 7.27-.18 14.51-.23 21.81a2.16 2.16 0 01-1.19 2.14c-2.48 1.44-4.94 2.9-7.41 4.36v.07l-11.61 6.87c-.34.19-.7.36-1.06.5 0-.55-.06-.87-.06-1.2.08-7.46.19-14.92.24-22.38a1.85 1.85 0 011.04-1.8c3.87-2.26 7.74-4.54 11.61-6.83l7.5-4.42c.31-.18.66-.34 1.11-.56zM61.47 19.8c6.5-3.66 13.01-7.3 19.5-10.98a1.93 1.93 0 012.2 0c3.96 2.26 7.91 4.52 11.88 6.77l7.23 4.05c.35.2.7.45 1.18.73-.2.21-.41.4-.64.58l-7.74 4.37v.08a1794.5 1794.5 0 00-11.56 6.51 2.36 2.36 0 01-2.7 0c-6.22-3.59-12.48-7.1-18.72-10.64l-1.46-.84c.27-.23.54-.44.83-.63zM60.3 20.9c.55.29.96.48 1.34.72 6.27 3.7 12.51 7.43 18.79 11.1a2.12 2.12 0 011.23 2.1c0 7.28.1 14.51.17 21.83 0 .45 0 .97-.06 1.55-.55-.3-.96-.49-1.35-.72-6.26-3.7-12.5-7.43-18.79-11.1a2.15 2.15 0 01-1.23-2.12c0-7.26-.1-14.5-.16-21.82-.01-.45.03-.87.06-1.54zm.96 26.24c6.31 3.63 12.66 7.18 18.99 10.76.36.2.71.43 1.18.72-.19.22-.4.42-.62.6L60.78 70.46a1.43 1.43 0 01-1.58 0L39 59.04a5.63 5.63 0 01-.5-.4c.46-.32.8-.56 1.16-.75 6.34-3.57 12.68-7.12 19-10.72a2.25 2.25 0 012.59-.02h.02zm-1.49-24.91c-.07 7.4-.17 14.82-.24 22.25a1.74 1.74 0 01-.89 1.73c-6.5 3.8-13.01 7.63-19.54 11.48-.23.14-.5.25-.97.48 0-.7-.05-1.16 0-1.62.08-7.23.19-14.45.22-21.68a2.28 2.28 0 011.27-2.25c6.38-3.69 12.7-7.46 19.06-11.2.27-.16.57-.28 1.03-.5 0 .51.06.9.06 1.3zM17.6 19.73l19.35-10.9a1.73 1.73 0 011.94-.07c6.56 3.74 13.14 7.44 19.7 11.16.25.14.46.3.82.55-.4.28-.68.5-.97.67-6.48 3.66-12.97 7.32-19.47 10.97a1.73 1.73 0 01-1.93.07c-6.57-3.74-13.15-7.44-19.72-11.15-.24-.14-.45-.31-.9-.62.56-.31.85-.5 1.18-.68zm-1.42 1.14l21.28 12.58.24 24.81-5.1-3c-5.02-3-10.05-6-15.11-8.94a2.02 2.02 0 01-1.18-2c0-7.27-.11-14.5-.18-21.81-.03-.45.01-.93.05-1.64z" fill="#0E1A4B"/>
</svg>
