<svg width="124" height="40" viewBox="0 0 124 40" fill="none" xmlns="http://www.w3.org/2000/svg">
<rect x="0.7" y="0.7" width="122.6" height="38.6" rx="9.3" stroke="#56A94F" stroke-width="1.4"/>
<path d="M14.3512 17.5603H15.2599C16.59 17.5603 17.1895 16.847 17.1895 15.3438C17.1895 13.6151 16.2154 13.3275 15.0351 13.1572L14.5574 13.0826C13.8735 12.9888 13.7331 12.616 13.7331 12.0746C13.7331 11.4677 14.0328 11.2564 14.5105 11.2564H15.0256C15.5035 11.2564 15.747 11.4569 15.7939 11.9789C15.8032 12.1279 15.8781 12.2007 16 12.2007H16.8429C16.974 12.2007 17.0302 12.1279 17.0302 11.9789C17.0302 10.7241 16.3745 10 15.1382 10H14.4263C13.1428 10 12.4966 10.6815 12.4966 12.0107C12.4966 13.7111 13.3583 14.073 14.5574 14.2541L15.0443 14.3285C15.6533 14.4244 15.953 14.616 15.953 15.3438C15.953 16.1336 15.5784 16.304 15.1007 16.304H14.52C14.042 16.304 13.7237 16.1336 13.6769 15.5888C13.6675 15.4503 13.5833 15.3651 13.4707 15.3651H12.6277C12.4966 15.3651 12.4404 15.4503 12.4404 15.5888C12.4404 16.8362 13.0397 17.5603 14.3512 17.5603ZM18.9507 17.5072H22.7349C22.8286 17.5072 22.8755 17.4539 22.8755 17.3474V16.4104C22.8755 16.304 22.8286 16.2506 22.7349 16.2506H20.0466V14.387H22.4633C22.5569 14.387 22.6038 14.3339 22.6038 14.2275V13.3328C22.6038 13.2263 22.5569 13.1625 22.4633 13.1625H20.0466V11.3097H22.6787C22.7724 11.3097 22.8191 11.2564 22.8191 11.1499V10.2129C22.8191 10.1064 22.7724 10.0534 22.6787 10.0534H18.9507C18.8568 10.0534 18.8101 10.1064 18.8101 10.2129V17.3474C18.8101 17.4539 18.8568 17.5072 18.9507 17.5072ZM29.0201 13.4074V12.2575C29.0201 10.9157 28.449 10.0534 27.0904 10.0534H24.4958C24.4022 10.0534 24.3553 10.1064 24.3553 10.2129V17.3474C24.3553 17.4539 24.4022 17.5072 24.4958 17.5072H25.4514C25.5451 17.5072 25.5918 17.4539 25.5918 17.3474V15.6011H27.0904L27.7275 17.3367C27.7651 17.4539 27.8586 17.5072 27.9713 17.5072H28.8331C28.9829 17.5072 29.0481 17.4113 28.9921 17.2515L28.2615 15.2815C28.7859 14.9196 29.0201 14.2593 29.0201 13.4074ZM25.5918 11.3097H26.9877C27.4841 11.3097 27.7839 11.5652 27.7839 12.2893V13.3649C27.7839 14.1103 27.4841 14.3445 26.9877 14.3445H25.5918V11.3097ZM31.938 17.5072H33.5212C33.6055 17.5072 33.6711 17.4433 33.699 17.3367L35.3273 10.2663C35.3557 10.149 35.2993 10.0534 35.2058 10.0534H34.2593C34.1658 10.0534 34.1002 10.149 34.0723 10.2663L32.7997 15.91H32.6595L31.3777 10.2663C31.3493 10.149 31.2934 10.0534 31.1995 10.0534H30.2442C30.1503 10.0534 30.0943 10.149 30.1223 10.2663L31.7618 17.3367C31.7881 17.4433 31.8537 17.5072 31.938 17.5072ZM36.9635 17.5072H40.7477C40.8416 17.5072 40.8884 17.4539 40.8884 17.3474V16.4104C40.8884 16.304 40.8416 16.2506 40.7477 16.2506H38.0594V14.387H40.4759C40.5698 14.387 40.6166 14.3339 40.6166 14.2275V13.3328C40.6166 13.2263 40.5698 13.1625 40.4759 13.1625H38.0594V11.3097H40.6917C40.7853 11.3097 40.832 11.2564 40.832 11.1499V10.2129C40.832 10.1064 40.7853 10.0534 40.6917 10.0534H36.9635C36.8699 10.0534 36.8228 10.1064 36.8228 10.2129V17.3474C36.8228 17.4539 36.8699 17.5072 36.9635 17.5072ZM47.0331 13.4074V12.2575C47.0331 10.9157 46.4616 10.0534 45.1035 10.0534H42.5091C42.4152 10.0534 42.3684 10.1064 42.3684 10.2129V17.3474C42.3684 17.4539 42.4152 17.5072 42.5091 17.5072H43.4644C43.5579 17.5072 43.6051 17.4539 43.6051 17.3474V15.6011H45.1035L45.7406 17.3367C45.7781 17.4539 45.8717 17.5072 45.984 17.5072H46.8457C46.9956 17.5072 47.0611 17.4113 47.0052 17.2515L46.2745 15.2815C46.7989 14.9196 47.0331 14.2593 47.0331 13.4074ZM43.6051 11.3097H45.0003C45.4967 11.3097 45.7969 11.5652 45.7969 12.2893V13.3649C45.7969 14.1103 45.4967 14.3445 45.0003 14.3445H43.6051V11.3097ZM50.48 17.5603H51.3889C52.7191 17.5603 53.3186 16.847 53.3186 15.3438C53.3186 13.6151 52.3442 13.3275 51.1643 13.1572L50.6863 13.0826C50.0024 12.9888 49.8621 12.616 49.8621 12.0746C49.8621 11.4677 50.1619 11.2564 50.6395 11.2564H51.1547C51.6323 11.2564 51.8761 11.4569 51.9229 11.9789C51.9321 12.1279 52.0072 12.2007 52.1291 12.2007H52.9721C53.1032 12.2007 53.1591 12.1279 53.1591 11.9789C53.1591 10.7241 52.5036 10 51.267 10H50.5552C49.2718 10 48.6255 10.6815 48.6255 12.0107C48.6255 13.7111 49.4872 14.073 50.6863 14.2541L51.1735 14.3285C51.7822 14.4244 52.082 14.616 52.082 15.3438C52.082 16.1336 51.7075 16.304 51.2294 16.304H50.6487C50.1711 16.304 49.8525 16.1336 49.8058 15.5888C49.7966 15.4503 49.7122 15.3651 49.5999 15.3651H48.7566C48.6255 15.3651 48.5695 15.4503 48.5695 15.5888C48.5695 16.8362 49.1687 17.5603 50.48 17.5603Z" fill="#56A94F"/>
<path d="M12.502 30H17.4418C17.5641 30 17.6254 29.9303 17.6254 29.7913V28.568C17.6254 28.4293 17.5641 28.3596 17.4418 28.3596H13.9325V25.927H17.0874C17.2097 25.927 17.2707 25.8576 17.2707 25.7186V24.551C17.2707 24.412 17.2097 24.3284 17.0874 24.3284H13.9325V21.9098H17.3685C17.4908 21.9098 17.5519 21.8404 17.5519 21.7014V20.4781C17.5519 20.339 17.4908 20.2697 17.3685 20.2697H12.502C12.3796 20.2697 12.3184 20.339 12.3184 20.4781V29.7913C12.3184 29.9303 12.3796 30 12.502 30ZM18.8911 30H20.175C20.3096 30 20.3461 29.9442 20.4196 29.8052L21.7645 26.914H21.8869L23.2319 29.8052C23.2929 29.9442 23.3541 30 23.4765 30H24.7604C24.895 30 24.956 29.9164 24.8827 29.7358L22.6693 25.1348L24.8705 20.5338C24.9437 20.353 24.8827 20.2697 24.7481 20.2697H23.452C23.3296 20.2697 23.2564 20.3251 23.2073 20.4642L21.8869 23.3554H21.7645L20.4439 20.4642C20.3828 20.3251 20.3216 20.2697 20.1995 20.2697H18.9156C18.781 20.2697 18.6955 20.353 18.7687 20.5338L20.9697 25.1348L18.7565 29.7358C18.6832 29.9164 18.7565 30 18.8911 30ZM29.9267 20.2697H26.5395C26.4172 20.2697 26.3558 20.339 26.3558 20.4781V29.7913C26.3558 29.9303 26.4172 30 26.5395 30H27.7866C27.9089 30 27.9703 29.9303 27.9703 29.7913V27.5117H29.9267C31.6994 27.5117 32.4454 26.3857 32.4454 24.6483V23.1469C32.4454 21.3954 31.6994 20.2697 29.9267 20.2697ZM30.8314 24.5926C30.8314 25.5656 30.4402 25.8716 29.7918 25.8716H27.9703V21.9098H29.7918C30.4402 21.9098 30.8314 22.2433 30.8314 23.1887V24.5926ZM34.1939 30H39.1342C39.2565 30 39.3175 29.9303 39.3175 29.7913V28.568C39.3175 28.4293 39.2565 28.3596 39.1342 28.3596H35.6247V25.927H38.7793C38.9017 25.927 38.963 25.8576 38.963 25.7186V24.551C38.963 24.412 38.9017 24.3284 38.7793 24.3284H35.6247V21.9098H39.0607C39.1831 21.9098 39.244 21.8404 39.244 21.7014V20.4781C39.244 20.339 39.1831 20.2697 39.0607 20.2697H34.1939C34.0716 20.2697 34.0107 20.339 34.0107 20.4781V29.7913C34.0107 29.9303 34.0716 30 34.1939 30ZM46.7277 24.6483V23.1469C46.7277 21.3954 45.9816 20.2697 44.2089 20.2697H40.8217C40.6994 20.2697 40.6381 20.339 40.6381 20.4781V29.7913C40.6381 29.9303 40.6994 30 40.8217 30H42.0688C42.1911 30 42.2521 29.9303 42.2521 29.7913V27.5117H44.2089L45.0402 29.7774C45.089 29.9303 45.2113 30 45.3583 30H46.4831C46.6789 30 46.7644 29.8748 46.691 29.6662L45.737 27.0946C46.4221 26.622 46.7277 25.7604 46.7277 24.6483ZM42.2521 21.9098H44.0741C44.7225 21.9098 45.1137 22.2433 45.1137 23.1887V24.5926C45.1137 25.5656 44.7225 25.8716 44.0741 25.8716H42.2521V21.9098ZM53.1351 20.2697H47.8771C47.7548 20.2697 47.6938 20.339 47.6938 20.4781V21.7014C47.6938 21.8404 47.7548 21.9098 47.8771 21.9098H49.7112V29.7913C49.7112 29.9303 49.7725 30 49.8949 30H51.1298C51.2522 30 51.3252 29.9303 51.3252 29.7913V21.9098H53.1351C53.2574 21.9098 53.3184 21.8404 53.3184 21.7014V20.4781C53.3184 20.339 53.2574 20.2697 53.1351 20.2697Z" fill="white"/>
<path d="M65.9784 11.21C66.985 11.21 67.755 11.3934 68.2884 11.76C68.8284 12.1267 69.0984 12.7 69.0984 13.48C69.0984 13.8867 69.025 14.2367 68.8784 14.53C68.7384 14.8167 68.5317 15.0534 68.2584 15.24C67.985 15.42 67.6517 15.5534 67.2584 15.64C66.865 15.7267 66.415 15.77 65.9084 15.77H65.2784V18.21H64.0184V11.38C64.3117 11.3134 64.635 11.27 64.9884 11.25C65.3484 11.2234 65.6784 11.21 65.9784 11.21ZM66.0684 12.3C65.7484 12.3 65.485 12.31 65.2784 12.33V14.69H65.8884C66.495 14.69 66.9617 14.6067 67.2884 14.44C67.615 14.2667 67.7784 13.9434 67.7784 13.47C67.7784 13.2434 67.735 13.0534 67.6484 12.9C67.5617 12.7467 67.4417 12.6267 67.2884 12.54C67.135 12.4534 66.9517 12.3934 66.7384 12.36C66.5317 12.32 66.3084 12.3 66.0684 12.3Z" fill="white"/>
<path d="M69.8988 15.62C69.8988 15.16 69.9655 14.7567 70.0988 14.41C70.2388 14.0634 70.4222 13.7767 70.6488 13.55C70.8755 13.3167 71.1355 13.1434 71.4288 13.03C71.7222 12.91 72.0222 12.85 72.3288 12.85C73.0488 12.85 73.6088 13.0734 74.0088 13.52C74.4155 13.9667 74.6188 14.6334 74.6188 15.52C74.6188 15.5867 74.6155 15.6634 74.6088 15.75C74.6088 15.83 74.6055 15.9034 74.5988 15.97H71.1488C71.1822 16.39 71.3288 16.7167 71.5888 16.95C71.8555 17.1767 72.2388 17.29 72.7388 17.29C73.0322 17.29 73.2988 17.2634 73.5388 17.21C73.7855 17.1567 73.9788 17.1 74.1188 17.04L74.2788 18.03C74.2122 18.0634 74.1188 18.1 73.9988 18.14C73.8855 18.1734 73.7522 18.2034 73.5988 18.23C73.4522 18.2634 73.2922 18.29 73.1188 18.31C72.9455 18.33 72.7688 18.34 72.5888 18.34C72.1288 18.34 71.7288 18.2734 71.3888 18.14C71.0488 18 70.7688 17.81 70.5488 17.57C70.3288 17.3234 70.1655 17.0367 70.0588 16.71C69.9522 16.3767 69.8988 16.0134 69.8988 15.62ZM73.4088 15.08C73.4088 14.9134 73.3855 14.7567 73.3388 14.61C73.2922 14.4567 73.2222 14.3267 73.1288 14.22C73.0422 14.1067 72.9322 14.02 72.7988 13.96C72.6722 13.8934 72.5188 13.86 72.3388 13.86C72.1522 13.86 71.9888 13.8967 71.8488 13.97C71.7088 14.0367 71.5888 14.1267 71.4888 14.24C71.3955 14.3534 71.3222 14.4834 71.2688 14.63C71.2155 14.7767 71.1788 14.9267 71.1588 15.08H73.4088Z" fill="white"/>
<path d="M80.4817 12.98V18.21H79.2817C79.2817 17.83 79.2817 17.4534 79.2817 17.08C79.2884 16.7067 79.2917 16.36 79.2917 16.04C79.2984 15.72 79.3017 15.4434 79.3017 15.21C79.3084 14.97 79.3117 14.7934 79.3117 14.68C79.1117 14.94 78.9051 15.2267 78.6917 15.54C78.4784 15.8534 78.2651 16.1667 78.0517 16.48C77.8451 16.7934 77.6484 17.1 77.4617 17.4C77.2751 17.7 77.1117 17.97 76.9717 18.21H75.9017V12.98H77.0917C77.0917 13.3667 77.0884 13.7367 77.0817 14.09C77.0817 14.4367 77.0817 14.7534 77.0817 15.04C77.0817 15.3267 77.0784 15.5767 77.0717 15.79C77.0717 16.0034 77.0717 16.1667 77.0717 16.28C77.2584 15.9934 77.4517 15.7 77.6517 15.4C77.8517 15.0934 78.0517 14.7967 78.2517 14.51C78.4584 14.2167 78.6617 13.94 78.8617 13.68C79.0617 13.42 79.2551 13.1867 79.4417 12.98H80.4817ZM78.2017 12.2C77.9884 12.2 77.7884 12.17 77.6017 12.11C77.4217 12.05 77.2584 11.9634 77.1117 11.85C76.9651 11.7367 76.8451 11.6 76.7517 11.44C76.6584 11.2734 76.6017 11.0867 76.5817 10.88L77.4517 10.65C77.5651 11.1234 77.8151 11.36 78.2017 11.36C78.5951 11.36 78.8451 11.1267 78.9517 10.66L79.8117 10.89C79.7851 11.0967 79.7251 11.2834 79.6317 11.45C79.5451 11.61 79.4284 11.7467 79.2817 11.86C79.1417 11.9667 78.9784 12.05 78.7917 12.11C78.6051 12.17 78.4084 12.2 78.2017 12.2Z" fill="white"/>
<path d="M85.9648 13.99H84.2748V18.21H83.0648V13.99H81.3848V12.98H85.9648V13.99Z" fill="white"/>
<path d="M91.4485 12.98V18.21H90.2485C90.2485 17.83 90.2485 17.4534 90.2485 17.08C90.2552 16.7067 90.2585 16.36 90.2585 16.04C90.2652 15.72 90.2685 15.4434 90.2685 15.21C90.2752 14.97 90.2785 14.7934 90.2785 14.68C90.0785 14.94 89.8718 15.2267 89.6585 15.54C89.4452 15.8534 89.2318 16.1667 89.0185 16.48C88.8118 16.7934 88.6152 17.1 88.4285 17.4C88.2418 17.7 88.0785 17.97 87.9385 18.21H86.8685V12.98H88.0585C88.0585 13.3667 88.0552 13.7367 88.0485 14.09C88.0485 14.4367 88.0485 14.7534 88.0485 15.04C88.0485 15.3267 88.0452 15.5767 88.0385 15.79C88.0385 16.0034 88.0385 16.1667 88.0385 16.28C88.2252 15.9934 88.4185 15.7 88.6185 15.4C88.8185 15.0934 89.0185 14.7967 89.2185 14.51C89.4252 14.2167 89.6285 13.94 89.8285 13.68C90.0285 13.42 90.2218 13.1867 90.4085 12.98H91.4485Z" fill="white"/>
<path d="M97.3816 18.21H96.1716V16.02H94.2016V18.21H92.9916V12.98H94.2016V15.02H96.1716V12.98H97.3816V18.21Z" fill="white"/>
<path d="M102.389 13.98H100.129V18.21H98.9193V12.98H102.389V13.98Z" fill="white"/>
<path d="M65.8384 25.69L66.9484 23.98H68.2184L66.4984 26.45C66.8584 26.9167 67.2017 27.39 67.5284 27.87C67.8617 28.3434 68.135 28.79 68.3484 29.21H67.0384C66.9784 29.0834 66.8984 28.94 66.7984 28.78C66.705 28.6134 66.6017 28.4434 66.4884 28.27C66.3817 28.09 66.2684 27.9134 66.1484 27.74C66.0284 27.5667 65.9117 27.4034 65.7984 27.25C65.565 27.55 65.335 27.8834 65.1084 28.25C64.8884 28.61 64.705 28.93 64.5584 29.21H63.3184C63.4184 29.01 63.5384 28.7967 63.6784 28.57C63.8184 28.3434 63.9684 28.1134 64.1284 27.88C64.2884 27.64 64.4517 27.4034 64.6184 27.17C64.7917 26.93 64.9617 26.7034 65.1284 26.49L63.3984 23.98H64.7284L65.8384 25.69Z" fill="white"/>
<path d="M73.8055 26.59C73.8055 27.0034 73.7455 27.38 73.6255 27.72C73.5055 28.06 73.3355 28.35 73.1155 28.59C72.8955 28.83 72.6289 29.0167 72.3155 29.15C72.0089 29.2834 71.6689 29.35 71.2955 29.35C70.9222 29.35 70.5822 29.2834 70.2755 29.15C69.9689 29.0167 69.7055 28.83 69.4855 28.59C69.2655 28.35 69.0922 28.06 68.9655 27.72C68.8455 27.38 68.7855 27.0034 68.7855 26.59C68.7855 26.1767 68.8455 25.8034 68.9655 25.47C69.0922 25.13 69.2655 24.84 69.4855 24.6C69.7122 24.36 69.9789 24.1767 70.2855 24.05C70.5922 23.9167 70.9289 23.85 71.2955 23.85C71.6622 23.85 71.9989 23.9167 72.3055 24.05C72.6189 24.1767 72.8855 24.36 73.1055 24.6C73.3255 24.84 73.4955 25.13 73.6155 25.47C73.7422 25.8034 73.8055 26.1767 73.8055 26.59ZM72.5655 26.59C72.5655 26.07 72.4522 25.66 72.2255 25.36C72.0055 25.0534 71.6955 24.9 71.2955 24.9C70.8955 24.9 70.5822 25.0534 70.3555 25.36C70.1355 25.66 70.0255 26.07 70.0255 26.59C70.0255 27.1167 70.1355 27.5334 70.3555 27.84C70.5822 28.1467 70.8955 28.3 71.2955 28.3C71.6955 28.3 72.0055 28.1467 72.2255 27.84C72.4522 27.5334 72.5655 27.1167 72.5655 26.59Z" fill="white"/>
<path d="M74.7621 26.6C74.7621 26.2134 74.8221 25.8534 74.9421 25.52C75.0621 25.18 75.2321 24.8867 75.4521 24.64C75.6788 24.3934 75.9521 24.2 76.2721 24.06C76.5921 23.92 76.9521 23.85 77.3521 23.85C77.8454 23.85 78.3121 23.94 78.7521 24.12L78.4921 25.11C78.3521 25.05 78.1921 25 78.0121 24.96C77.8388 24.92 77.6521 24.9 77.4521 24.9C76.9788 24.9 76.6188 25.05 76.3721 25.35C76.1254 25.6434 76.0021 26.06 76.0021 26.6C76.0021 27.12 76.1188 27.5334 76.3521 27.84C76.5854 28.14 76.9788 28.29 77.5321 28.29C77.7388 28.29 77.9421 28.27 78.1421 28.23C78.3421 28.19 78.5154 28.14 78.6621 28.08L78.8321 29.08C78.6988 29.1467 78.4954 29.2067 78.2221 29.26C77.9554 29.3134 77.6788 29.34 77.3921 29.34C76.9454 29.34 76.5554 29.2734 76.2221 29.14C75.8954 29 75.6221 28.81 75.4021 28.57C75.1888 28.3234 75.0288 28.0334 74.9221 27.7C74.8154 27.36 74.7621 26.9934 74.7621 26.6Z" fill="white"/>
<path d="M83.8359 24.99H82.1459V29.21H80.9359V24.99H79.2559V23.98H83.8359V24.99Z" fill="white"/>
<path d="M89.3196 23.98V29.21H88.1196C88.1196 28.83 88.1196 28.4534 88.1196 28.08C88.1263 27.7067 88.1296 27.36 88.1296 27.04C88.1363 26.72 88.1396 26.4434 88.1396 26.21C88.1463 25.97 88.1496 25.7934 88.1496 25.68C87.9496 25.94 87.7429 26.2267 87.5296 26.54C87.3163 26.8534 87.1029 27.1667 86.8896 27.48C86.6829 27.7934 86.4863 28.1 86.2996 28.4C86.1129 28.7 85.9496 28.97 85.8096 29.21H84.7396V23.98H85.9296C85.9296 24.3667 85.9263 24.7367 85.9196 25.09C85.9196 25.4367 85.9196 25.7534 85.9196 26.04C85.9196 26.3267 85.9163 26.5767 85.9096 26.79C85.9096 27.0034 85.9096 27.1667 85.9096 27.28C86.0963 26.9934 86.2896 26.7 86.4896 26.4C86.6896 26.0934 86.8896 25.7967 87.0896 25.51C87.2963 25.2167 87.4996 24.94 87.6996 24.68C87.8996 24.42 88.0929 24.1867 88.2796 23.98H89.3196Z" fill="white"/>
<path d="M95.2527 29.21H94.0427V27.02H92.0727V29.21H90.8627V23.98H92.0727V26.02H94.0427V23.98H95.2527V29.21Z" fill="white"/>
<path d="M100.26 24.98H98.0004V29.21H96.7904V23.98H100.26V24.98Z" fill="white"/>
<path d="M105.886 26.59C105.886 27.0034 105.826 27.38 105.706 27.72C105.586 28.06 105.416 28.35 105.196 28.59C104.976 28.83 104.709 29.0167 104.396 29.15C104.089 29.2834 103.749 29.35 103.376 29.35C103.002 29.35 102.662 29.2834 102.356 29.15C102.049 29.0167 101.786 28.83 101.566 28.59C101.346 28.35 101.172 28.06 101.046 27.72C100.926 27.38 100.866 27.0034 100.866 26.59C100.866 26.1767 100.926 25.8034 101.046 25.47C101.172 25.13 101.346 24.84 101.566 24.6C101.792 24.36 102.059 24.1767 102.366 24.05C102.672 23.9167 103.009 23.85 103.376 23.85C103.742 23.85 104.079 23.9167 104.386 24.05C104.699 24.1767 104.966 24.36 105.186 24.6C105.406 24.84 105.576 25.13 105.696 25.47C105.822 25.8034 105.886 26.1767 105.886 26.59ZM104.646 26.59C104.646 26.07 104.532 25.66 104.306 25.36C104.086 25.0534 103.776 24.9 103.376 24.9C102.976 24.9 102.662 25.0534 102.436 25.36C102.216 25.66 102.106 26.07 102.106 26.59C102.106 27.1167 102.216 27.5334 102.436 27.84C102.662 28.1467 102.976 28.3 103.376 28.3C103.776 28.3 104.086 28.1467 104.306 27.84C104.532 27.5334 104.646 27.1167 104.646 26.59Z" fill="white"/>
<path d="M109.212 29.31C109.019 29.31 108.822 29.3034 108.622 29.29C108.422 29.2767 108.229 29.26 108.042 29.24C107.862 29.22 107.692 29.2 107.532 29.18C107.372 29.1534 107.239 29.1267 107.132 29.1V24.05C107.239 24.0234 107.372 24 107.532 23.98C107.692 23.9534 107.862 23.9334 108.042 23.92C108.229 23.9 108.422 23.8867 108.622 23.88C108.822 23.8667 109.019 23.86 109.212 23.86C109.919 23.86 110.469 23.99 110.862 24.25C111.256 24.5034 111.452 24.86 111.452 25.32C111.452 25.56 111.392 25.7734 111.272 25.96C111.152 26.1467 110.996 26.2867 110.802 26.38C111.042 26.4734 111.249 26.62 111.422 26.82C111.596 27.02 111.682 27.3034 111.682 27.67C111.682 28.1967 111.476 28.6034 111.062 28.89C110.649 29.17 110.032 29.31 109.212 29.31ZM109.242 26.08C109.542 26.08 109.789 26.0367 109.982 25.95C110.182 25.8634 110.282 25.69 110.282 25.43C110.282 25.3034 110.249 25.2 110.182 25.12C110.122 25.04 110.039 24.9767 109.932 24.93C109.826 24.8834 109.702 24.8534 109.562 24.84C109.422 24.82 109.276 24.81 109.122 24.81C109.002 24.81 108.862 24.8134 108.702 24.82C108.549 24.8267 108.426 24.8367 108.332 24.85V26.08H109.242ZM108.332 28.31C108.412 28.3234 108.542 28.3367 108.722 28.35C108.909 28.3567 109.082 28.36 109.242 28.36C109.602 28.36 109.899 28.31 110.132 28.21C110.372 28.11 110.492 27.92 110.492 27.64C110.492 27.3667 110.382 27.18 110.162 27.08C109.949 26.9734 109.669 26.92 109.322 26.92H108.332V28.31Z" fill="white"/>
</svg>
